
	<svg xmlns="http://www.w3.org/2000/svg" width="290" height="324" viewBox="0 0 290 324" fill="none">
		<g clip-path="url(#clip0_1975_17489)">
			<path d="M145 319.907C217.266 319.907 275.85 302.959 275.85 282.053C275.85 261.146 217.266 244.198 145 244.198C72.7338 244.198 14.1504 261.146 14.1504 282.053C14.1504 302.959 72.7338 319.907 145 319.907Z" fill="#A198FF"></path>
			<path opacity="0.33" d="M137.277 292.845C157.879 292.845 174.581 288.013 174.581 282.053C174.581 276.093 157.879 271.261 137.277 271.261C116.675 271.261 99.9734 276.093 99.9734 282.053C99.9734 288.013 116.675 292.845 137.277 292.845Z" fill="#67B298"></path>
			<path d="M145 324.002C225.081 324.002 290 305.22 290 282.053C290 258.885 225.081 240.104 145 240.104C64.9187 240.104 0 258.885 0 282.053C0 305.22 64.9187 324.002 145 324.002Z" fill="#A198FF"></path>
			<path fill-rule="evenodd" clip-rule="evenodd" d="M85.0022 197.694L55.1199 146.075L25.2375 197.694H39.9057L40.2869 311.108L68.9207 317.749C69.3924 277.731 69.8629 237.712 70.3324 197.694H85.0022Z" fill="#DAD6FF"></path>
			<path fill-rule="evenodd" clip-rule="evenodd" d="M183.556 53.4314L152.624 0L121.693 53.4314H136.878C136.811 115.842 136.744 178.252 136.676 240.664L166.475 240.165C167.108 177.919 167.74 115.674 168.371 53.4314H183.556Z" fill="#E1DEFF"></path>
			<path fill-rule="evenodd" clip-rule="evenodd" d="M238.111 216.76L213.53 174.3L188.949 216.76H201.016V271.676H226.045V216.76H238.111Z" fill="#A198FF"></path>
			<path d="M112.073 219.958C114.698 213.649 119.992 206.822 123.521 201.413C124.554 199.67 125.445 197.847 126.185 195.962C124.549 183.51 115.899 172.22 111.938 160.548C112.068 160.591 112.239 160.634 112.413 160.678C114.91 161.106 117.965 160.892 119.987 161.235C124.549 161.921 129.112 162.866 133.673 163.596C135.869 163.983 138.108 164.541 140.302 163.81C141.895 163.296 142.966 162.18 144.176 161.192C147.103 161.235 148.093 161.279 148.137 159.218C148.142 158.903 148.127 158.587 148.093 158.273C152.611 166.171 155.798 175.057 156.012 184.244C158.423 190.94 159.327 196.734 156.485 204.547C152.611 215.364 147.705 225.923 143.487 236.699C143.424 236.533 143.32 236.385 143.186 236.269C143.108 236.148 143.005 236.046 142.884 235.968C142.24 235.54 141.293 235.497 140.475 235.41C138.882 234.68 137.204 234.338 135.697 233.393C134.664 232.792 133.803 231.804 132.684 231.419C132.649 231.403 132.609 231.398 132.57 231.406C132.532 231.413 132.497 231.432 132.47 231.461C132.383 231.547 132.34 231.627 132.303 231.676C131.917 232.105 132.002 232.018 131.917 232.321C130.84 230.388 130.324 229.573 131.228 226.998C132.992 221.588 134.456 217.081 135.015 211.758C133.85 213.174 132.819 214.635 132.002 215.665C129.548 218.798 127.742 221.932 125.977 225.46C124.47 228.465 123.352 232.286 120.51 234.094L119.864 233.966C118.056 233.709 116.335 233.279 114.57 232.935H114.527C113.603 232.373 112.714 231.757 111.863 231.09C111.778 231.047 111.697 231.09 111.648 231.09C111.529 231.131 111.425 231.206 111.347 231.304C111.21 231.36 111.08 231.432 110.961 231.519C108.937 228.171 109.582 225.337 111.347 221.391C111.554 220.896 111.796 220.417 112.073 219.958Z" fill="#5747FF"></path>
			<path d="M110.954 231.497C111.074 231.41 111.203 231.338 111.34 231.283C111.418 231.184 111.523 231.11 111.642 231.069C111.685 231.069 111.772 231.026 111.856 231.069C112.707 231.735 113.596 232.351 114.52 232.913H114.563C116.328 233.257 118.049 233.687 119.857 233.944L120.503 234.072C120.633 234.072 120.718 234.115 120.848 234.115C120.896 234.128 120.938 234.156 120.968 234.195C120.998 234.234 121.015 234.282 121.014 234.331C121.316 239.868 121.058 244.804 124.415 249.569C125.534 251.157 130.14 254.334 129.15 256.996C127.901 260.429 120.327 258.927 118.044 258.025C115.893 257.21 114.86 256.479 113.483 254.592C111.718 252.188 110.513 249.483 108.655 247.12C107.751 245.958 106.374 244.846 105.815 243.43C104.325 239.739 107.683 233.738 110.954 231.497Z" fill="#1C1836"></path>
			<path d="M136.52 247.466C134.712 245.835 132.646 245.019 130.623 243.647C129.676 243.003 128.772 242.231 128.386 241.115C127.868 239.697 128.343 238.459 129.073 237.209C129.719 235.963 130.751 234.934 131.354 233.646C131.585 233.223 131.773 232.778 131.915 232.317C132 232.015 131.915 232.102 132.301 231.673C132.345 231.63 132.388 231.544 132.468 231.457C132.495 231.429 132.53 231.41 132.569 231.403C132.607 231.395 132.647 231.4 132.683 231.416C133.801 231.801 134.662 232.789 135.696 233.39C137.194 234.335 138.88 234.677 140.474 235.407C141.291 235.494 142.238 235.537 142.882 235.965C143.003 236.042 143.106 236.145 143.184 236.266C143.318 236.382 143.422 236.53 143.485 236.696C144.218 237.939 144.174 240 144.817 241.158C146.796 244.765 153.597 248.972 152.392 253.65C151.617 256.656 148.216 257.635 145.504 256.827C141.675 255.754 138.747 251.16 136.596 247.555L136.52 247.466Z" fill="#1C1836"></path>
			<path d="M100.365 117.874C99.5473 119.934 99.4192 121.136 100.198 123.326C100.814 125.108 101.936 126.673 103.426 127.832C104.46 128.606 105.837 128.994 106.999 129.549C107.3 129.678 110.055 131.309 111.69 132.426C112.249 137.407 112.293 142.17 110.615 146.977C109.874 149.167 108.585 151.141 108.026 153.381C107.252 156.386 107.338 158.79 110.436 160.121C110.913 160.334 111.418 160.478 111.935 160.55C112.065 160.593 112.236 160.636 112.409 160.679C114.906 161.108 117.961 160.893 119.984 161.237C124.545 161.923 129.108 162.868 133.67 163.598C135.866 163.985 138.105 164.543 140.299 163.812C141.892 163.298 142.962 162.182 144.173 161.194C147.099 161.237 148.09 161.28 148.133 159.22C148.138 158.904 148.124 158.589 148.09 158.275C147.789 154.541 149.255 151.407 149.855 147.8C150.241 145.476 150.284 143.08 150.758 140.761C151.704 141.578 152.824 142.255 153.857 142.864C155.578 143.852 157 144.453 158.764 144.153C158.721 143.987 158.634 143.852 158.598 143.68C158.32 142.955 158.231 142.173 158.34 141.405C158.47 140.332 159.415 137.371 160.707 137.156C161.095 137.07 161.481 137.284 161.872 137.585L161.916 137.628C162.07 137.76 162.214 137.903 162.347 138.056H162.388C162.222 135.732 161.658 133.721 159.677 132.091C158.3 130.929 156.75 130.03 155.503 128.656C154.426 127.412 153.565 126.037 152.705 124.621C152.963 122.433 152.919 120.157 152.963 118.183C153.049 114.449 152.963 110.711 152.403 107.022V106.936C152.919 105.476 153.652 104.06 153.823 102.471C154.04 100.411 153.264 97.9653 152.36 96.119C151.113 93.5871 148.961 91.6977 146.42 90.4525C146.379 90.6185 146.335 90.753 146.292 90.8825C146.234 91.1827 146.101 91.4633 145.904 91.6977C144.572 93.2434 141.428 92.1261 139.879 91.7409C137.549 91.1398 132.175 89.9378 130.97 87.5337V87.4905C130.934 87.3872 130.891 87.2868 130.84 87.19C128.882 86.7694 126.848 86.8731 124.943 87.4905C124.693 87.5365 124.448 87.6089 124.212 87.7064C124.172 87.7044 124.132 87.7109 124.095 87.7255C124.058 87.7401 124.024 87.7625 123.996 87.791C123.829 87.8342 123.651 87.9206 123.48 87.9571C123.393 88.0002 123.265 88.0417 123.179 88.0849C123.092 88.1281 123.05 88.1713 122.964 88.2144C122.473 88.4382 121.998 88.6962 121.544 88.9865C116.291 92.0347 112.246 98.216 109.621 103.409C107.641 107.394 105.317 110.665 102.734 114.269C102.518 114.57 102.346 114.828 102.218 115.043C101.399 116.071 100.884 116.544 100.365 117.874ZM136.39 121.824C136.132 123.283 133.726 123.625 132.087 123.711C132.776 124.055 133.507 124.57 133.292 125.385C133.077 126.159 132.216 126.202 131.484 126.159C131.872 126.76 132.087 127.404 131.614 128.048C131.183 128.606 130.235 128.82 129.546 128.691C129.418 129.722 128.988 130.45 128.256 130.751C128.299 130.751 128.343 130.794 128.386 130.794C128.686 130.88 129.203 130.96 129.418 131.267C129.934 132.039 129.073 132.77 128.343 132.941C126.836 133.328 125.2 132.21 123.866 131.696C122.876 131.267 121.714 131.352 120.981 130.751H120.939C119.519 130.45 119.002 129.549 119.346 127.789C119.604 126.461 120.164 124.742 121.068 123.668C121.458 123.189 121.941 122.793 122.489 122.506C123.693 121.82 124.211 121.39 124.898 119.974C125.802 118.085 127.697 118.041 129.633 118.812C130.45 119.112 130.838 119.713 130.798 120.358C132.733 119.977 136.735 119.634 136.39 121.824Z" fill="#5747FF"></path>
			<path d="M96.3626 71.8606C96.7552 72.7067 97.2309 73.512 97.7826 74.2647C98.1705 74.3942 98.7299 74.6084 99.4191 74.8657C103.593 76.3683 108.199 75.0317 112.374 74.351C112.541 74.3078 112.676 74.3078 112.847 74.2647C113.623 74.1368 114.525 73.9642 115.429 73.8363H115.595C117.532 73.579 119.591 73.5358 121.018 74.5652C121.736 74.3814 122.472 74.2806 123.213 74.2647C121.882 66.8382 124.462 56.7935 130.144 52.3306C134.447 48.8955 145.165 46.1876 150.121 50.0544C154.253 49.7124 157.91 51.1717 160.752 54.8692C164.626 59.8501 167.165 66.4165 163.083 71.9536C163.04 72.0007 162.982 72.0309 162.918 72.0389C162.855 72.0468 162.791 72.0318 162.738 71.9967C162.265 71.3957 161.663 70.4942 160.887 69.9795C160.892 69.8349 160.878 69.6904 160.845 69.5495C160.836 69.4583 160.806 69.3704 160.759 69.2921L160.715 69.2489C160.414 68.2611 159.597 67.6617 158.649 67.4044C158.683 67.1335 158.698 66.8605 158.693 66.5875C158.693 64.9489 158.564 63.3128 158.305 61.6946C158.261 61.5286 158.003 61.5286 157.875 61.6515C157.357 62.3803 156.67 62.8967 156.154 63.6256C155.508 64.5271 154.949 65.95 153.785 66.282C154.303 64.738 154.517 62.7622 154.173 61.517C154.13 61.3892 153.958 61.3028 153.872 61.3892C152.968 62.0749 152.54 62.8485 151.892 63.7501C150.56 65.6378 148.578 66.3684 146.77 67.6567C144.231 69.4598 141.218 73.6653 137.946 73.7517C136.999 70.8329 133.901 68.1283 131.103 69.4598C129.167 70.446 129.854 72.8933 130.457 74.4805C130.922 75.6383 131.529 76.7342 132.265 77.743C132.739 78.344 134.159 79.5892 134.029 80.4476C134.028 80.4919 134.04 80.5356 134.063 80.5736C134.086 80.6115 134.119 80.6421 134.159 80.6618C134.179 81.7698 133.913 82.8643 133.385 83.8396C132.696 85.0018 131.491 85.1263 130.931 86.071C130.823 86.2372 130.766 86.4308 130.765 86.6288C130.737 86.7591 130.752 86.8948 130.808 87.0157C129.689 86.501 128.742 85.9431 128.183 84.5684C127.192 82.2938 126.418 79.9329 125.169 77.7861C124.137 78.3872 122.889 78.5167 121.64 78.344C119.359 81.1349 116.003 83.7964 112.431 84.0106C110.493 84.0969 110.623 83.4959 109.16 82.8085C106.576 81.6065 102.487 79.8897 100.17 78.0435C99.1377 77.2283 98.7931 76.9278 98.0174 75.8984C96.7705 74.2232 96.296 73.7516 96.9852 73.9658C96.5337 73.3904 96.1949 72.7354 95.9864 72.0349C95.9314 71.7726 96.276 71.6431 96.3626 71.8606Z" fill="#1C1836"></path>
			<path d="M162.387 138.048C164.496 138.735 166.692 140.668 168.283 141.867C170.178 143.283 172.933 145.129 173.536 147.575C174.008 149.549 172.717 154.229 171.038 152.469C170.178 153.027 169.445 153.499 168.708 153.112C167.709 153.885 166.599 153.842 165.996 152.727C165.222 152.383 165.049 151.481 165.007 150.537C163.542 149.849 162.165 148.906 161.133 147.618C160.271 146.587 159.325 145.43 158.766 144.141C158.723 143.975 158.636 143.841 158.599 143.668C158.322 142.944 158.233 142.161 158.341 141.393C158.471 140.321 159.417 137.359 160.709 137.145C161.097 137.058 161.483 137.273 161.874 137.573L161.917 137.616C162.071 137.748 162.215 137.892 162.348 138.045L162.387 138.048Z" fill="#FFBA91"></path>
			<path d="M130.968 87.5253V87.4821C130.932 87.3788 130.889 87.2783 130.838 87.1816C130.805 87.1329 130.789 87.0742 130.795 87.0156C130.739 86.8947 130.723 86.7589 130.751 86.6287C130.752 86.4307 130.81 86.2371 130.918 86.0709C131.477 85.1262 132.682 84.9983 133.372 83.8394C133.899 82.8642 134.166 81.7697 134.146 80.6616C134.106 80.642 134.072 80.6114 134.049 80.5735C134.026 80.5355 134.015 80.4918 134.016 80.4475C134.146 79.5891 132.726 78.3439 132.251 77.7429C131.516 76.7341 130.908 75.6382 130.443 74.4804C129.841 72.8932 129.153 70.4459 131.089 69.4597C133.888 68.1315 136.986 70.8328 137.933 73.7515C141.204 73.6652 144.218 69.4597 146.756 67.6566C148.564 66.3682 150.544 65.6377 151.879 63.75C152.525 62.8484 152.954 62.0747 153.858 61.389C153.945 61.3027 154.116 61.389 154.159 61.5169C154.504 62.7621 154.289 64.7378 153.772 66.2819C154.937 65.9382 155.495 64.522 156.14 63.6254C156.657 62.8966 157.344 62.3802 157.862 61.6514C157.99 61.5219 158.248 61.5219 158.291 61.6945C158.55 63.3127 158.68 64.9488 158.679 66.5874C158.684 66.8604 158.67 67.1333 158.636 67.4043C159.583 67.6616 160.401 68.261 160.702 69.2488L160.745 69.292C160.793 69.3703 160.822 69.4582 160.832 69.5493C160.864 69.6903 160.878 69.8348 160.873 69.9794C160.873 70.4941 160.659 70.9656 160.487 71.5251C160.34 72.1281 160.227 72.739 160.149 73.3547C159.866 75.1495 160.008 77.0671 159.983 78.3356C159.944 80.0952 159.606 81.8354 158.984 83.4825C158.339 84.9076 157.436 86.2021 156.32 87.3011C155.6 88.0223 154.774 88.6302 153.871 89.1042C153.372 89.3632 152.759 89.6953 151.885 89.7999C149.733 90.0572 148.098 89.3283 146.678 88.2126C146.679 88.9639 146.593 89.7128 146.42 90.4441C146.377 90.6101 146.333 90.7446 146.29 90.8741C146.232 91.1743 146.099 91.4549 145.902 91.6893C144.57 93.235 141.426 92.1176 139.877 91.7324C137.552 91.1314 132.181 89.9294 130.968 87.5253Z" fill="#FFBA91"></path>
			<path d="M121.068 123.661C121.458 123.182 121.941 122.787 122.489 122.499C123.693 121.814 124.211 121.384 124.898 119.967C125.802 118.078 127.697 118.035 129.633 118.805C130.45 119.106 130.838 119.707 130.798 120.351C132.736 119.964 136.738 119.62 136.393 121.81C136.135 123.27 133.73 123.612 132.09 123.698C132.779 124.042 133.51 124.556 133.295 125.372C133.08 126.145 132.22 126.188 131.487 126.145C131.875 126.746 132.09 127.39 131.617 128.035C131.186 128.592 130.239 128.807 129.55 128.677C129.421 129.708 128.992 130.437 128.259 130.738C128.303 130.738 128.346 130.781 128.389 130.781C128.689 130.867 129.207 130.947 129.421 131.254C129.937 132.026 129.077 132.756 128.346 132.927C126.839 133.314 125.203 132.197 123.869 131.682C122.879 131.254 121.717 131.339 120.984 130.738H120.943C119.523 130.437 119.005 129.536 119.35 127.776C119.604 126.459 120.164 124.742 121.068 123.661Z" fill="#FFBA91"></path>
			<path opacity="0.42" d="M140.444 286.038C161.046 286.038 177.747 281.206 177.747 275.246C177.747 269.286 161.046 264.454 140.444 264.454C119.841 264.454 103.14 269.286 103.14 275.246C103.14 281.206 119.841 286.038 140.444 286.038Z" fill="#5747FF"></path>
			<path d="M214.022 212.195C217.849 212.195 220.951 209.101 220.951 205.285C220.951 201.468 217.849 198.375 214.022 198.375C210.196 198.375 207.094 201.468 207.094 205.285C207.094 209.101 210.196 212.195 214.022 212.195Z" fill="#DAD6FF"></path>
			<path d="M211.407 207.21L210.408 207.325L210.298 206.367L211.121 206.272C211.096 206.153 211.072 206.032 211.057 205.905C211.042 205.779 211.039 205.661 211.036 205.543L210.213 205.638L210.102 204.682L211.101 204.567C211.359 202.982 212.422 201.899 214.134 201.702C214.805 201.614 215.488 201.716 216.103 201.997L215.571 203.081C215.171 202.871 214.715 202.789 214.267 202.846C213.25 202.958 212.656 203.546 212.436 204.413L214.915 204.126L215.026 205.084L212.339 205.394C212.339 205.512 212.351 205.633 212.366 205.756C212.381 205.879 212.399 206.003 212.424 206.123L215.111 205.812L215.221 206.77L212.749 207.056C213.165 207.85 213.882 208.27 214.883 208.15C215.336 208.108 215.764 207.925 216.108 207.629L216.864 208.552C216.331 208.97 215.691 209.23 215.016 209.299C213.315 209.498 212.023 208.658 211.407 207.21Z" fill="#5747FF"></path>
			<path d="M54.206 195.924C58.0327 195.924 61.1347 192.83 61.1347 189.014C61.1347 185.197 58.0327 182.104 54.206 182.104C50.3794 182.104 47.2773 185.197 47.2773 189.014C47.2773 192.83 50.3794 195.924 54.206 195.924Z" fill="#A198FF"></path>
			<path d="M51.5908 190.94L50.592 191.054L50.4821 190.096L51.3045 190.002C51.2795 189.882 51.2562 189.761 51.2412 189.635C51.2262 189.508 51.2229 189.391 51.2196 189.273L50.3972 189.367L50.2856 188.411L51.2762 188.296C51.5342 186.711 52.598 185.628 54.3093 185.431C54.9806 185.343 55.6632 185.445 56.2788 185.726L55.746 186.81C55.3462 186.6 54.891 186.518 54.4425 186.575C53.4254 186.688 52.8311 187.275 52.6113 188.142L55.0901 187.855L55.2017 188.813L52.5148 189.123C52.5148 189.241 52.5264 189.362 52.5414 189.485C52.5564 189.608 52.5747 189.733 52.5997 189.852L55.2866 189.542L55.3964 190.5L52.9243 190.785C53.3405 191.579 54.058 191.999 55.0585 191.879C55.5113 191.837 55.9396 191.655 56.2838 191.358L57.0395 192.281C56.5069 192.7 55.8661 192.959 55.1917 193.028C53.4986 193.227 52.2068 192.387 51.5908 190.94Z" fill="#5747FF"></path>
			<path d="M136.033 113.92L130.539 120.063L131.161 120.616L136.654 114.473L136.033 113.92Z" fill="#ADFFE2"></path>
			<path d="M138.591 117.352C142.314 117.352 145.333 114.342 145.333 110.628C145.333 106.915 142.314 103.904 138.591 103.904C134.867 103.904 131.848 106.915 131.848 110.628C131.848 114.342 134.867 117.352 138.591 117.352Z" fill="#DAD6FF"></path>
		</g>
		<defs>
			<clipPath id="clip0_1975_17489">
			<rect width="290" height="324" fill="white"></rect>
			</clipPath>
		</defs>
	</svg>