<svg width="382" height="118" viewBox="0 0 382 118" fill="none" xmlns="http://www.w3.org/2000/svg">
<mask id="mask0_3584_37775" style="mask-type:alpha" maskUnits="userSpaceOnUse" x="0" y="0" width="382" height="118">
<path d="M0 20C0 8.95428 8.9543 0 20 0H362C373.046 0 382 8.95431 382 20V117.311H0V20Z" fill="#C7C2FF"/>
</mask>
<g mask="url(#mask0_3584_37775)">
<path d="M382 -32H0V141H382V-32Z" fill="#FFEAE3"/>
<path opacity="0.2" d="M288.053 77.6219H270.529V110.724H288.053V77.6219Z" fill="#D6FFEB"/>
<path d="M302.548 35.3992H282.498V110.442H302.548V35.3992Z" fill="#FFBFAB"/>
<path opacity="0.83" d="M136.29 37.404H103.204V109.921H136.29V37.404Z" fill="#FFBFAB"/>
<path d="M113.581 43.2893H107.552C106.623 43.2893 105.87 44.0425 105.87 44.9716V46.7946C105.87 47.7238 106.623 48.477 107.552 48.477H113.581C114.509 48.477 115.262 47.7238 115.262 46.7946V44.9716C115.262 44.0425 114.509 43.2893 113.581 43.2893Z" fill="white"/>
<path d="M131.942 43.2893H125.914C124.985 43.2893 124.232 44.0425 124.232 44.9716V46.7946C124.232 47.7238 124.985 48.477 125.914 48.477H131.942C132.871 48.477 133.624 47.7238 133.624 46.7946V44.9716C133.624 44.0425 132.871 43.2893 131.942 43.2893Z" fill="white"/>
<path d="M120.875 43.2893H117.787C116.859 43.2893 116.106 44.0425 116.106 44.9716V46.6539C116.106 47.5831 116.859 48.3363 117.787 48.3363H120.875C121.804 48.3363 122.556 47.5831 122.556 46.6539V44.9716C122.556 44.0425 121.804 43.2893 120.875 43.2893Z" fill="white"/>
<path d="M113.581 50.0186H107.552C106.623 50.0186 105.87 50.7718 105.87 51.701V53.524C105.87 54.4531 106.623 55.2063 107.552 55.2063H113.581C114.509 55.2063 115.262 54.4531 115.262 53.524V51.701C115.262 50.7718 114.509 50.0186 113.581 50.0186Z" fill="white"/>
<path d="M131.942 50.0186H125.914C124.985 50.0186 124.232 50.7718 124.232 51.701V53.524C124.232 54.4531 124.985 55.2063 125.914 55.2063H131.942C132.871 55.2063 133.624 54.4531 133.624 53.524V51.701C133.624 50.7718 132.871 50.0186 131.942 50.0186Z" fill="white"/>
<path d="M120.875 50.0186H117.787C116.859 50.0186 116.106 50.7718 116.106 51.701V53.3833C116.106 54.3125 116.859 55.0657 117.787 55.0657H120.875C121.804 55.0657 122.556 54.3125 122.556 53.3833V51.701C122.556 50.7718 121.804 50.0186 120.875 50.0186Z" fill="white"/>
<path d="M113.581 56.7539H107.552C106.623 56.7539 105.87 57.5071 105.87 58.4362V60.2592C105.87 61.1884 106.623 61.9416 107.552 61.9416H113.581C114.509 61.9416 115.262 61.1884 115.262 60.2592V58.4362C115.262 57.5071 114.509 56.7539 113.581 56.7539Z" fill="white"/>
<path d="M131.942 56.7539H125.914C124.985 56.7539 124.232 57.5071 124.232 58.4362V60.2592C124.232 61.1884 124.985 61.9416 125.914 61.9416H131.942C132.871 61.9416 133.624 61.1884 133.624 60.2592V58.4362C133.624 57.5071 132.871 56.7539 131.942 56.7539Z" fill="white"/>
<path d="M120.875 56.7539H117.787C116.859 56.7539 116.106 57.5071 116.106 58.4362V60.1186C116.106 61.0477 116.859 61.8009 117.787 61.8009H120.875C121.804 61.8009 122.556 61.0477 122.556 60.1186V58.4362C122.556 57.5071 121.804 56.7539 120.875 56.7539Z" fill="white"/>
<path d="M113.581 63.4891H107.552C106.623 63.4891 105.87 64.2423 105.87 65.1715V66.9945C105.87 67.9236 106.623 68.6768 107.552 68.6768H113.581C114.509 68.6768 115.262 67.9236 115.262 66.9945V65.1715C115.262 64.2423 114.509 63.4891 113.581 63.4891Z" fill="white"/>
<path d="M131.942 63.4891H125.914C124.985 63.4891 124.232 64.2423 124.232 65.1715V66.9945C124.232 67.9236 124.985 68.6768 125.914 68.6768H131.942C132.871 68.6768 133.624 67.9236 133.624 66.9945V65.1715C133.624 64.2423 132.871 63.4891 131.942 63.4891Z" fill="white"/>
<path d="M120.875 63.4891H117.787C116.859 63.4891 116.106 64.2423 116.106 65.1715V66.8538C116.106 67.7829 116.859 68.5361 117.787 68.5361H120.875C121.804 68.5361 122.556 67.7829 122.556 66.8538V65.1715C122.556 64.2423 121.804 63.4891 120.875 63.4891Z" fill="white"/>
<path d="M113.581 70.2185H107.552C106.623 70.2185 105.87 70.9717 105.87 71.9008V73.7238C105.87 74.653 106.623 75.4062 107.552 75.4062H113.581C114.509 75.4062 115.262 74.653 115.262 73.7238V71.9008C115.262 70.9717 114.509 70.2185 113.581 70.2185Z" fill="white"/>
<path d="M131.942 70.2185H125.914C124.985 70.2185 124.232 70.9717 124.232 71.9008V73.7238C124.232 74.653 124.985 75.4062 125.914 75.4062H131.942C132.871 75.4062 133.624 74.653 133.624 73.7238V71.9008C133.624 70.9717 132.871 70.2185 131.942 70.2185Z" fill="white"/>
<path d="M120.875 70.2185H117.787C116.859 70.2185 116.106 70.9717 116.106 71.9008V73.5832C116.106 74.5123 116.859 75.2655 117.787 75.2655H120.875C121.804 75.2655 122.556 74.5123 122.556 73.5832V71.9008C122.556 70.9717 121.804 70.2185 120.875 70.2185Z" fill="white"/>
<path d="M113.581 76.9537H107.552C106.623 76.9537 105.87 77.7069 105.87 78.6361V80.4591C105.87 81.3882 106.623 82.1414 107.552 82.1414H113.581C114.509 82.1414 115.262 81.3882 115.262 80.4591V78.6361C115.262 77.7069 114.509 76.9537 113.581 76.9537Z" fill="white"/>
<path d="M131.942 76.9537H125.914C124.985 76.9537 124.232 77.7069 124.232 78.6361V80.4591C124.232 81.3882 124.985 82.1414 125.914 82.1414H131.942C132.871 82.1414 133.624 81.3882 133.624 80.4591V78.6361C133.624 77.7069 132.871 76.9537 131.942 76.9537Z" fill="white"/>
<path d="M120.875 76.9537H117.787C116.859 76.9537 116.106 77.7069 116.106 78.6361V80.3184C116.106 81.2475 116.859 82.0007 117.787 82.0007H120.875C121.804 82.0007 122.556 81.2475 122.556 80.3184V78.6361C122.556 77.7069 121.804 76.9537 120.875 76.9537Z" fill="white"/>
<path d="M281.098 13.7984H259.93V110.161H281.098V13.7984Z" fill="#FFBFAB"/>
<path d="M267.705 19.2617H265.027C264.613 19.2617 264.277 19.5976 264.277 20.012V20.815C264.277 21.2294 264.613 21.5654 265.027 21.5654H267.705C268.119 21.5654 268.455 21.2294 268.455 20.815V20.012C268.455 19.5976 268.119 19.2617 267.705 19.2617Z" fill="#FCE6C5"/>
<path d="M275.866 19.2617H273.189C272.774 19.2617 272.439 19.5976 272.439 20.012V20.815C272.439 21.2294 272.774 21.5654 273.189 21.5654H275.866C276.28 21.5654 276.616 21.2294 276.616 20.815V20.012C276.616 19.5976 276.28 19.2617 275.866 19.2617Z" fill="#FCE6C5"/>
<path d="M270.939 19.2617H269.574C269.159 19.2617 268.824 19.5976 268.824 20.012V20.7564C268.824 21.1708 269.159 21.5067 269.574 21.5067H270.939C271.353 21.5067 271.689 21.1708 271.689 20.7564V20.012C271.689 19.5976 271.353 19.2617 270.939 19.2617Z" fill="#FCE6C5"/>
<path d="M267.705 22.2512H265.027C264.613 22.2512 264.277 22.5871 264.277 23.0015V23.8046C264.277 24.219 264.613 24.5549 265.027 24.5549H267.705C268.119 24.5549 268.455 24.219 268.455 23.8046V23.0015C268.455 22.5871 268.119 22.2512 267.705 22.2512Z" fill="#FCE6C5"/>
<path d="M275.866 22.2512H273.189C272.774 22.2512 272.439 22.5871 272.439 23.0015V23.8046C272.439 24.219 272.774 24.5549 273.189 24.5549H275.866C276.28 24.5549 276.616 24.219 276.616 23.8046V23.0015C276.616 22.5871 276.28 22.2512 275.866 22.2512Z" fill="#FCE6C5"/>
<path d="M270.939 22.2512H269.574C269.159 22.2512 268.824 22.5871 268.824 23.0015V23.746C268.824 24.1603 269.159 24.4963 269.574 24.4963H270.939C271.353 24.4963 271.689 24.1603 271.689 23.746V23.0015C271.689 22.5871 271.353 22.2512 270.939 22.2512Z" fill="#FCE6C5"/>
<path d="M267.705 25.2466H265.027C264.613 25.2466 264.277 25.5825 264.277 25.9969V26.8C264.277 27.2143 264.613 27.5503 265.027 27.5503H267.705C268.119 27.5503 268.455 27.2143 268.455 26.8V25.9969C268.455 25.5825 268.119 25.2466 267.705 25.2466Z" fill="#FCE6C5"/>
<path d="M275.866 25.2466H273.189C272.774 25.2466 272.439 25.5825 272.439 25.9969V26.8C272.439 27.2143 272.774 27.5503 273.189 27.5503H275.866C276.28 27.5503 276.616 27.2143 276.616 26.8V25.9969C276.616 25.5825 276.28 25.2466 275.866 25.2466Z" fill="#FCE6C5"/>
<path d="M270.939 25.2466H269.574C269.159 25.2466 268.824 25.5825 268.824 25.9969V26.7413C268.824 27.1557 269.159 27.4917 269.574 27.4917H270.939C271.353 27.4917 271.689 27.1557 271.689 26.7413V25.9969C271.689 25.5825 271.353 25.2466 270.939 25.2466Z" fill="#FCE6C5"/>
<path d="M267.705 28.2361H265.027C264.613 28.2361 264.277 28.572 264.277 28.9864V29.7895C264.277 30.2039 264.613 30.5398 265.027 30.5398H267.705C268.119 30.5398 268.455 30.2039 268.455 29.7895V28.9864C268.455 28.572 268.119 28.2361 267.705 28.2361Z" fill="#FCE6C5"/>
<path d="M275.866 28.2361H273.189C272.774 28.2361 272.439 28.572 272.439 28.9864V29.7895C272.439 30.2039 272.774 30.5398 273.189 30.5398H275.866C276.28 30.5398 276.616 30.2039 276.616 29.7895V28.9864C276.616 28.572 276.28 28.2361 275.866 28.2361Z" fill="#FCE6C5"/>
<path d="M270.939 28.2361H269.574C269.159 28.2361 268.824 28.572 268.824 28.9864V29.7309C268.824 30.1453 269.159 30.4812 269.574 30.4812H270.939C271.353 30.4812 271.689 30.1453 271.689 29.7309V28.9864C271.689 28.572 271.353 28.2361 270.939 28.2361Z" fill="#FCE6C5"/>
<path d="M267.705 31.2315H265.027C264.613 31.2315 264.277 31.5674 264.277 31.9818V32.7849C264.277 33.1993 264.613 33.5352 265.027 33.5352H267.705C268.119 33.5352 268.455 33.1993 268.455 32.7849V31.9818C268.455 31.5674 268.119 31.2315 267.705 31.2315Z" fill="#FCE6C5"/>
<path d="M275.866 31.2315H273.189C272.774 31.2315 272.439 31.5674 272.439 31.9818V32.7849C272.439 33.1993 272.774 33.5352 273.189 33.5352H275.866C276.28 33.5352 276.616 33.1993 276.616 32.7849V31.9818C276.616 31.5674 276.28 31.2315 275.866 31.2315Z" fill="#FCE6C5"/>
<path d="M270.939 31.2315H269.574C269.159 31.2315 268.824 31.5674 268.824 31.9818V32.7263C268.824 33.1407 269.159 33.4766 269.574 33.4766H270.939C271.353 33.4766 271.689 33.1407 271.689 32.7263V31.9818C271.689 31.5674 271.353 31.2315 270.939 31.2315Z" fill="#FCE6C5"/>
<path d="M267.705 34.221H265.027C264.613 34.221 264.277 34.557 264.277 34.9714V35.7744C264.277 36.1888 264.613 36.5247 265.027 36.5247H267.705C268.119 36.5247 268.455 36.1888 268.455 35.7744V34.9714C268.455 34.557 268.119 34.221 267.705 34.221Z" fill="#FCE6C5"/>
<path d="M275.866 34.221H273.189C272.774 34.221 272.439 34.557 272.439 34.9714V35.7744C272.439 36.1888 272.774 36.5247 273.189 36.5247H275.866C276.28 36.5247 276.616 36.1888 276.616 35.7744V34.9714C276.616 34.557 276.28 34.221 275.866 34.221Z" fill="#FCE6C5"/>
<path d="M270.939 34.221H269.574C269.159 34.221 268.824 34.557 268.824 34.9714V35.7158C268.824 36.1302 269.159 36.4661 269.574 36.4661H270.939C271.353 36.4661 271.689 36.1302 271.689 35.7158V34.9714C271.689 34.557 271.353 34.221 270.939 34.221Z" fill="#FCE6C5"/>
<path d="M267.705 37.7733H265.027C264.613 37.7733 264.277 38.1092 264.277 38.5236V39.3267C264.277 39.7411 264.613 40.077 265.027 40.077H267.705C268.119 40.077 268.455 39.7411 268.455 39.3267V38.5236C268.455 38.1092 268.119 37.7733 267.705 37.7733Z" fill="#FCE6C5"/>
<path d="M275.866 37.7733H273.189C272.774 37.7733 272.439 38.1092 272.439 38.5236V39.3267C272.439 39.7411 272.774 40.077 273.189 40.077H275.866C276.28 40.077 276.616 39.7411 276.616 39.3267V38.5236C276.616 38.1092 276.28 37.7733 275.866 37.7733Z" fill="#FCE6C5"/>
<path d="M270.939 37.7733H269.574C269.159 37.7733 268.824 38.1092 268.824 38.5236V39.2681C268.824 39.6824 269.159 40.0184 269.574 40.0184H270.939C271.353 40.0184 271.689 39.6824 271.689 39.2681V38.5236C271.689 38.1092 271.353 37.7733 270.939 37.7733Z" fill="#FCE6C5"/>
<path d="M267.705 40.7687H265.027C264.613 40.7687 264.277 41.1046 264.277 41.519V42.3221C264.277 42.7364 264.613 43.0724 265.027 43.0724H267.705C268.119 43.0724 268.455 42.7364 268.455 42.3221V41.519C268.455 41.1046 268.119 40.7687 267.705 40.7687Z" fill="#FCE6C5"/>
<path d="M275.866 40.7687H273.189C272.774 40.7687 272.439 41.1046 272.439 41.519V42.3221C272.439 42.7364 272.774 43.0724 273.189 43.0724H275.866C276.28 43.0724 276.616 42.7364 276.616 42.3221V41.519C276.616 41.1046 276.28 40.7687 275.866 40.7687Z" fill="#FCE6C5"/>
<path d="M270.939 40.7687H269.574C269.159 40.7687 268.824 41.1046 268.824 41.519V42.2634C268.824 42.6778 269.159 43.0138 269.574 43.0138H270.939C271.353 43.0138 271.689 42.6778 271.689 42.2634V41.519C271.689 41.1046 271.353 40.7687 270.939 40.7687Z" fill="#FCE6C5"/>
<path d="M267.705 43.7582H265.027C264.613 43.7582 264.277 44.0941 264.277 44.5085V45.3116C264.277 45.726 264.613 46.0619 265.027 46.0619H267.705C268.119 46.0619 268.455 45.726 268.455 45.3116V44.5085C268.455 44.0941 268.119 43.7582 267.705 43.7582Z" fill="#FCE6C5"/>
<path d="M275.866 43.7582H273.189C272.774 43.7582 272.439 44.0941 272.439 44.5085V45.3116C272.439 45.726 272.774 46.0619 273.189 46.0619H275.866C276.28 46.0619 276.616 45.726 276.616 45.3116V44.5085C276.616 44.0941 276.28 43.7582 275.866 43.7582Z" fill="#FCE6C5"/>
<path d="M270.939 43.7582H269.574C269.159 43.7582 268.824 44.0941 268.824 44.5085V45.253C268.824 45.6674 269.159 46.0033 269.574 46.0033H270.939C271.353 46.0033 271.689 45.6674 271.689 45.253V44.5085C271.689 44.0941 271.353 43.7582 270.939 43.7582Z" fill="#FCE6C5"/>
<path d="M267.705 46.7536H265.027C264.613 46.7536 264.277 47.0895 264.277 47.5039V48.307C264.277 48.7214 264.613 49.0573 265.027 49.0573H267.705C268.119 49.0573 268.455 48.7214 268.455 48.307V47.5039C268.455 47.0895 268.119 46.7536 267.705 46.7536Z" fill="#FCE6C5"/>
<path d="M275.866 46.7536H273.189C272.774 46.7536 272.439 47.0895 272.439 47.5039V48.307C272.439 48.7214 272.774 49.0573 273.189 49.0573H275.866C276.28 49.0573 276.616 48.7214 276.616 48.307V47.5039C276.616 47.0895 276.28 46.7536 275.866 46.7536Z" fill="#FCE6C5"/>
<path d="M270.939 46.7536H269.574C269.159 46.7536 268.824 47.0895 268.824 47.5039V48.2484C268.824 48.6627 269.159 48.9987 269.574 48.9987H270.939C271.353 48.9987 271.689 48.6627 271.689 48.2484V47.5039C271.689 47.0895 271.353 46.7536 270.939 46.7536Z" fill="#FCE6C5"/>
<path d="M267.705 49.7431H265.027C264.613 49.7431 264.277 50.0791 264.277 50.4934V51.2965C264.277 51.7109 264.613 52.0468 265.027 52.0468H267.705C268.119 52.0468 268.455 51.7109 268.455 51.2965V50.4934C268.455 50.0791 268.119 49.7431 267.705 49.7431Z" fill="#FCE6C5"/>
<path d="M275.866 49.7431H273.189C272.774 49.7431 272.439 50.0791 272.439 50.4934V51.2965C272.439 51.7109 272.774 52.0468 273.189 52.0468H275.866C276.28 52.0468 276.616 51.7109 276.616 51.2965V50.4934C276.616 50.0791 276.28 49.7431 275.866 49.7431Z" fill="#FCE6C5"/>
<path d="M270.939 49.7431H269.574C269.159 49.7431 268.824 50.0791 268.824 50.4934V51.2379C268.824 51.6523 269.159 51.9882 269.574 51.9882H270.939C271.353 51.9882 271.689 51.6523 271.689 51.2379V50.4934C271.689 50.0791 271.353 49.7431 270.939 49.7431Z" fill="#FCE6C5"/>
<path d="M267.705 52.7385H265.027C264.613 52.7385 264.277 53.0745 264.277 53.4888V54.2919C264.277 54.7063 264.613 55.0422 265.027 55.0422H267.705C268.119 55.0422 268.455 54.7063 268.455 54.2919V53.4888C268.455 53.0745 268.119 52.7385 267.705 52.7385Z" fill="#FCE6C5"/>
<path d="M275.866 52.7385H273.189C272.774 52.7385 272.439 53.0745 272.439 53.4888V54.2919C272.439 54.7063 272.774 55.0422 273.189 55.0422H275.866C276.28 55.0422 276.616 54.7063 276.616 54.2919V53.4888C276.616 53.0745 276.28 52.7385 275.866 52.7385Z" fill="#FCE6C5"/>
<path d="M270.939 52.7385H269.574C269.159 52.7385 268.824 53.0745 268.824 53.4888V54.2333C268.824 54.6477 269.159 54.9836 269.574 54.9836H270.939C271.353 54.9836 271.689 54.6477 271.689 54.2333V53.4888C271.689 53.0745 271.353 52.7385 270.939 52.7385Z" fill="#FCE6C5"/>
<path d="M267.705 56.2908H265.027C264.613 56.2908 264.277 56.6267 264.277 57.0411V57.8442C264.277 58.2586 264.613 58.5945 265.027 58.5945H267.705C268.119 58.5945 268.455 58.2586 268.455 57.8442V57.0411C268.455 56.6267 268.119 56.2908 267.705 56.2908Z" fill="#FCE6C5"/>
<path d="M275.866 56.2908H273.189C272.774 56.2908 272.439 56.6267 272.439 57.0411V57.8442C272.439 58.2586 272.774 58.5945 273.189 58.5945H275.866C276.28 58.5945 276.616 58.2586 276.616 57.8442V57.0411C276.616 56.6267 276.28 56.2908 275.866 56.2908Z" fill="#FCE6C5"/>
<path d="M270.939 56.2908H269.574C269.159 56.2908 268.824 56.6267 268.824 57.0411V57.7856C268.824 58.1999 269.159 58.5359 269.574 58.5359H270.939C271.353 58.5359 271.689 58.1999 271.689 57.7856V57.0411C271.689 56.6267 271.353 56.2908 270.939 56.2908Z" fill="#FCE6C5"/>
<path d="M267.705 59.2862H265.027C264.613 59.2862 264.277 59.6221 264.277 60.0365V60.8396C264.277 61.254 264.613 61.5899 265.027 61.5899H267.705C268.119 61.5899 268.455 61.254 268.455 60.8396V60.0365C268.455 59.6221 268.119 59.2862 267.705 59.2862Z" fill="#FCE6C5"/>
<path d="M275.866 59.2862H273.189C272.774 59.2862 272.439 59.6221 272.439 60.0365V60.8396C272.439 61.254 272.774 61.5899 273.189 61.5899H275.866C276.28 61.5899 276.616 61.254 276.616 60.8396V60.0365C276.616 59.6221 276.28 59.2862 275.866 59.2862Z" fill="#FCE6C5"/>
<path d="M270.939 59.2862H269.574C269.159 59.2862 268.824 59.6221 268.824 60.0365V60.7809C268.824 61.1953 269.159 61.5313 269.574 61.5313H270.939C271.353 61.5313 271.689 61.1953 271.689 60.7809V60.0365C271.689 59.6221 271.353 59.2862 270.939 59.2862Z" fill="#FCE6C5"/>
<path d="M267.705 62.2757H265.027C264.613 62.2757 264.277 62.6116 264.277 63.026V63.8291C264.277 64.2435 264.613 64.5794 265.027 64.5794H267.705C268.119 64.5794 268.455 64.2435 268.455 63.8291V63.026C268.455 62.6116 268.119 62.2757 267.705 62.2757Z" fill="#FCE6C5"/>
<path d="M275.866 62.2757H273.189C272.774 62.2757 272.439 62.6116 272.439 63.026V63.8291C272.439 64.2435 272.774 64.5794 273.189 64.5794H275.866C276.28 64.5794 276.616 64.2435 276.616 63.8291V63.026C276.616 62.6116 276.28 62.2757 275.866 62.2757Z" fill="#FCE6C5"/>
<path d="M270.939 62.2757H269.574C269.159 62.2757 268.824 62.6116 268.824 63.026V63.7705C268.824 64.1849 269.159 64.5208 269.574 64.5208H270.939C271.353 64.5208 271.689 64.1849 271.689 63.7705V63.026C271.689 62.6116 271.353 62.2757 270.939 62.2757Z" fill="#FCE6C5"/>
<path d="M267.705 65.2711H265.027C264.613 65.2711 264.277 65.607 264.277 66.0214V66.8245C264.277 67.2389 264.613 67.5748 265.027 67.5748H267.705C268.119 67.5748 268.455 67.2389 268.455 66.8245V66.0214C268.455 65.607 268.119 65.2711 267.705 65.2711Z" fill="#FCE6C5"/>
<path d="M275.866 65.2711H273.189C272.774 65.2711 272.439 65.607 272.439 66.0214V66.8245C272.439 67.2389 272.774 67.5748 273.189 67.5748H275.866C276.28 67.5748 276.616 67.2389 276.616 66.8245V66.0214C276.616 65.607 276.28 65.2711 275.866 65.2711Z" fill="#FCE6C5"/>
<path d="M270.939 65.2711H269.574C269.159 65.2711 268.824 65.607 268.824 66.0214V66.7659C268.824 67.1803 269.159 67.5162 269.574 67.5162H270.939C271.353 67.5162 271.689 67.1803 271.689 66.7659V66.0214C271.689 65.607 271.353 65.2711 270.939 65.2711Z" fill="#FCE6C5"/>
<path d="M267.705 68.2606H265.027C264.613 68.2606 264.277 68.5966 264.277 69.011V69.814C264.277 70.2284 264.613 70.5643 265.027 70.5643H267.705C268.119 70.5643 268.455 70.2284 268.455 69.814V69.011C268.455 68.5966 268.119 68.2606 267.705 68.2606Z" fill="#FCE6C5"/>
<path d="M275.866 68.2606H273.189C272.774 68.2606 272.439 68.5966 272.439 69.011V69.814C272.439 70.2284 272.774 70.5643 273.189 70.5643H275.866C276.28 70.5643 276.616 70.2284 276.616 69.814V69.011C276.616 68.5966 276.28 68.2606 275.866 68.2606Z" fill="#FCE6C5"/>
<path d="M270.939 68.2606H269.574C269.159 68.2606 268.824 68.5966 268.824 69.011V69.7554C268.824 70.1698 269.159 70.5057 269.574 70.5057H270.939C271.353 70.5057 271.689 70.1698 271.689 69.7554V69.011C271.689 68.5966 271.353 68.2606 270.939 68.2606Z" fill="#FCE6C5"/>
<path d="M267.705 71.256H265.027C264.613 71.256 264.277 71.592 264.277 72.0063V72.8094C264.277 73.2238 264.613 73.5597 265.027 73.5597H267.705C268.119 73.5597 268.455 73.2238 268.455 72.8094V72.0063C268.455 71.592 268.119 71.256 267.705 71.256Z" fill="#FCE6C5"/>
<path d="M275.866 71.256H273.189C272.774 71.256 272.439 71.592 272.439 72.0063V72.8094C272.439 73.2238 272.774 73.5597 273.189 73.5597H275.866C276.28 73.5597 276.616 73.2238 276.616 72.8094V72.0063C276.616 71.592 276.28 71.256 275.866 71.256Z" fill="#FCE6C5"/>
<path d="M270.939 71.256H269.574C269.159 71.256 268.824 71.592 268.824 72.0063V72.7508C268.824 73.1652 269.159 73.5011 269.574 73.5011H270.939C271.353 73.5011 271.689 73.1652 271.689 72.7508V72.0063C271.689 71.592 271.353 71.256 270.939 71.256Z" fill="#FCE6C5"/>
<path opacity="0.2" fill-rule="evenodd" clip-rule="evenodd" d="M250.479 82.1063C238.375 81.9187 226.271 81.7311 214.166 81.5435V110.02H250.479V82.1063Z" fill="#A198FF"/>
<path fill-rule="evenodd" clip-rule="evenodd" d="M237.996 20.1108C236.84 21.8166 235.916 23.1373 235.364 23.9784C235.216 24.2047 234.897 24.6911 234.313 24.8938C233.868 25.0458 233.358 25.0424 232.895 24.833L218.07 18.2159C217.146 17.8004 216.74 16.7398 217.175 15.8582C217.599 14.9867 219.117 15.007 219.644 15.0002C221.65 14.9833 223.274 15.9055 225.327 17.2194L228.185 17.3816L227.386 18.5402C228.5 19.2427 229.767 19.9926 231.26 20.7357C232.438 21.3235 233.429 21.7389 234.055 21.9923L238 20.1108H237.996Z" fill="#F7FFFB"/>
<path fill-rule="evenodd" clip-rule="evenodd" d="M155.976 20.2822C155.155 18.084 156.181 15.7686 158.536 14.4321C161.284 12.8729 165.344 12.9198 168.226 14.6197C168.262 14.397 168.865 11.0792 173.042 9.61957C173.253 9.54337 177.882 7.99585 181.602 10.1002C184.573 11.7767 184.585 14.438 184.573 14.7663C188.176 13.6818 192.096 14.3149 194.158 16.1731C196.05 17.8789 195.67 19.9833 195.576 20.4229C182.376 20.376 169.17 20.3291 155.97 20.2822H155.976Z" fill="white"/>
<path fill-rule="evenodd" clip-rule="evenodd" d="M208.126 23.0484C211.951 29.6781 215.777 36.302 219.603 42.9317C224.413 51.2672 229.223 59.6027 234.039 67.9324L219.609 42.9258L208.137 23.0484V23.0367H208.131V23.0484H208.126Z" fill="#31288F"/>
<path fill-rule="evenodd" clip-rule="evenodd" d="M182.704 67.9382C199.876 68.0203 217.055 68.1024 234.227 68.1844C229.346 59.7727 224.472 51.3551 219.603 42.9317C215.771 36.3078 211.946 29.6781 208.126 23.0484C199.654 38.0136 191.176 52.973 182.704 67.9382Z" fill="#FFBFAB"/>
<path fill-rule="evenodd" clip-rule="evenodd" d="M219.603 42.9317C224.413 51.2672 229.223 59.6027 234.039 67.9323L219.609 42.9258L219.603 42.9317Z" fill="#31288F"/>
<path d="M232.575 67.9382H182.68V110.442H232.575V67.9382Z" fill="#FFBFAB"/>
<path fill-rule="evenodd" clip-rule="evenodd" d="M232.575 67.9382V110.442H256.614V70.0368L232.575 67.9382Z" fill="#FFCCBC"/>
<path fill-rule="evenodd" clip-rule="evenodd" d="M208.137 23.0484L219.609 42.9258C223.933 51.2613 228.257 59.5969 232.575 67.9324C240.59 68.6299 248.605 69.3333 256.614 70.0309L255.641 68.6768C248.048 58.0786 240.455 47.4805 232.856 36.8823C218.068 28.5292 208.161 22.9663 208.114 23.0425C208.26 23.1832 212.039 29.766 219.591 42.9317C226.517 55.0012 232.001 66.7248 232.522 67.8444L232.563 67.9324C232.563 67.9324 225.573 53.9871 218.174 40.5459C215.976 36.554 212.561 30.4636 208.12 23.0425L208.137 23.0484Z" fill="#FFD9CD"/>
<path d="M210.51 110.442H199.888V92.1182C199.888 89.1873 202.267 86.8074 205.196 86.8074C208.126 86.8074 210.504 89.1873 210.504 92.1182V110.442H210.51Z" fill="#1C1836"/>
<path d="M186.723 95.5826H192.031V87.757H186.723V95.5826Z" fill="#1C1836"/>
<path d="M218.425 95.8346H223.734V88.0091H218.425V95.8346Z" fill="#31288F"/>
<path d="M230.7 102.552C230.565 102.552 230.43 102.482 230.36 102.353C230.255 102.165 230.319 101.925 230.507 101.82C231.174 101.444 231.801 101.005 232.381 100.518C234.104 99.0528 235.416 97.0598 236.184 94.7444C236.254 94.5392 236.471 94.4278 236.676 94.4923C236.881 94.5626 236.992 94.7795 236.928 94.9847C236.119 97.4349 234.725 99.551 232.891 101.11C232.276 101.632 231.602 102.101 230.893 102.5C230.835 102.535 230.764 102.552 230.7 102.552Z" fill="#1D1D1B"/>
<path d="M237.344 115.988C237.151 115.988 236.986 115.847 236.957 115.653C236.928 115.437 237.074 115.243 237.291 115.208L239.307 114.921L239.207 107.511C239.207 107.295 239.377 107.119 239.594 107.113C239.81 107.113 239.986 107.283 239.992 107.5L240.098 115.595L237.402 115.982C237.402 115.982 237.367 115.982 237.344 115.982V115.988Z" fill="#1D1D1B"/>
<path d="M251.733 117.758C251.546 117.758 251.376 117.617 251.347 117.424C251.311 117.213 251.458 117.008 251.675 116.978L253.538 116.691L253.802 107.16C253.807 106.943 253.989 106.773 254.206 106.779C254.423 106.785 254.592 106.966 254.587 107.183L254.305 117.365L251.798 117.752C251.798 117.752 251.757 117.752 251.739 117.752L251.733 117.758Z" fill="#1D1D1B"/>
<path d="M247.656 73.4132H244.855C239.034 73.4132 234.315 78.1345 234.315 83.9586V101.925C234.315 107.749 239.034 112.471 244.855 112.471H247.656C253.477 112.471 258.196 107.749 258.196 101.925V83.9586C258.196 78.1345 253.477 73.4132 247.656 73.4132Z" fill="#ADFFE2"/>
<path d="M248.968 89.8908C250.754 89.8908 252.202 88.4421 252.202 86.655C252.202 84.868 250.754 83.4193 248.968 83.4193C247.182 83.4193 245.734 84.868 245.734 86.655C245.734 88.4421 247.182 89.8908 248.968 89.8908Z" fill="white"/>
<path d="M247.609 88.8181C248.654 88.8181 249.501 87.9704 249.501 86.9247C249.501 85.879 248.654 85.0313 247.609 85.0313C246.564 85.0313 245.716 85.879 245.716 86.9247C245.716 87.9704 246.564 88.8181 247.609 88.8181Z" fill="#1C1836"/>
<g opacity="0.24">
<path d="M247.005 88.2084C247.707 88.2084 248.277 87.6389 248.277 86.9364C248.277 86.2339 247.707 85.6644 247.005 85.6644C246.303 85.6644 245.734 86.2339 245.734 86.9364C245.734 87.6389 246.303 88.2084 247.005 88.2084Z" fill="white"/>
</g>
<path d="M240.221 89.8908C242.007 89.8908 243.455 88.4421 243.455 86.655C243.455 84.868 242.007 83.4193 240.221 83.4193C238.434 83.4193 236.986 84.868 236.986 86.655C236.986 88.4421 238.434 89.8908 240.221 89.8908Z" fill="white"/>
<path d="M238.861 88.8181C239.906 88.8181 240.754 87.9704 240.754 86.9247C240.754 85.879 239.906 85.0313 238.861 85.0313C237.816 85.0313 236.969 85.879 236.969 86.9247C236.969 87.9704 237.816 88.8181 238.861 88.8181Z" fill="#1C1836"/>
<g opacity="0.24">
<path d="M238.252 88.2084C238.954 88.2084 239.523 87.6389 239.523 86.9364C239.523 86.2339 238.954 85.6644 238.252 85.6644C237.55 85.6644 236.981 86.2339 236.981 86.9364C236.981 87.6389 237.55 88.2084 238.252 88.2084Z" fill="white"/>
</g>
<path d="M261.324 100.612C261.166 100.612 261.02 100.518 260.955 100.36C260.416 98.9356 259.672 97.6108 258.741 96.4208C258.002 95.4771 257.147 94.6213 256.198 93.8768C256.028 93.742 255.999 93.4958 256.133 93.3258C256.268 93.1558 256.514 93.1265 256.684 93.2613C257.68 94.0409 258.582 94.9437 259.362 95.9402C260.34 97.1946 261.125 98.5897 261.693 100.084C261.77 100.29 261.67 100.512 261.465 100.589C261.418 100.606 261.371 100.612 261.324 100.612Z" fill="#1D1D1B"/>
<path d="M244.281 94.3047C243.097 94.3047 241.984 93.5896 241.451 92.4582C241.357 92.2648 241.439 92.0303 241.638 91.9365C241.832 91.8427 242.066 91.9248 242.16 92.1241C242.599 93.0503 243.543 93.6072 244.509 93.5075C245.734 93.3785 246.308 92.2414 246.331 92.1945C246.425 92.001 246.659 91.919 246.859 92.0186C247.052 92.1124 247.134 92.3527 247.034 92.5462C246.952 92.7044 246.208 94.123 244.591 94.293C244.492 94.3047 244.386 94.3106 244.287 94.3106L244.281 94.3047Z" fill="#1D1D1B"/>
<path d="M167.002 84.0465H137.098V109.475H167.002V84.0465Z" fill="#FFBFAB"/>
<path fill-rule="evenodd" clip-rule="evenodd" d="M169.34 84.3513H132.891L151.113 52.7737L169.34 84.3513Z" fill="#FFBFAB"/>
<path d="M153.433 109.481H146.601V98.7304C146.601 96.9191 148.072 95.4478 149.882 95.4478H150.152C151.962 95.4478 153.433 96.9191 153.433 98.7304V109.481Z" fill="#1C1836"/>
<path d="M159.21 96.2215C160.931 96.2215 162.327 94.8253 162.327 93.103C162.327 91.3807 160.931 89.9845 159.21 89.9845C157.488 89.9845 156.093 91.3807 156.093 93.103C156.093 94.8253 157.488 96.2215 159.21 96.2215Z" fill="#1C1836"/>
<path d="M141.287 96.2215C143.009 96.2215 144.404 94.8253 144.404 93.103C144.404 91.3807 143.009 89.9845 141.287 89.9845C139.566 89.9845 138.17 91.3807 138.17 93.103C138.17 94.8253 139.566 96.2215 141.287 96.2215Z" fill="#1C1836"/>
<path fill-rule="evenodd" clip-rule="evenodd" d="M166.908 82.4286V110.149H182.587V83.8003L166.908 82.4286Z" fill="#FFD9CD"/>
<path fill-rule="evenodd" clip-rule="evenodd" d="M150.972 53.1547L158.454 66.1211C161.272 71.555 164.09 76.9947 166.908 82.4286L182.587 83.8003L181.954 82.9152C177.003 76.0041 172.046 69.093 167.096 62.1819C157.452 56.7304 150.99 53.1078 150.96 53.1547C151.06 53.2485 153.521 57.5393 158.448 66.1269C162.965 73.9993 166.539 81.6432 166.879 82.3759L166.908 82.4345C166.908 82.4345 162.35 73.337 157.528 64.5735C156.093 61.9709 153.866 58.0024 150.972 53.1606V53.1547Z" fill="#FFCCBC"/>
<path d="M148.839 108.039H143.361C142.776 108.039 142.301 108.514 142.301 109.1V115.823C142.301 116.409 142.776 116.884 143.361 116.884H148.839C149.425 116.884 149.9 116.409 149.9 115.823V109.1C149.9 108.514 149.425 108.039 148.839 108.039Z" fill="#A198FF"/>
<path d="M145.242 108.139C145.371 107.681 145.781 107.359 146.244 107.341C146.736 107.324 147.181 107.652 147.316 108.139" stroke="#B4ADFF" stroke-width="0.59" stroke-miterlimit="10"/>
<path d="M148.382 108.039H148.107V100.46H144.515V108.039H144.24V100.19H148.382V108.039Z" fill="#7972BF"/>
<path d="M144.65 117.957C144.974 117.957 145.236 117.695 145.236 117.371C145.236 117.047 144.974 116.785 144.65 116.785C144.327 116.785 144.064 117.047 144.064 117.371C144.064 117.695 144.327 117.957 144.65 117.957Z" fill="#A198FF"/>
<path d="M148.037 117.957C148.36 117.957 148.623 117.695 148.623 117.371C148.623 117.047 148.36 116.785 148.037 116.785C147.713 116.785 147.451 117.047 147.451 117.371C147.451 117.695 147.713 117.957 148.037 117.957Z" fill="#A198FF"/>
<path d="M144.516 112.67H147.796C148.084 112.67 148.312 112.904 148.312 113.186V116.884H143.889V113.291C143.889 112.945 144.17 112.67 144.51 112.67H144.516Z" fill="#D2CEFF"/>
<path d="M143.894 108.039H148.318V111.738C148.318 112.025 148.084 112.254 147.802 112.254H144.521C144.176 112.254 143.9 111.972 143.9 111.632V108.039H143.894Z" fill="#D2CEFF"/>
<path d="M161.518 103.437C161.623 107.265 161.729 111.093 161.84 114.921C162.69 115.05 163.539 115.185 164.389 115.313" stroke="#1D1D1B" stroke-width="1.02" stroke-miterlimit="10" stroke-linecap="round"/>
<path opacity="0.25" fill-rule="evenodd" clip-rule="evenodd" d="M164.74 81.7663C163.733 82.7687 162.121 84.6386 161.454 87.3116C159.649 94.4982 166.229 101.022 164.377 102.728C163.451 103.584 160.727 102.752 159.567 101.269C158.934 100.46 158.688 99.3635 158.653 99.1993C158.524 98.5956 158.553 98.2497 158.53 96.7608C158.518 96.0515 158.483 95.3364 158.471 94.6271C158.413 91.9717 158.307 91.6552 158.29 90.1194C158.249 87.1064 158.231 85.5999 159.022 84.3338C159.889 82.9504 161.155 82.3407 161.459 82.2001C162.912 81.5377 164.237 81.6901 164.746 81.7721L164.74 81.7663Z" fill="#F7FFFB"/>
<path d="M172.252 105.401L172.134 114.434L174.882 114.827" stroke="#1D1D1B" stroke-width="1.02" stroke-miterlimit="10" stroke-linecap="round"/>
<path d="M175.017 96.2802C175.034 97.3411 175.204 99.0645 176.107 100.923C176.564 101.866 177.103 102.617 177.577 103.18" stroke="#1D1D1B" stroke-width="1.02" stroke-miterlimit="10" stroke-linecap="round"/>
<path d="M166.467 110.936L168.165 110.879C172.741 110.726 176.326 106.89 176.173 102.311L175.671 87.3312C175.517 82.7529 171.683 79.1658 167.107 79.3193L165.409 79.3762C160.833 79.5297 157.248 83.3656 157.401 87.944L157.903 102.924C158.057 107.503 161.891 111.09 166.467 110.936Z" fill="#ADFFE2"/>
<path d="M159.245 96.3153C159.063 97.3001 158.917 98.4197 158.852 99.6507C158.799 100.641 158.805 101.562 158.852 102.4" stroke="#1D1D1B" stroke-width="1.02" stroke-miterlimit="10" stroke-linecap="round"/>
<path d="M171.712 95.2602C171.349 96.0984 170.517 96.6201 169.656 96.5615C168.56 96.4853 168.021 95.5122 167.986 95.4478" stroke="#1D1D1B" stroke-width="1.02" stroke-miterlimit="10" stroke-linecap="round"/>
<path d="M168.625 89.5625H163.985C163.642 89.5625 163.364 89.8407 163.364 90.1839V92.9741C163.364 93.3172 163.642 93.5954 163.985 93.5954H168.625C168.968 93.5954 169.246 93.3172 169.246 92.9741V90.1839C169.246 89.8407 168.968 89.5625 168.625 89.5625Z" fill="#1C1836"/>
<path opacity="0.24" fill-rule="evenodd" clip-rule="evenodd" d="M166.686 93.7185C166.838 92.9213 165.326 92.5286 165.022 90.9049C164.811 89.7618 165.385 88.9998 165.022 88.7301C164.647 88.4546 163.633 88.9822 163.041 89.6915C161.893 91.0514 161.676 93.7947 163.106 94.6799C164.348 95.4478 166.516 94.6154 166.686 93.7185Z" fill="white"/>
<path d="M175.849 89.5625H171.209C170.866 89.5625 170.588 89.8407 170.588 90.1839V92.9741C170.588 93.3172 170.866 93.5954 171.209 93.5954H175.849C176.192 93.5954 176.47 93.3172 176.47 92.9741V90.1839C176.47 89.8407 176.192 89.5625 175.849 89.5625Z" fill="#1C1836"/>
<path opacity="0.24" fill-rule="evenodd" clip-rule="evenodd" d="M173.91 93.7185C174.062 92.9213 172.55 92.5286 172.246 90.9049C172.035 89.7618 172.609 88.9998 172.246 88.7301C171.871 88.4546 170.857 88.9822 170.265 89.6915C169.117 91.0514 168.9 93.7947 170.33 94.6799C171.572 95.4478 173.74 94.6154 173.91 93.7185Z" fill="white"/>
<path d="M161.19 103.936H152.97C152.08 103.936 151.359 104.657 151.359 105.548V115.982C151.359 116.872 152.08 117.594 152.97 117.594H161.19C162.08 117.594 162.801 116.872 162.801 115.982V105.548C162.801 104.657 162.08 103.936 161.19 103.936Z" fill="#B4ADFF"/>
<path d="M158.653 104.1C158.483 103.672 157.915 103.367 157.3 103.385C156.714 103.396 156.192 103.695 156.034 104.1L155.536 104C155.759 103.437 156.474 103.027 157.282 103.01C158.149 102.992 158.917 103.396 159.151 104L158.653 104.1Z" fill="#D2CEFF"/>
<path d="M154.06 105.554H153.972C153.826 105.554 153.708 105.672 153.708 105.817V115.788C153.708 115.934 153.826 116.052 153.972 116.052H154.06C154.205 116.052 154.323 115.934 154.323 115.788V105.817C154.323 105.672 154.205 105.554 154.06 105.554Z" fill="#D2CEFF"/>
<path d="M155.911 105.554H155.823C155.678 105.554 155.56 105.672 155.56 105.817V115.788C155.56 115.934 155.678 116.052 155.823 116.052H155.911C156.057 116.052 156.175 115.934 156.175 115.788V105.817C156.175 105.672 156.057 105.554 155.911 105.554Z" fill="#D2CEFF"/>
<path d="M158.137 105.554H158.05C157.904 105.554 157.786 105.672 157.786 105.817V115.788C157.786 115.934 157.904 116.052 158.05 116.052H158.137C158.283 116.052 158.401 115.934 158.401 115.788V105.817C158.401 105.672 158.283 105.554 158.137 105.554Z" fill="#D2CEFF"/>
<path d="M160.112 105.554H160.024C159.878 105.554 159.76 105.672 159.76 105.817V115.788C159.76 115.934 159.878 116.052 160.024 116.052H160.112C160.258 116.052 160.376 115.934 160.376 115.788V105.817C160.376 105.672 160.258 105.554 160.112 105.554Z" fill="#D2CEFF"/>
<path d="M191.316 113.391L193.554 113.086C193.256 112.5 192.828 111.486 192.734 110.161C192.617 108.537 193.056 107.265 193.332 106.626" stroke="#1D1D1B" stroke-width="0.91" stroke-linecap="round" stroke-linejoin="round"/>
<path d="M189.002 103.08C189.084 103.238 189.6 104.264 189.143 105.466C188.686 106.661 187.625 107.083 187.461 107.148" stroke="#1D1D1B" stroke-width="0.91" stroke-miterlimit="10" stroke-linecap="round"/>
<path d="M198.183 113.948C198.886 113.836 199.583 113.731 200.286 113.619C199.958 112.863 199.624 111.878 199.466 110.694C199.402 110.225 199.378 109.792 199.372 109.387" stroke="#1D1D1B" stroke-width="0.91" stroke-linecap="round" stroke-linejoin="round"/>
<path d="M197.064 111.146C202.096 111.146 206.175 106.941 206.175 101.755C206.175 96.5688 202.096 92.3644 197.064 92.3644C192.032 92.3644 187.953 96.5688 187.953 101.755C187.953 106.941 192.032 111.146 197.064 111.146Z" fill="#D6FFEB"/>
<path d="M194.685 102.212C195.066 103.015 195.892 103.496 196.724 103.408C197.785 103.297 198.283 102.335 198.312 102.271" stroke="#1D1D1B" stroke-miterlimit="10" stroke-linecap="round"/>
<path d="M191.685 99.5041C191.685 99.469 191.639 98.7128 192.295 98.279C192.33 98.2556 192.951 97.8628 193.642 98.1266C194.181 98.3318 194.539 98.8476 194.539 99.4279" stroke="#1D1D1B" stroke-miterlimit="10" stroke-linecap="round"/>
<path d="M198.048 99.7796C198.048 99.7445 198.001 98.9824 198.628 98.5487C198.663 98.5252 199.243 98.1325 199.9 98.3962C200.409 98.6014 200.749 99.1231 200.749 99.7093" stroke="#1D1D1B" stroke-miterlimit="10" stroke-linecap="round"/>
<path d="M205.829 103.08C205.911 103.238 206.426 104.264 205.969 105.466C205.512 106.661 204.452 107.083 204.288 107.148" stroke="#1D1D1B" stroke-width="0.91" stroke-miterlimit="10" stroke-linecap="round"/>
<path d="M199.202 101.181C199.542 101.181 199.818 101.007 199.818 100.794C199.818 100.58 199.542 100.407 199.202 100.407C198.863 100.407 198.587 100.58 198.587 100.794C198.587 101.007 198.863 101.181 199.202 101.181Z" fill="#FDD8E1"/>
<path d="M192.547 101.116C192.887 101.116 193.162 100.943 193.162 100.729C193.162 100.516 192.887 100.342 192.547 100.342C192.207 100.342 191.932 100.516 191.932 100.729C191.932 100.943 192.207 101.116 192.547 101.116Z" fill="#FDD8E1"/>
<path fill-rule="evenodd" clip-rule="evenodd" d="M308.611 110.196H302.167V35.1648C304.118 35.5575 306.075 35.9444 308.026 36.3371C308.219 60.9568 308.418 85.5764 308.611 110.196Z" fill="#FFD9CD"/>
<path d="M312.08 96.3681C317.908 96.3681 322.632 91.6415 322.632 85.8109C322.632 79.9804 317.908 75.2538 312.08 75.2538C306.252 75.2538 301.528 79.9804 301.528 85.8109C301.528 91.6415 306.252 96.3681 312.08 96.3681Z" fill="#FFF7F4"/>
<path d="M331.865 93.1734C336.493 93.1734 340.244 89.4204 340.244 84.791C340.244 80.1615 336.493 76.4086 331.865 76.4086C327.238 76.4086 323.487 80.1615 323.487 84.791C323.487 89.4204 327.238 93.1734 331.865 93.1734Z" fill="#FFF7F4"/>
<path d="M322.667 88.4722L329.452 83.982" stroke="#1D1D1B" stroke-width="1.31" stroke-miterlimit="10" stroke-linecap="round"/>
<path d="M322.222 90.8052L314.822 87.3057" stroke="#1D1D1B" stroke-width="1.31" stroke-miterlimit="10" stroke-linecap="round"/>
<path d="M321.706 86.1802C328.689 86.1802 334.35 80.5167 334.35 73.5304C334.35 66.5441 328.689 60.8806 321.706 60.8806C314.723 60.8806 309.063 66.5441 309.063 73.5304C309.063 80.5167 314.723 86.1802 321.706 86.1802Z" fill="#FFF7F4"/>
<path d="M322.632 73.5597V109.381" stroke="#1D1D1B" stroke-width="1.31" stroke-miterlimit="10" stroke-linecap="round"/>
</g>
</svg>
