<svg width="52" height="32" viewBox="0 0 52 32" fill="none" xmlns="http://www.w3.org/2000/svg">
<path d="M47.3334 14.6667H45.3334V9.33334C45.3334 7.86668 44.1334 6.66668 42.6667 6.66668H37.3334V4.66668C37.3334 2.82668 35.84 1.33334 34 1.33334C32.16 1.33334 30.6667 2.82668 30.6667 4.66668V6.66668H25.3334C23.8667 6.66668 22.68 7.86668 22.68 9.33334V14.4H24.6667C26.6534 14.4 28.2667 16.0133 28.2667 18C28.2667 19.9867 26.6534 21.6 24.6667 21.6H22.6667V26.6667C22.6667 28.1333 23.8667 29.3333 25.3334 29.3333H30.4V27.3333C30.4 25.3467 32.0134 23.7333 34 23.7333C35.9867 23.7333 37.6 25.3467 37.6 27.3333V29.3333H42.6667C44.1334 29.3333 45.3334 28.1333 45.3334 26.6667V21.3333H47.3334C49.1734 21.3333 50.6667 19.84 50.6667 18C50.6667 16.16 49.1734 14.6667 47.3334 14.6667Z" fill="#5427E2"/>
<path d="M24.6667 14.3333H22.6667V9C22.6667 7.53333 21.4667 6.33333 20 6.33333H14.6667V4.33333C14.6667 2.49333 13.1733 1 11.3333 1C9.49333 1 8 2.49333 8 4.33333V6.33333H2.66667C1.2 6.33333 0.0133333 7.53333 0.0133333 9V14.0667H2C3.98667 14.0667 5.6 15.68 5.6 17.6667C5.6 19.6533 3.98667 21.2667 2 21.2667H0V26.3333C0 27.8 1.2 29 2.66667 29H7.73333V27C7.73333 25.0133 9.34667 23.4 11.3333 23.4C13.32 23.4 14.9333 25.0133 14.9333 27V29H20C21.4667 29 22.6667 27.8 22.6667 26.3333V21H24.6667C26.5067 21 28 19.5067 28 17.6667C28 15.8267 26.5067 14.3333 24.6667 14.3333Z" fill="#ADFFD6"/>
</svg>
