<svg xmlns="http://www.w3.org/2000/svg" width="189" height="233" viewBox="0 0 189 233" fill="none">
	<g clip-path="url(#clip0_1975_17511)">
		<path fill-rule="evenodd" clip-rule="evenodd" d="M92.6247 51.0947L18.783 112.843H170.542L92.6247 51.0947Z" fill="#A198FF"></path>
		<path fill-rule="evenodd" clip-rule="evenodd" d="M92.6247 170.636L18.783 232.384H170.542L92.6247 170.636Z" fill="#DAD6FF" stroke="white" stroke-width="7.15" stroke-miterlimit="10"></path>
		<path d="M170.542 112.836H18.7847V232.384H170.542V112.836Z" fill="#DAD6FF"></path>
		<path fill-rule="evenodd" clip-rule="evenodd" d="M170.542 112.843L160.065 121.144L112.905 158.515L92.6247 174.578L63.087 149.88L27.4017 120.043L18.783 112.843H170.542Z" fill="#A198FF"></path>
		<path fill-rule="evenodd" clip-rule="evenodd" d="M184.362 52.5241L163.004 112.843L160.068 121.144L112.908 158.515L53.2283 137.543C51.7043 137.007 50.301 136.178 49.0987 135.103C47.8963 134.027 46.9185 132.726 46.2209 131.274C45.5234 129.822 45.1198 128.247 45.0333 126.64C44.9467 125.033 45.1789 123.424 45.7166 121.906L48.9285 112.843L82.9059 16.8819C83.4433 15.3638 84.2756 13.9659 85.3554 12.7681C86.4352 11.5703 87.7412 10.5962 89.199 9.9012C90.6568 9.20625 92.2378 8.80414 93.8516 8.71783C95.4655 8.63152 97.0806 8.8627 98.6047 9.39817L176.85 36.8874C178.374 37.4228 179.777 38.252 180.98 39.3275C182.182 40.4031 183.16 41.7041 183.857 43.1561C184.555 44.6081 184.958 46.1827 185.045 47.7901C185.132 49.3975 184.899 51.0061 184.362 52.5241Z" fill="#F6F6F6"></path>
		<path d="M161.03 57.835L100.278 41.6154C98.9678 41.2657 97.6212 42.0399 97.2701 43.3447L97.1498 43.7918C96.7987 45.0965 97.576 46.4378 98.8859 46.7875L159.638 63.0071C160.948 63.3569 162.295 62.5826 162.646 61.2779L162.766 60.8308C163.117 59.526 162.34 58.1848 161.03 57.835Z" fill="#DAD6FF"></path>
		<path d="M155.956 73.0108L95.2043 56.7912C93.8943 56.4415 92.5478 57.2157 92.1966 58.5204L92.0763 58.9676C91.7252 60.2723 92.5025 61.6136 93.8124 61.9633L154.565 78.1829C155.874 78.5326 157.221 77.7584 157.572 76.4537L157.692 76.0065C158.044 74.7018 157.266 73.3606 155.956 73.0108Z" fill="#DAD6FF"></path>
		<path d="M148.554 89.0167L88.0256 72.9864C86.7205 72.6408 85.3812 73.4144 85.0341 74.7143L84.9152 75.1598C84.5682 76.4598 85.3449 77.7938 86.65 78.1394L147.178 94.1697C148.483 94.5153 149.822 93.7417 150.169 92.4418L150.288 91.9963C150.635 90.6963 149.859 89.3623 148.554 89.0167Z" fill="#DAD6FF"></path>
		<path opacity="0.22" fill-rule="evenodd" clip-rule="evenodd" d="M130.129 132.266L63.3956 150L27.644 121.532L25.6146 114.663L4.45083 42.9981C4.02018 41.5406 3.89642 40.0169 4.08661 38.5141C4.2768 37.0112 4.77721 35.5586 5.55927 34.2392C6.34133 32.9198 7.38972 31.7594 8.64458 30.8244C9.89943 29.8893 11.3362 29.1979 12.8727 28.7896L93.2581 7.42764C94.7946 7.01914 96.4009 6.90175 97.9852 7.08215C99.5696 7.26256 101.101 7.73724 102.492 8.47908C103.883 9.22092 105.106 10.2154 106.092 11.4057C107.078 12.596 107.806 13.9589 108.237 15.4164L137.546 114.663L138.551 118.065C139.419 121.007 139.019 124.156 137.44 126.819C135.86 129.483 133.231 131.442 130.129 132.266Z" fill="#1D1D1B"></path>
		<path fill-rule="evenodd" clip-rule="evenodd" d="M125.898 132.902L59.2878 151.716L23.6025 121.514L21.5769 114.219L0.4524 38.1946C-1.35561 31.6912 2.40892 24.9419 8.85869 23.1204L89.0949 0.455735C95.5447 -1.36748 102.238 2.42859 104.046 8.93197L133.301 114.219L134.304 117.831C136.112 124.329 132.347 131.075 125.898 132.902Z" fill="#F6F6F6"></path>
		<path fill-rule="evenodd" clip-rule="evenodd" d="M125.538 96.1214C109.762 82.7775 86.1144 84.6988 72.7193 100.421C59.3241 116.144 61.2478 139.676 77.026 153.023C90.6854 164.574 110.242 164.685 123.939 154.309C128.324 150.983 131.926 146.74 134.49 141.881C142.455 126.758 139.153 107.639 125.538 96.1214ZM83.6778 145.221C79.5776 141.753 76.6019 137.151 75.1272 131.999C73.6525 126.846 73.7449 121.373 75.3928 116.273C77.0406 111.173 80.1699 106.674 84.385 103.345C88.6 100.016 93.7114 98.0065 99.0729 97.5711C104.434 97.1357 109.805 98.2937 114.506 100.899C119.206 103.503 123.026 107.438 125.482 112.205C127.937 116.972 128.918 122.358 128.301 127.68C127.684 133.003 125.496 138.024 122.014 142.108C117.344 147.584 110.682 150.988 103.493 151.572C96.3039 152.156 89.1762 149.871 83.6778 145.221Z" fill="#ADFFE2"></path>
		<path opacity="0.38" fill-rule="evenodd" clip-rule="evenodd" d="M122.014 142.108C118.532 146.192 113.912 149.156 108.739 150.625C103.566 152.094 98.0721 152.002 92.9514 150.361C87.8307 148.72 83.3136 145.603 79.9713 141.405C76.6289 137.207 74.6115 132.116 74.1742 126.776C73.7368 121.435 74.8991 116.086 77.5141 111.404C80.1291 106.721 84.0793 102.917 88.8653 100.471C93.6512 98.0245 99.0579 97.0469 104.402 97.6615C109.745 98.2761 114.786 100.455 118.887 103.923C124.385 108.574 127.803 115.209 128.39 122.37C128.976 129.531 126.683 136.631 122.014 142.108Z" fill="#ADFFE2"></path>
		<path d="M132.404 142.556L124.244 152.127C123.504 152.996 123.61 154.298 124.482 155.036L134.091 163.164C134.963 163.902 136.271 163.796 137.012 162.927L145.172 153.356C145.913 152.488 145.806 151.185 144.934 150.447L135.325 142.319C134.453 141.581 133.145 141.687 132.404 142.556Z" fill="#ADFFE2"></path>
		<path d="M141.871 156.432C141.071 155.756 139.872 155.853 139.193 156.65C138.514 157.446 138.612 158.64 139.411 159.317L143.887 163.102C144.686 163.779 145.885 163.681 146.564 162.885C147.243 162.088 147.145 160.894 146.346 160.218L141.871 156.432Z" fill="#ADFFE2"></path>
		<path d="M148.703 156.655L140.852 165.864C140.026 166.833 140.145 168.285 141.117 169.108L177.345 199.753C178.318 200.576 179.776 200.458 180.602 199.489L188.454 190.28C189.28 189.311 189.161 187.859 188.188 187.036L151.96 156.391C150.988 155.568 149.529 155.687 148.703 156.655Z" fill="#ADFFE2"></path>
		<g opacity="0.39">
		<path opacity="0.39" d="M26.7108 227.568C48.3655 209.271 70.4933 191.257 92.5572 173.432C111.007 186.658 130.337 200.703 148.6 214.207C154.725 218.757 160.861 223.301 166.931 227.912C160.619 223.622 154.356 219.266 148.091 214.914C132.912 204.322 116.429 192.652 101.387 181.867C98.2783 179.647 95.17 177.433 92.0893 175.197L93.1254 175.17C71.1806 192.796 49.0338 210.433 26.7108 227.568Z" fill="#A198FF"></path>
		</g>
		<path d="M92.2367 28.4168L18.9085 48.083C17.4811 48.4658 16.6355 49.9287 17.0199 51.3505C17.4042 52.7722 18.873 53.6145 20.3004 53.2316L93.6285 33.5655C95.056 33.1826 95.9015 31.7197 95.5172 30.298C95.1328 28.8762 93.6641 28.034 92.2367 28.4168Z" fill="#DAD6FF"></path>
		<path d="M95.3002 38.8773L21.972 58.5434C20.5446 58.9262 19.699 60.3891 20.0834 61.8109C20.4677 63.2327 21.9364 64.0749 23.3638 63.6921L96.692 44.0259C98.1195 43.6431 98.965 42.1802 98.5807 40.7584C98.1963 39.3367 96.7276 38.4944 95.3002 38.8773Z" fill="#DAD6FF"></path>
		<path d="M98.28 49.4017L24.9519 69.0678C23.5245 69.4506 22.6789 70.9136 23.0632 72.3353C23.4476 73.7571 24.9163 74.5993 26.3437 74.2165L99.6719 54.5503C101.099 54.1675 101.945 52.7046 101.561 51.2828C101.176 49.8611 99.7075 49.0188 98.28 49.4017Z" fill="#DAD6FF"></path>
		<path d="M101.344 59.8621L28.0153 79.5283C26.5879 79.9111 25.7424 81.374 26.1267 82.7958C26.511 84.2175 27.9798 85.0598 29.4072 84.6769L102.735 65.0108C104.163 64.628 105.008 63.1651 104.624 61.7433C104.24 60.3215 102.771 59.4793 101.344 59.8621Z" fill="#DAD6FF"></path>
	</g>
	<defs>
		<clipPath id="clip0_1975_17511">
		<rect width="189" height="233" fill="white"></rect>
		</clipPath>
	</defs>
</svg>