<svg width="198" height="31" viewBox="0 0 198 31" fill="none" xmlns="http://www.w3.org/2000/svg">
	<path d="M150.974 0H147.562C146.81 0 146.201 0.615464 146.201 1.37468V18.5897C146.201 19.3489 146.81 19.9644 147.562 19.9644H150.974C151.726 19.9644 152.335 19.3489 152.335 18.5897V1.37468C152.335 0.615464 151.726 0 150.974 0Z" fill="#1C1836"/>
	<path d="M19.7647 17.7833V9.9821C19.7625 8.61738 19.4836 7.26758 18.9453 6.01588C18.4069 4.76418 17.6205 3.63712 16.6345 2.70415C15.6484 1.77118 14.4837 1.05207 13.212 0.591162C11.9403 0.130249 10.5887 -0.0627066 9.24035 0.024186C4.00824 0.359355 0 4.8817 0 10.1643V18.592C0 18.9573 0.143635 19.3075 0.399309 19.5658C0.654983 19.8241 1.00175 19.9692 1.36333 19.9692H4.77045C5.13203 19.9692 5.4788 19.8241 5.73447 19.5658C5.99015 19.3075 6.13378 18.9573 6.13378 18.592V17.895V9.9821C6.13432 9.44797 6.24665 8.91998 6.46342 8.43279C6.68018 7.9456 6.99647 7.51021 7.39154 7.15518C7.78661 6.80015 8.25153 6.53351 8.7558 6.37275C9.26007 6.21199 9.79229 6.16075 10.3176 6.22238C11.2418 6.34635 12.0892 6.80787 12.6997 7.5198C13.3101 8.23172 13.6414 9.14477 13.6309 10.0865V18.2399V18.5896C13.6309 18.9549 13.7745 19.3051 14.0302 19.5634C14.2859 19.8216 14.6327 19.9667 14.9942 19.9667H18.4014C18.7629 19.9667 19.1097 19.8216 19.3654 19.5634C19.6211 19.3051 19.7647 18.9549 19.7647 18.5896V17.8926C19.7695 17.8561 19.7671 17.8197 19.7647 17.7833Z" fill="#1C1836"/>
	<path d="M42.6 17.7833V9.9821C42.5978 8.61738 42.3189 7.26758 41.7806 6.01588C41.2422 4.76418 40.4558 3.63712 39.4697 2.70415C38.4837 1.77118 37.319 1.05207 36.0473 0.591162C34.7756 0.130249 33.4239 -0.0627066 32.0756 0.024186C26.8435 0.359355 22.8353 4.8817 22.8353 10.1643V18.592C22.8353 18.9573 22.9789 19.3075 23.2346 19.5658C23.4903 19.8241 23.837 19.9692 24.1986 19.9692H27.5961C27.9577 19.9692 28.3045 19.8241 28.5601 19.5658C28.8158 19.3075 28.9594 18.9573 28.9594 18.592V17.895V16.0443C31.4217 16.6564 33.9942 16.6564 36.4566 16.0443V18.2423V18.592C36.4566 18.9573 36.6002 19.3075 36.8559 19.5658C37.1115 19.8241 37.4583 19.9692 37.8199 19.9692H41.227C41.5886 19.9692 41.9354 19.8241 42.191 19.5658C42.4467 19.3075 42.5903 18.9573 42.5903 18.592V17.895C42.6048 17.8561 42.6024 17.8197 42.6 17.7833ZM28.9883 9.5935C29.04 9.09488 29.1891 8.61158 29.427 8.17156C29.6648 7.73154 29.9867 7.34354 30.374 7.03002C30.7613 6.7165 31.2064 6.48369 31.6833 6.34506C32.1603 6.20643 32.6598 6.16473 33.1528 6.22238C33.9951 6.33309 34.7762 6.72626 35.3709 7.33885C35.9656 7.95144 36.3394 8.74798 36.4325 9.60078C34.0356 10.544 31.3756 10.544 28.9787 9.60078L28.9883 9.5935Z" fill="#1C1836"/>
	<path d="M65.4326 17.7834V9.98225C65.4305 8.61732 65.1516 7.2673 64.6131 6.01543C64.0746 4.76356 63.2879 3.63637 62.3016 2.70337C61.3153 1.77036 60.1503 1.05132 58.8783 0.590559C57.6063 0.129803 56.2544 -0.0628969 54.9059 0.0243412C49.6762 0.35951 45.668 4.88186 45.668 10.1644V18.5922C45.6677 18.7729 45.7026 18.9519 45.7709 19.119C45.8391 19.2861 45.9393 19.4379 46.0657 19.5658C46.1921 19.6937 46.3423 19.7952 46.5075 19.8644C46.6728 19.9337 46.85 19.9693 47.0289 19.9693H50.4384C50.6175 19.9693 50.7947 19.9337 50.9601 19.8645C51.1256 19.7953 51.2758 19.6938 51.4024 19.566C51.529 19.4381 51.6295 19.2863 51.698 19.1192C51.7665 18.9521 51.8018 18.773 51.8018 18.5922V17.8951V9.98225C51.8023 9.44812 51.9146 8.92014 52.1314 8.43295C52.3481 7.94576 52.6644 7.51036 53.0595 7.15533C53.4546 6.80031 53.9195 6.53367 54.4238 6.37291C54.928 6.21215 55.4603 6.1609 55.9855 6.22253C56.9098 6.34651 57.7572 6.80803 58.3676 7.51995C58.9781 8.23187 59.3093 9.14492 59.2989 10.0867V18.24V18.5898C59.2989 18.955 59.4425 19.3053 59.6982 19.5635C59.9539 19.8218 60.3006 19.9669 60.6622 19.9669H64.0693C64.4309 19.9669 64.7777 19.8218 65.0333 19.5635C65.289 19.3053 65.4326 18.955 65.4326 18.5898V17.8927C65.4375 17.8563 65.4351 17.8199 65.4326 17.7834Z" fill="#1C1836"/>
	<path d="M88.2677 17.7833V9.9821C88.2656 8.61738 87.9867 7.26758 87.4484 6.01588C86.91 4.76418 86.1236 3.63712 85.1375 2.70415C84.1515 1.77118 82.9867 1.05207 81.7151 0.591162C80.4434 0.130249 79.0917 -0.0627066 77.7434 0.024186C72.5113 0.359355 68.5031 4.8817 68.5031 10.1643V18.592C68.5027 18.7728 68.5377 18.9518 68.606 19.1189C68.6742 19.2859 68.7744 19.4378 68.9008 19.5657C69.0272 19.6936 69.1773 19.795 69.3426 19.8643C69.5079 19.9335 69.6851 19.9692 69.864 19.9692H73.2807C73.6423 19.9692 73.9891 19.8241 74.2447 19.5658C74.5004 19.3075 74.6441 18.9573 74.6441 18.592V17.895V9.9821C74.6449 9.44957 74.7568 8.9232 74.9725 8.43731C75.1883 7.95142 75.503 7.51692 75.8962 7.16216C76.2894 6.80741 76.7522 6.54035 77.2544 6.37842C77.7567 6.21649 78.287 6.16332 78.811 6.22238C79.7353 6.34635 80.5827 6.80787 81.1931 7.5198C81.8035 8.23172 82.1348 9.14477 82.1243 10.0865V18.2399V18.5896C82.1243 18.9549 82.268 19.3051 82.5237 19.5634C82.7793 19.8216 83.1261 19.9667 83.4877 19.9667H86.8948C87.2564 19.9667 87.6032 19.8216 87.8588 19.5634C88.1145 19.3051 88.2581 18.9549 88.2581 18.5896V17.8926C88.2726 17.8561 88.2702 17.8197 88.2677 17.7833Z" fill="#1C1836"/>
	<path d="M143.13 17.7834V9.98226C143.129 8.61744 142.85 7.26747 142.312 6.0156C141.774 4.76374 140.987 3.63653 140.001 2.70349C139.015 1.77045 137.85 1.05136 136.578 0.590583C135.306 0.129801 133.954 -0.0629056 132.606 0.024346C127.381 0.357086 123.366 4.86972 123.366 10.1523V18.5801C123.366 18.9453 123.509 19.2956 123.765 19.5538C124.021 19.8121 124.367 19.9572 124.729 19.9572H128.136C128.498 19.9572 128.845 19.8121 129.1 19.5538C129.356 19.2956 129.5 18.9453 129.5 18.5801V17.883V9.98226C129.5 9.44813 129.612 8.92014 129.829 8.43295C130.046 7.94576 130.362 7.51037 130.757 7.15534C131.152 6.80031 131.617 6.53367 132.122 6.37291C132.626 6.21215 133.158 6.16091 133.683 6.22254C134.608 6.34597 135.456 6.80725 136.067 7.51923C136.678 8.23121 137.009 9.14456 136.999 10.0867V18.24V18.5898C136.999 18.955 137.143 19.3053 137.398 19.5635C137.654 19.8218 138.001 19.9669 138.362 19.9669H141.772C142.133 19.9669 142.48 19.8218 142.736 19.5635C142.992 19.3053 143.135 18.955 143.135 18.5898V17.8927C143.136 17.8562 143.134 17.8197 143.13 17.7834Z" fill="#1C1836"/>
	<path d="M175.165 17.7833V9.9821C175.163 8.61738 174.884 7.26758 174.346 6.01588C173.807 4.76418 173.021 3.63712 172.035 2.70415C171.049 1.77118 169.884 1.05207 168.613 0.591162C167.341 0.130249 165.989 -0.0627066 164.641 0.024186C159.411 0.359355 155.401 4.8817 155.401 10.1643V18.592C155.401 18.9573 155.544 19.3075 155.8 19.5658C156.055 19.8241 156.402 19.9692 156.764 19.9692H160.171C160.533 19.9692 160.879 19.8241 161.135 19.5658C161.391 19.3075 161.534 18.9573 161.534 18.592V17.895V9.9821C161.535 9.44797 161.647 8.91998 161.864 8.43279C162.081 7.9456 162.397 7.51021 162.792 7.15518C163.187 6.80015 163.652 6.53351 164.156 6.37275C164.661 6.21199 165.193 6.16075 165.718 6.22238C166.642 6.34635 167.49 6.80787 168.1 7.5198C168.711 8.23172 169.042 9.14477 169.031 10.0865V18.2399V18.5896C169.031 18.9549 169.175 19.3051 169.431 19.5634C169.686 19.8216 170.033 19.9667 170.395 19.9667H173.802C174.163 19.9667 174.51 19.8216 174.766 19.5634C175.022 19.3051 175.165 18.9549 175.165 18.5896V17.8926C175.17 17.8561 175.168 17.8197 175.165 17.7833Z" fill="#1C1836"/>
	<path d="M197.998 17.7833V9.9821C197.996 8.61738 197.717 7.26758 197.178 6.01588C196.64 4.76418 195.854 3.63712 194.868 2.70415C193.882 1.77118 192.717 1.05207 191.445 0.591162C190.173 0.130249 188.822 -0.0627066 187.473 0.024186C182.241 0.359355 178.233 4.8817 178.233 10.1643V18.592C178.233 18.7728 178.268 18.9518 178.336 19.1189C178.404 19.2859 178.505 19.4378 178.631 19.5657C178.757 19.6936 178.907 19.795 179.073 19.8643C179.238 19.9335 179.415 19.9692 179.594 19.9692H183.004C183.365 19.9692 183.712 19.8241 183.968 19.5658C184.223 19.3075 184.367 18.9573 184.367 18.592V17.895V16.0443C186.829 16.6564 189.402 16.6564 191.864 16.0443V18.2423V18.592C191.864 18.9573 192.008 19.3075 192.263 19.5658C192.519 19.8241 192.866 19.9692 193.227 19.9692H196.63C196.991 19.9692 197.338 19.8241 197.594 19.5658C197.849 19.3075 197.993 18.9573 197.993 18.592V17.895C198.003 17.8561 198 17.8197 197.998 17.7833ZM184.386 9.5935C184.438 9.09488 184.587 8.61158 184.825 8.17156C185.063 7.73154 185.385 7.34354 185.772 7.03002C186.159 6.7165 186.604 6.48369 187.081 6.34506C187.558 6.20643 188.058 6.16473 188.551 6.22238C189.391 6.33511 190.17 6.72916 190.763 7.34157C191.356 7.95399 191.728 8.74942 191.821 9.60078C189.424 10.544 186.764 10.544 184.367 9.60078L184.386 9.5935Z" fill="#1C1836"/>
	<path d="M109.745 0H106.337C105.976 0 105.629 0.145088 105.373 0.403345C105.118 0.661603 104.974 1.01188 104.974 1.37711V2.07416V5.42828V10.1352C104.953 10.6559 104.826 11.1668 104.601 11.6357C104.376 12.1046 104.057 12.5215 103.665 12.8602C103.273 13.199 102.816 13.4524 102.323 13.6046C101.829 13.7567 101.31 13.8043 100.798 13.7443C99.8732 13.6204 99.0259 13.1589 98.4154 12.4469C97.805 11.735 97.4737 10.822 97.4842 9.88019V1.72685V1.37711C97.4842 1.01188 97.3406 0.661603 97.0849 0.403345C96.8292 0.145088 96.4824 0 96.1209 0H92.6993C92.5204 -2.82075e-07 92.3432 0.0356382 92.1779 0.104874C92.0127 0.17411 91.8625 0.275586 91.7361 0.403494C91.6097 0.531402 91.5095 0.683231 91.4413 0.850295C91.373 1.01736 91.3381 1.19638 91.3384 1.37711V2.07416C91.3384 2.11059 91.3384 2.14702 91.3384 2.18346V9.9822C91.3402 11.347 91.6188 12.697 92.1571 13.9489C92.6953 15.2007 93.4817 16.3279 94.4678 17.261C95.4539 18.194 96.6188 18.9131 97.8907 19.3739C99.1625 19.8347 100.514 20.0274 101.863 19.9401C102.929 19.8728 103.976 19.6265 104.962 19.2115V20.9116C104.962 20.931 104.582 22.9299 101.043 24.9118C100.743 25.0811 100.518 25.3588 100.412 25.6891C100.307 26.0195 100.33 26.3778 100.475 26.6921L101.93 29.8494C102.005 30.0147 102.113 30.1627 102.246 30.2845C102.38 30.4062 102.537 30.4992 102.707 30.5576C102.877 30.616 103.058 30.6387 103.237 30.6243C103.417 30.6098 103.591 30.5586 103.75 30.4736C110.879 26.6095 111.096 21.5042 111.096 20.9068V10.1522C111.096 10.0356 111.096 9.92148 111.096 9.80733V1.37711C111.096 1.01397 110.954 0.665526 110.701 0.407615C110.448 0.149703 110.104 0.00320227 109.745 0Z" fill="#1C1836"/>
</svg>