<svg width="465" height="383" viewBox="0 0 465 383" fill="none" xmlns="http://www.w3.org/2000/svg">
<path d="M217.915 0C226.61 0.0169816 235.304 0.0169816 243.999 0C244.016 19.7666 244.016 39.533 243.982 59.2998C256.848 49.5523 273.321 44.8483 289.292 46.4787C301.241 47.5483 312.839 52.0826 322.418 59.4186C336.101 69.6586 345.515 85.5872 348.018 102.671C349.653 114.252 348.602 126.309 344.345 137.211C337.904 154.38 324.085 168.457 307.281 175.148C294.365 180.344 279.829 181.21 266.41 177.593C246.436 172.414 229.43 156.995 221.987 137.449C220.018 132.643 219.317 127.413 217.114 122.709C212.158 111.467 202.095 102.45 190.213 99.6818C180.901 97.4742 170.888 99.1384 162.51 103.774C153.749 109.463 146.372 118.039 143.736 128.415C140.915 138.994 142.968 150.559 148.392 159.933C153.632 167.642 160.991 174.197 169.853 177.135C181.752 181.024 195.386 178.392 205.165 170.495C211.774 164.874 217.031 157.453 219.401 148.963C224.14 157.691 230.548 165.519 238.425 171.514C232.2 182.875 222.555 192.181 211.407 198.447C189.879 210.147 161.976 207.43 142.551 192.571C142.534 212.321 142.534 232.053 142.551 251.804C133.773 251.836 125.011 251.819 116.25 251.804C116.317 217.619 116.267 183.401 116.283 149.2C116.3 141.151 116.083 133 117.735 125.069C119.437 116.629 122.625 108.529 126.897 101.091C130.986 94.4856 136.91 89.3062 143.018 84.704C153.215 77.0285 165.664 72.3924 178.381 71.9509C193.517 70.9659 208.787 75.9926 220.852 85.2476C232.1 94.5874 241.346 107.103 244.667 121.69C247.136 132.949 254.58 143.019 264.677 148.368C274.404 153.768 286.42 154.583 296.784 150.627C307.264 146.789 315.859 138.145 319.88 127.582C324.018 117.122 323.469 104.81 318.295 94.8081C313.138 84.2966 303.16 76.3662 291.879 73.8189C282.567 71.6452 272.485 73.0717 264.16 77.8436C255.297 82.7342 248.555 91.242 245.484 100.972C239.076 89.493 229.48 79.8814 217.965 73.751C217.949 49.1787 217.982 24.5893 217.915 0Z" fill="#258AA6"/>
<path opacity="0.63" d="M188.883 161.48C201.302 157.047 207.838 143.209 203.482 130.571C199.126 117.934 185.526 111.283 173.107 115.716C160.688 120.149 154.152 133.987 158.508 146.625C162.865 159.262 176.464 165.913 188.883 161.48Z" fill="#74B9CF"/>
<path opacity="0.63" d="M284.62 137.849C297.751 136.962 307.691 125.411 306.821 112.047C305.948 98.6838 294.597 88.5696 281.464 89.4562C268.332 90.3428 258.392 101.895 259.262 115.258C260.135 128.621 271.486 138.735 284.62 137.849Z" fill="#74B9CF"/>
<g opacity="0.9">
<path opacity="0.9" fill-rule="evenodd" clip-rule="evenodd" d="M218.589 357.791C221.294 357.791 223.613 357.166 225.803 355.913C227.992 354.66 229.667 352.906 230.826 350.65C232.114 348.394 232.629 346.015 232.629 343.259C232.629 340.502 231.985 337.996 230.826 335.74C229.667 333.487 227.863 331.732 225.803 330.48C223.613 329.227 221.294 328.599 218.589 328.599C215.884 328.599 213.566 329.227 211.376 330.48C209.186 331.732 207.512 333.487 206.224 335.74C204.935 337.996 204.291 340.502 204.291 343.259C204.291 346.015 204.935 348.52 206.224 350.65C207.512 352.906 209.186 354.534 211.376 355.913C213.566 357.166 215.884 357.791 218.589 357.791ZM218.589 321.708C222.711 321.708 226.447 322.711 229.796 324.589C233.145 326.469 235.721 329.101 237.653 332.358C239.585 335.617 240.615 339.375 240.615 343.383V360.675C240.615 361.802 240.229 362.805 239.456 363.556C238.684 364.307 237.653 364.683 236.494 364.683C235.334 364.683 234.304 364.307 233.531 363.556C232.758 362.805 232.372 361.802 232.372 360.675V357.791C230.569 360.047 228.25 361.802 225.545 363.054C222.84 364.307 220.006 364.935 216.915 364.935C213.05 364.935 209.573 364.058 206.481 362.177C203.39 360.299 200.942 357.791 199.139 354.408C197.336 351.152 196.434 347.393 196.434 343.383C196.434 339.375 197.336 335.617 199.268 332.358C201.2 329.101 203.776 326.469 207.254 324.589C210.732 322.585 214.467 321.708 218.589 321.708ZM180.848 356.664C181.75 356.664 182.651 357.04 183.295 357.791C183.939 358.545 184.326 359.422 184.326 360.549C184.326 361.676 183.939 362.679 183.038 363.304C182.136 364.058 180.977 364.433 179.689 364.433H178.272C175.696 364.433 173.248 363.806 171.059 362.427C168.869 361.05 167.194 359.296 166.035 357.04C164.747 354.784 164.232 352.155 164.232 349.397V330.228H160.496C159.337 330.228 158.435 329.978 157.791 329.35C157.147 328.725 156.761 327.972 156.761 326.971C156.761 325.968 157.147 325.09 157.791 324.465C158.435 323.838 159.337 323.588 160.496 323.588H164.232V312.311C164.232 311.184 164.618 310.181 165.391 309.555C166.164 308.804 167.066 308.426 168.225 308.426C169.384 308.426 170.415 308.804 171.059 309.555C171.831 310.307 172.218 311.184 172.218 312.311V323.462H179.045C180.204 323.462 181.106 323.714 181.75 324.339C182.394 324.967 182.78 325.842 182.78 326.845C182.78 327.722 182.394 328.599 181.75 329.227C181.106 329.852 180.204 330.102 179.045 330.102H172.218V349.271C172.218 351.401 172.862 353.032 174.021 354.534C175.181 355.913 176.597 356.664 178.401 356.664H180.848ZM140.402 321.458C143.236 321.458 145.426 321.834 146.971 322.711C148.517 323.588 149.419 324.589 149.419 325.842C149.419 326.22 149.419 326.469 149.29 326.595C148.775 328.224 147.744 329.101 146.07 329.101C145.812 329.101 145.426 329.101 144.91 328.975C142.721 328.599 141.046 328.473 139.758 328.473C135.894 328.473 132.802 329.35 130.484 330.979C128.165 332.733 127.006 334.989 127.006 337.87V360.549C127.006 361.802 126.619 362.805 125.975 363.43C125.331 364.058 124.301 364.433 123.013 364.433C121.725 364.433 120.694 364.058 120.05 363.43C119.406 362.805 119.02 361.802 119.02 360.549V325.842C119.02 324.589 119.406 323.588 120.05 322.96C120.694 322.335 121.725 321.96 123.013 321.96C125.718 321.96 127.006 323.212 127.006 325.842V327.346C128.551 325.592 130.613 324.09 132.931 323.086C135.25 322.083 137.697 321.458 140.402 321.458ZM80.377 328.725C77.6718 328.725 75.2246 329.35 73.0347 330.603C70.845 331.856 69.1705 333.61 68.0112 335.866C66.723 338.122 66.2078 340.628 66.2078 343.383C66.2078 346.141 66.8519 348.646 68.0112 350.902C69.2993 353.156 70.9738 354.784 73.0347 356.039C75.2246 357.292 77.6718 357.917 80.377 357.917C83.0819 357.917 85.5293 357.292 87.719 356.039C89.9087 354.784 91.5832 353.032 92.7425 350.902C93.9018 348.646 94.5459 346.141 94.5459 343.383C94.5459 340.628 93.9018 338.122 92.7425 335.866C91.5832 333.61 89.9087 331.856 87.719 330.603C85.5293 329.227 83.2108 328.725 80.377 328.725ZM80.377 321.708C84.6275 321.708 88.3631 322.585 91.7121 324.465C95.0611 326.343 97.6374 328.849 99.5696 332.108C101.502 335.365 102.403 339.123 102.403 343.259C102.403 347.393 101.502 351.152 99.5696 354.408C97.7662 357.668 95.0611 360.173 91.841 362.051C88.6208 363.932 84.7564 364.809 80.5058 364.809C76.255 364.809 72.3909 363.932 69.0416 362.051C65.6926 360.173 62.9877 357.668 61.1844 354.408C59.381 351.152 58.3506 347.393 58.3506 343.259C58.3506 339 59.2521 335.365 61.1844 332.108C62.9877 328.849 65.6926 326.343 69.0416 324.465C72.3909 322.585 76.1262 321.708 80.377 321.708ZM22.0264 357.791C24.7314 357.791 27.0499 357.166 29.2396 355.913C31.4295 354.66 33.104 352.906 34.3919 350.65C35.6801 348.394 36.3242 346.015 36.3242 343.259C36.3242 340.502 35.6801 337.996 34.3919 335.74C33.104 333.487 31.4295 331.732 29.2396 330.48C27.0499 329.227 24.7314 328.599 22.0264 328.599C19.3214 328.599 17.0028 329.227 14.813 330.48C12.6233 331.732 10.9488 333.487 9.78949 335.74C8.50141 337.996 7.98618 340.502 7.98618 343.259C7.98618 346.015 8.6302 348.52 9.78949 350.65C11.0776 352.906 12.7521 354.534 14.813 355.913C16.874 357.166 19.3214 357.791 22.0264 357.791ZM22.0264 321.708C26.1483 321.708 29.8837 322.711 33.2327 324.589C36.5819 326.469 39.2868 329.101 41.219 332.358C43.151 335.617 44.0528 339.375 44.0528 343.383C44.0528 347.393 43.151 351.152 41.3476 354.408C39.5443 357.668 37.0971 360.299 34.0056 362.177C30.9141 364.058 27.4362 364.935 23.5721 364.935C20.4807 364.935 17.6468 364.307 14.9419 363.054C12.2369 361.802 10.0471 360.047 8.11497 357.791V378.841C8.11497 380.094 7.72855 380.971 6.95571 381.723C6.31166 382.35 5.28119 382.726 4.1219 382.726C2.96262 382.726 1.93214 382.35 1.15928 381.597C0.386427 380.845 0 379.968 0 378.715V343.259C0 339.249 1.03047 335.491 2.96262 332.231C4.89474 328.975 7.59973 326.343 10.82 324.465C14.169 322.585 17.9045 321.708 22.0264 321.708ZM442.331 325.968C438.208 325.968 434.73 327.346 431.767 329.978C428.935 332.733 427.261 336.242 426.744 340.628H457.788C457.402 336.242 455.856 332.733 453.021 329.978C450.189 327.346 446.709 325.968 442.331 325.968ZM442.331 321.584C446.195 321.584 449.672 322.459 452.764 324.213C455.856 325.968 458.173 328.473 459.976 331.606C461.651 334.74 462.554 338.372 462.554 342.382C462.554 343.007 462.297 343.635 461.911 344.011C461.522 344.386 460.879 344.636 460.236 344.636H426.744C426.872 347.643 427.775 350.401 429.192 352.78C430.738 355.162 432.67 357.04 435.247 358.419C437.694 359.798 440.528 360.423 443.62 360.423C445.68 360.423 447.741 360.047 449.93 359.422C451.992 358.668 453.667 357.791 454.953 356.664C455.47 356.289 455.984 356.039 456.628 356.039C457.273 356.039 457.659 356.163 458.045 356.538C458.69 357.04 458.948 357.542 458.948 358.169C458.948 358.668 458.69 359.17 458.173 359.672C456.499 361.174 454.181 362.427 451.475 363.43C448.772 364.433 446.066 364.935 443.62 364.935C439.368 364.935 435.633 364.058 432.413 362.177C429.193 360.299 426.615 357.791 424.683 354.534C422.88 351.278 421.849 347.519 421.849 343.383C421.849 339.123 422.752 335.491 424.426 332.108C426.101 328.849 428.547 326.22 431.639 324.465C434.73 322.711 438.337 321.584 442.331 321.584ZM391.837 321.458C398.535 321.458 403.687 323.838 407.036 328.473C407.295 328.849 407.553 329.227 407.553 329.852C407.553 330.603 407.167 331.231 406.264 331.606C405.75 331.856 405.361 331.856 405.104 331.856C404.332 331.856 403.687 331.48 403.044 330.855C400.338 327.472 396.474 325.842 391.579 325.842C388.359 325.842 385.784 326.469 383.853 327.848C381.918 329.227 381.018 330.979 381.018 332.985C381.018 335.115 381.918 336.743 383.721 337.996C385.527 339.249 388.616 340.126 392.997 340.751C398.663 341.505 402.658 343.007 405.233 345.137C407.681 347.267 408.97 349.899 408.97 352.906C408.97 355.286 408.196 357.416 406.65 359.17C405.104 360.924 403.044 362.427 400.338 363.43C397.763 364.433 394.928 364.935 391.837 364.935C388.745 364.935 385.784 364.433 382.821 363.304C379.858 362.303 377.412 360.675 375.609 358.419C375.22 358.043 375.092 357.542 375.092 357.04C375.092 356.289 375.478 355.661 376.123 355.286C376.38 355.036 376.895 354.91 377.54 354.91C378.312 354.91 378.958 355.162 379.344 355.787C382.047 358.92 386.299 360.549 392.225 360.549C396.474 360.549 399.566 359.798 401.498 358.419C403.558 356.914 404.461 355.162 404.461 352.78C404.461 348.646 400.338 346.015 392.225 344.888C387.07 344.134 383.207 342.758 380.501 340.751C377.926 338.747 376.509 336.242 376.509 333.487C376.509 329.726 377.926 326.719 380.761 324.715C383.593 322.585 387.33 321.458 391.837 321.458ZM338.253 360.675C341.602 360.675 344.565 359.921 347.14 358.419C349.846 356.914 351.906 354.784 353.452 352.155C354.998 349.523 355.772 346.516 355.772 343.259C355.772 340 354.998 336.993 353.452 334.361C351.906 331.732 349.846 329.602 347.14 328.098C344.436 326.595 341.473 325.842 338.253 325.842C334.904 325.842 331.941 326.595 329.366 328.098C326.66 329.602 324.6 331.732 323.054 334.361C321.508 336.993 320.734 340 320.734 343.259C320.734 346.516 321.508 349.523 323.054 352.155C324.6 354.784 326.66 356.914 329.366 358.419C331.941 359.921 334.904 360.675 338.253 360.675ZM338.253 321.458C342.374 321.458 346.239 322.459 349.588 324.339C352.937 326.22 355.641 328.849 357.575 332.108C359.507 335.365 360.536 339.123 360.536 343.259V362.177C360.536 362.805 360.279 363.43 359.893 363.806C359.507 364.181 358.861 364.433 358.09 364.433C357.446 364.433 356.801 364.181 356.415 363.806C355.901 363.304 355.772 362.805 355.772 362.177V356.163C353.966 358.92 351.649 361.05 348.557 362.679C345.465 364.307 342.116 365.058 338.253 365.058C334.001 365.058 330.266 364.058 326.789 362.177C323.44 360.299 320.734 357.668 318.802 354.408C316.87 351.152 315.839 347.393 315.839 343.383C315.839 339.249 316.87 335.617 318.802 332.231C320.734 328.975 323.44 326.343 326.789 324.465C330.266 322.459 334.001 321.458 338.253 321.458ZM279.386 360.675C276.037 360.675 273.076 359.921 270.499 358.419C267.924 356.914 265.733 354.784 264.187 352.155C262.641 349.523 261.869 346.516 261.869 343.259C261.869 340 262.641 336.993 264.187 334.361C265.733 331.732 267.795 329.602 270.499 328.098C273.205 326.595 276.168 325.842 279.386 325.842C282.737 325.842 285.698 326.595 288.275 328.098C290.979 329.602 293.041 331.732 294.587 334.361C296.133 336.993 296.905 340 296.905 343.259C296.905 346.516 296.133 349.523 294.587 352.155C293.041 354.784 290.979 356.914 288.275 358.419C285.698 359.798 282.737 360.675 279.386 360.675ZM259.552 303.791C258.777 303.791 258.263 304.043 257.746 304.418C257.36 304.794 257.103 305.421 257.103 306.173V343.509V343.635C257.103 347.643 258.134 351.278 260.195 354.534C262.126 357.791 264.832 360.299 268.181 362.177C271.53 364.058 275.265 364.935 279.386 364.935C283.638 364.935 287.372 363.932 290.85 362.051C294.199 360.173 296.905 357.542 298.837 354.285C300.768 351.026 301.8 347.267 301.8 343.133C301.8 339.123 300.768 335.365 298.837 332.108C296.905 328.849 294.199 326.22 290.85 324.339C287.501 322.459 283.638 321.458 279.386 321.458C275.651 321.458 272.173 322.209 269.082 323.838C265.99 325.466 263.672 327.596 261.869 330.354V306.173C261.869 305.421 261.612 304.92 261.226 304.418C260.838 304.043 260.195 303.791 259.552 303.791Z" fill="#A7AEAE"/>
</g>
</svg>
