<svg width="24" height="24" viewBox="0 0 24 24" fill="none" xmlns="http://www.w3.org/2000/svg">
	<g clip-path="url(#clip0_1884_23967)">
	<path d="M11.9674 2C6.46242 2 1.99463 6.48 1.99463 12C1.99463 17.52 6.46242 22 11.9674 22C17.4723 22 21.9401 17.52 21.9401 12C21.9401 6.48 17.4723 2 11.9674 2ZM9.26476 16.29L5.68455 12.7C5.29561 12.31 5.29561 11.68 5.68455 11.29C6.07348 10.9 6.70177 10.9 7.09071 11.29L9.97283 14.17L16.8341 7.29C17.223 6.9 17.8513 6.9 18.2402 7.29C18.6292 7.68 18.6292 8.31 18.2402 8.7L10.6709 16.29C10.292 16.68 9.6537 16.68 9.26476 16.29Z" fill="#5427E2"/>
	</g>
	<defs>
	<clipPath id="clip0_1884_23967">
	<rect width="23.9346" height="24" fill="white"/>
	</clipPath>
	</defs>
</svg>