<svg width="36" height="33" viewBox="0 0 36 33" fill="none" xmlns="http://www.w3.org/2000/svg">
<path d="M33.3001 11.08L23.6201 10.24L19.8401 1.34C19.1601 -0.28 16.8401 -0.28 16.1601 1.34L12.3801 10.26L2.72015 11.08C0.960145 11.22 0.240145 13.42 1.58015 14.58L8.92015 20.94L6.72015 30.38C6.32015 32.1 8.18014 33.46 9.70014 32.54L18.0001 27.54L26.3001 32.56C27.8201 33.48 29.6801 32.12 29.2801 30.4L27.0801 20.94L34.4201 14.58C35.7601 13.42 35.0601 11.22 33.3001 11.08ZM18.0001 23.8L10.4801 28.34L12.4801 19.78L5.84015 14.02L14.6001 13.26L18.0001 5.2L21.4201 13.28L30.1801 14.04L23.5401 19.8L25.5401 28.36L18.0001 23.8Z" fill="#5427E2"/>
</svg>