<svg width="39" height="39" viewBox="0 0 39 39" fill="none" xmlns="http://www.w3.org/2000/svg">
<circle cx="19.5" cy="19.5" r="19.5" fill="#ADFFD6"/>
<path d="M29.41 21.58L20.41 12.58C20.05 12.22 19.55 12 19 12H12C10.9 12 10 12.9 10 14V21C10 21.55 10.22 22.05 10.59 22.42L19.59 31.42C19.95 31.78 20.45 32 21 32C21.55 32 22.05 31.78 22.41 31.41L29.41 24.41C29.78 24.05 30 23.55 30 23C30 22.45 29.77 21.94 29.41 21.58ZM13.5 17C12.67 17 12 16.33 12 15.5C12 14.67 12.67 14 13.5 14C14.33 14 15 14.67 15 15.5C15 16.33 14.33 17 13.5 17Z" fill="#5427E2"/>
</svg>