<svg width="39" height="39" viewBox="0 0 39 39" fill="none" xmlns="http://www.w3.org/2000/svg">
<circle cx="19.5" cy="19.5" r="19.5" fill="#ADFFD6"/>
<path d="M27 10H12.99C11.89 10 11 10.9 11 12L11.01 26C11.01 27.1 11.9 28 13 28H23L29 22V12C29 10.9 28.1 10 27 10ZM16 15H24C24.55 15 25 15.45 25 16C25 16.55 24.55 17 24 17H16C15.45 17 15 16.55 15 16C15 15.45 15.45 15 16 15ZM19 21H16C15.45 21 15 20.55 15 20C15 19.45 15.45 19 16 19H19C19.55 19 20 19.45 20 20C20 20.55 19.55 21 19 21ZM22 26.5V22C22 21.45 22.45 21 23 21H27.5L22 26.5Z" fill="#5427E2"/>
</svg>