<svg width="39" height="39" viewBox="0 0 39 39" fill="none" xmlns="http://www.w3.org/2000/svg">
<circle cx="19.5" cy="19.5" r="19.5" fill="#ADFFD6"/>
<g clip-path="url(#clip0_1655_19077)">
<path d="M31 19L28.56 16.21L28.9 12.52L25.29 11.7L23.4 8.5L20 9.96L16.6 8.5L14.71 11.69L11.1 12.5L11.44 16.2L9 19L11.44 21.79L11.1 25.49L14.71 26.31L16.6 29.5L20 28.03L23.4 29.49L25.29 26.3L28.9 25.48L28.56 21.79L31 19ZM17.38 23.01L15 20.61C14.61 20.22 14.61 19.59 15 19.2L15.07 19.13C15.46 18.74 16.1 18.74 16.49 19.13L18.1 20.75L23.25 15.59C23.64 15.2 24.28 15.2 24.67 15.59L24.74 15.66C25.13 16.05 25.13 16.68 24.74 17.07L18.82 23.01C18.41 23.4 17.78 23.4 17.38 23.01Z" fill="#5427E2"/>
</g>
<defs>
<clipPath id="clip0_1655_19077">
<rect width="24" height="24" fill="white" transform="translate(8 7)"/>
</clipPath>
</defs>
</svg>