<svg width="39" height="39" viewBox="0 0 39 39" fill="none" xmlns="http://www.w3.org/2000/svg">
<circle cx="19.5" cy="19.5" r="19.5" fill="#ADFFD6"/>
<path d="M20.12 9.06L14.58 14.6C14.21 14.97 14 15.48 14 16.01V26C14 27.1 14.9 28 16 28H25C25.8 28 26.52 27.52 26.84 26.79L30.1 19.18C30.94 17.2 29.49 15 27.34 15H21.69L22.64 10.42C22.74 9.92 22.59 9.41 22.23 9.05C21.64 8.47 20.7 8.47 20.12 9.06ZM10 28C11.1 28 12 27.1 12 26V18C12 16.9 11.1 16 10 16C8.9 16 8 16.9 8 18V26C8 27.1 8.9 28 10 28Z" fill="#5427E2"/>
</svg>