<svg width="32" height="31" viewBox="0 0 32 31" fill="none" xmlns="http://www.w3.org/2000/svg">
	<g clip-path="url(#clip0_2089_23338)">
	<path d="M16.0001 2.56787C8.62675 2.56787 2.66675 8.30713 2.66675 15.4074C2.66675 22.5076 8.62675 28.2469 16.0001 28.2469C23.3734 28.2469 29.3334 22.5076 29.3334 15.4074C29.3334 8.30713 23.3734 2.56787 16.0001 2.56787ZM21.7334 20.9284C21.2134 21.4291 20.3734 21.4291 19.8534 20.9284L16.0001 17.2177L12.1467 20.9284C11.6267 21.4291 10.7867 21.4291 10.2667 20.9284C9.74675 20.4276 9.74675 19.6187 10.2667 19.118L14.1201 15.4074L10.2667 11.6968C9.74675 11.196 9.74675 10.3871 10.2667 9.88639C10.7867 9.38565 11.6267 9.38565 12.1467 9.88639L16.0001 13.597L19.8534 9.88639C20.3734 9.38565 21.2134 9.38565 21.7334 9.88639C22.2534 10.3871 22.2534 11.196 21.7334 11.6968L17.8801 15.4074L21.7334 19.118C22.2401 19.6059 22.2401 20.4276 21.7334 20.9284Z" fill="#5427E2"/>
	</g>
	<defs>
	<clipPath id="clip0_2089_23338">
	<rect width="32" height="30.8148" fill="white"/>
	</clipPath>
	</defs>
</svg>