<svg width="48" height="48" viewBox="0 0 48 48" fill="none" xmlns="http://www.w3.org/2000/svg">
<path d="M24 40C15.18 40 8 32.82 8 24C8 15.18 15.18 8 24 8C32.82 8 40 15.18 40 24C40 32.82 32.82 40 24 40ZM24 44C35.04 44 44 35.04 44 24C44 12.96 35.04 4 24 4C12.96 4 4 12.96 4 24C4 35.04 12.96 44 24 44ZM22 24V30C22 31.1 22.9 32 24 32C25.1 32 26 31.1 26 30V24H29.58C30.48 24 30.92 22.92 30.28 22.3L24.7 16.72C24.3 16.32 23.68 16.32 23.28 16.72L17.7 22.3C17.08 22.92 17.52 24 18.42 24H22Z" fill="#200D5D"/>
</svg>