<svg width="39" height="39" viewBox="0 0 39 39" fill="none" xmlns="http://www.w3.org/2000/svg">
<circle cx="19.5" cy="19.5" r="19.5" fill="#ADFFD6"/>
<path d="M30 13H25.82C25.93 12.69 26 12.35 26 12C26 10.34 24.66 9 23 9C21.95 9 21.04 9.54 20.5 10.35L20 11.02L19.5 10.34C18.96 9.54 18.05 9 17 9C15.34 9 14 10.34 14 12C14 12.35 14.07 12.69 14.18 13H10.01V28H30V13ZM23 11C23.55 11 24 11.45 24 12C24 12.55 23.55 13 23 13C22.45 13 22 12.55 22 12C22 11.45 22.45 11 23 11ZM17 11C17.55 11 18 11.45 18 12C18 12.55 17.55 13 17 13C16.45 13 16 12.55 16 12C16 11.45 16.45 11 17 11Z" fill="#5427E2"/>
</svg>