<svg width="20" height="20" viewBox="0 0 20 20" fill="none" xmlns="http://www.w3.org/2000/svg">
<path d="M12.5835 16.1417L13.4168 17.5917C12.6168 17.9583 11.7418 18.2 10.8335 18.2917V16.6083C11.4502 16.5333 12.0335 16.375 12.5835 16.1417ZM3.39183 10.8333H1.7085C1.80016 11.75 2.04183 12.6167 2.4085 13.4167L3.8585 12.5833C3.62516 12.0333 3.46683 11.45 3.39183 10.8333ZM12.5835 3.85833L13.4168 2.40833C12.6168 2.04167 11.7502 1.8 10.8335 1.70833V3.39167C11.4502 3.46667 12.0335 3.625 12.5835 3.85833ZM16.6085 9.16667H18.2918C18.2002 8.25 17.9585 7.38333 17.5918 6.58333L16.1418 7.41667C16.3752 7.96667 16.5335 8.55 16.6085 9.16667ZM7.41683 16.1417L6.5835 17.5917C7.3835 17.9583 8.2585 18.2 9.16683 18.2917V16.6083C8.55016 16.5333 7.96683 16.375 7.41683 16.1417ZM9.16683 3.39167V1.70833C8.25016 1.8 7.3835 2.04167 6.5835 2.40833L7.41683 3.85833C7.96683 3.625 8.55016 3.46667 9.16683 3.39167ZM15.3002 5.975L16.7502 5.13333C16.2252 4.40833 15.5835 3.76667 14.8585 3.24167L14.0168 4.69167C14.5085 5.06667 14.9335 5.49167 15.3002 5.975ZM3.8585 7.41667L2.4085 6.58333C2.04183 7.38333 1.80016 8.25 1.7085 9.16667H3.39183C3.46683 8.55 3.62516 7.96667 3.8585 7.41667ZM16.6085 10.8333C16.5335 11.45 16.3752 12.0333 16.1418 12.5833L17.5918 13.4167C17.9585 12.6167 18.2002 11.7417 18.2918 10.8333H16.6085ZM14.0252 15.3L14.8668 16.75C15.5918 16.225 16.2335 15.5833 16.7585 14.8583L15.3085 14.0167C14.9335 14.5083 14.5085 14.9333 14.0252 15.3ZM5.97516 4.7L5.14183 3.24167C4.4085 3.775 3.77516 4.40833 3.25016 5.14167L4.70016 5.98333C5.06683 5.49167 5.49183 5.06667 5.97516 4.7ZM4.70016 14.025L3.25016 14.8583C3.77516 15.5833 4.41683 16.225 5.14183 16.75L5.9835 15.3C5.49183 14.9333 5.06683 14.5083 4.70016 14.025ZM10.8335 5.83333H9.16683V10.3417L12.7418 13.9167L13.9168 12.7417L10.8335 9.65833V5.83333Z" fill="#8F90A6"/>
</svg>