<svg width="39" height="39" viewBox="0 0 39 39" fill="none" xmlns="http://www.w3.org/2000/svg">
<circle cx="19.5" cy="19.5" r="19.5" fill="#ADFFD6"/>
<path d="M14 17H11V14H9V17H6V19H9V22H11V19H14V17ZM24 18C25.66 18 26.99 16.66 26.99 15C26.99 13.34 25.66 12 24 12C23.68 12 23.37 12.05 23.09 12.14C23.66 12.95 23.99 13.93 23.99 15C23.99 16.07 23.65 17.04 23.09 17.86C23.37 17.95 23.68 18 24 18ZM19 18C20.66 18 21.99 16.66 21.99 15C21.99 13.34 20.66 12 19 12C17.34 12 16 13.34 16 15C16 16.66 17.34 18 19 18ZM25.62 20.16C26.45 20.89 27 21.82 27 23V25H30V23C30 21.46 27.63 20.51 25.62 20.16ZM19 20C17 20 13 21 13 23V25H25V23C25 21 21 20 19 20Z" fill="#5427E2"/>
</svg>