<svg width="48" height="48" viewBox="0 0 48 48" fill="none" xmlns="http://www.w3.org/2000/svg">
<mask id="mask0_1446_18918" style="mask-type:alpha" maskUnits="userSpaceOnUse" x="0" y="0" width="48" height="48">
<circle cx="24" cy="24" r="24" fill="#5427E2"/>
</mask>
<g mask="url(#mask0_1446_18918)">
<circle cx="24" cy="24" r="24" fill="#ADFFD6"/>
<g clip-path="url(#clip0_1446_18918)">
<path d="M11.8757 41.7962L10.7641 42.2365C10.4737 42.3516 10.3324 42.6743 10.4486 42.9575L12.6079 48.2227C12.7241 48.5058 13.0536 48.6422 13.344 48.5271L14.4556 48.0868C14.746 47.9718 14.8873 47.649 14.7711 47.3658L12.6118 42.1007C12.4957 41.8175 12.1661 41.6812 11.8757 41.7962Z" fill="#5747FF"/>
<path d="M13.2083 26.5583L4.81781 29.8816C4.64633 29.9495 4.56292 30.1401 4.6315 30.3074L9.71705 42.7074C9.78563 42.8746 9.98024 42.9551 10.1517 42.8872L18.5422 39.5639C18.7136 39.496 18.7971 39.3054 18.7285 39.1382L13.6429 26.7381C13.5743 26.5709 13.3797 26.4904 13.2083 26.5583Z" fill="#5747FF"/>
<path fill-rule="evenodd" clip-rule="evenodd" d="M44.7351 35.6395C40.3886 36.1929 36.0406 36.7338 31.6891 37.2615C27.3041 37.7939 22.9186 38.3127 18.5325 38.8189C16.9153 34.8525 15.2989 30.885 13.6816 26.9185C19.8045 19.3408 25.9263 11.7621 32.0482 4.18448C36.2772 14.6698 40.5061 25.1542 44.7341 35.6396L44.7351 35.6395Z" fill="#5747FF"/>
<path d="M44.8264 35.5998C46.1849 35.0617 44.3981 27.5835 40.8355 18.8967C37.2729 10.21 33.2835 3.60421 31.9249 4.1423C30.5664 4.6804 32.3532 12.1586 35.9158 20.8453C39.4784 29.5321 43.4678 36.1379 44.8264 35.5998Z" fill="#4019BB"/>
<path opacity="0.15" fill-rule="evenodd" clip-rule="evenodd" d="M14.9362 29.4675C14.4993 28.5714 14.0615 27.6763 13.6246 26.7802C19.5969 19.4704 25.5692 12.1595 31.5414 4.84868C31.5295 5.772 31.4615 6.66068 31.3473 7.51357C29.8501 18.6927 20.1284 26.1202 14.9362 29.4675Z" fill="#D6FFEB"/>
</g>
</g>
<defs>
<clipPath id="clip0_1446_18918">
<rect width="40" height="42" fill="white" transform="translate(2 7.57681) rotate(-6.57019)"/>
</clipPath>
</defs>
</svg>
