<svg width="20" height="20" viewBox="0 0 20 20" fill="none" xmlns="http://www.w3.org/2000/svg">
	<path d="M9.99999 1.66675C5.39999 1.66675 1.66666 5.40008 1.66666 10.0001C1.66666 14.6001 5.39999 18.3334 9.99999 18.3334C14.6 18.3334 18.3333 14.6001 18.3333 10.0001C18.3333 5.40008 14.6 1.66675 9.99999 1.66675ZM7.74166 13.5751L4.74999 10.5834C4.42499 10.2584 4.42499 9.73341 4.74999 9.40841C5.07499 9.08342 5.59999 9.08342 5.92499 9.40841L8.33332 11.8084L14.0667 6.07508C14.3917 5.75008 14.9167 5.75008 15.2417 6.07508C15.5667 6.40008 15.5667 6.92508 15.2417 7.25008L8.91666 13.5751C8.59999 13.9001 8.06666 13.9001 7.74166 13.5751Z" fill="#16A34A"/>
</svg>