<svg width="18" height="18" viewBox="0 0 18 18" fill="none" xmlns="http://www.w3.org/2000/svg">
<path fill-rule="evenodd" clip-rule="evenodd" d="M11 2C10.4477 2 10 2.44772 10 3C10 3.55228 10.4477 4 11 4C11.5523 4 12 3.55228 12 3C12 2.44772 11.5523 2 11 2ZM13.8293 2C13.4175 0.834808 12.3062 0 11 0C9.69378 0 8.58254 0.834808 8.17071 2H1C0.447715 2 0 2.44772 0 3C0 3.55228 0.447715 4 1 4H8.17071C8.58254 5.16519 9.69378 6 11 6C12.3062 6 13.4175 5.16519 13.8293 4H17C17.5523 4 18 3.55228 18 3C18 2.44772 17.5523 2 17 2H13.8293ZM5 8C4.44772 8 4 8.44771 4 9C4 9.55228 4.44772 10 5 10C5.55228 10 6 9.55228 6 9C6 8.44771 5.55228 8 5 8ZM5 6C6.30622 6 7.41746 6.83481 7.82929 8H17C17.5523 8 18 8.44771 18 9C18 9.55229 17.5523 10 17 10H7.82929C7.41746 11.1652 6.30622 12 5 12C3.69378 12 2.58254 11.1652 2.17071 10H1C0.447715 10 0 9.55229 0 9C0 8.44771 0.447715 8 1 8H2.17071C2.58254 6.83481 3.69378 6 5 6ZM13 15C13 14.4477 13.4477 14 14 14C14.5523 14 15 14.4477 15 15C15 15.5523 14.5523 16 14 16C13.4477 16 13 15.5523 13 15ZM16.8293 14C16.4175 12.8348 15.3062 12 14 12C12.6938 12 11.5825 12.8348 11.1707 14H1C0.447715 14 0 14.4477 0 15C0 15.5523 0.447715 16 1 16H11.1707C11.5825 17.1652 12.6938 18 14 18C15.3062 18 16.4175 17.1652 16.8293 16H17C17.5523 16 18 15.5523 18 15C18 14.4477 17.5523 14 17 14H16.8293Z" fill="#10062F"/>
</svg>
