<svg xmlns="http://www.w3.org/2000/svg" width="58" height="58" viewBox="0 0 58 58" fill="none">
	<g clip-path="url(#clip0_1796_15692)">
		<path d="M57.9788 51.6637V29C57.9724 25.0352 57.1544 21.1138 55.5752 17.4774C53.996 13.841 51.689 10.5667 48.7965 7.85627C45.904 5.14584 42.4873 3.05672 38.7569 1.71769C35.0264 0.378655 31.0614 -0.181926 27.1062 0.0705121C11.758 1.04423 6.23153e-06 14.1824 6.23153e-06 29.5292V54.0133C-0.000921082 54.5384 0.101655 55.0585 0.301868 55.5438C0.50208 56.0292 0.795999 56.4703 1.1668 56.8419C1.53761 57.2135 1.97802 57.5083 2.46284 57.7094C2.94766 57.9105 3.46736 58.0141 3.99222 58.0141H13.9939C15.0546 58.0141 16.0718 57.5926 16.8218 56.8423C17.5718 56.092 17.9932 55.0744 17.9932 54.0133V51.9883V29C17.9948 27.4482 18.3243 25.9144 18.9602 24.499C19.596 23.0836 20.5238 21.8187 21.6828 20.7873C22.8417 19.7559 24.2055 18.9812 25.6848 18.5142C27.164 18.0472 28.7253 17.8983 30.2661 18.0773C32.9775 18.4375 35.4632 19.7783 37.2539 21.8466C39.0446 23.9148 40.0163 26.5674 39.9857 29.3034V52.9902V54.0063C39.9857 55.0673 40.407 56.085 41.157 56.8352C41.907 57.5855 42.9243 58.007 43.9849 58.007H53.9796C55.0402 58.007 56.0575 57.5855 56.8075 56.8352C57.5575 56.085 57.9788 55.0673 57.9788 54.0063V51.9812C57.9788 51.8754 57.9788 51.7696 57.9788 51.6637Z" fill="#1C1836"></path>
	</g>
	<defs>
		<clipPath id="clip0_1796_15692">
	  		<rect width="58" height="58" fill="white"></rect>
		</clipPath>
	</defs>
</svg>