<svg width="212" height="195" viewBox="0 0 212 195" fill="none" xmlns="http://www.w3.org/2000/svg">
<g clip-path="url(#clip0_2283_24316)">
<path fill-rule="evenodd" clip-rule="evenodd" d="M139.943 10.4839L140.594 11.6721L141.783 12.3221L140.594 12.9721L139.943 14.1591L139.292 12.9721L138.102 12.3221L139.292 11.6721L139.943 10.4839Z" fill="#F7F6FB"/>
<path fill-rule="evenodd" clip-rule="evenodd" d="M189.515 2.79572L190.166 3.98389L191.356 4.6339L190.166 5.28274L189.515 6.47092L188.864 5.28274L187.675 4.6339L188.864 3.98389L189.515 2.79572Z" fill="#F7F6FB"/>
<path fill-rule="evenodd" clip-rule="evenodd" d="M14.5545 4.65952L15.2053 5.8477L16.395 6.49771L15.2053 7.14654L14.5545 8.33472L13.9036 7.14654L12.7139 6.49771L13.9036 5.8477L14.5545 4.65952Z" fill="#F7F6FB"/>
<path fill-rule="evenodd" clip-rule="evenodd" d="M36.3662 74.4359L37.0171 75.6241L38.2068 76.2741L37.0171 76.9241L36.3662 78.1111L35.7154 76.9241L34.5256 76.2741L35.7154 75.6241L36.3662 74.4359Z" fill="#F7F6FB"/>
<path fill-rule="evenodd" clip-rule="evenodd" d="M210.161 105.888L210.812 107.076L212.001 107.726L210.812 108.376L210.161 109.563L209.51 108.376L208.32 107.726L209.51 107.076L210.161 105.888Z" fill="#F7F6FB"/>
<path fill-rule="evenodd" clip-rule="evenodd" d="M206.661 55.0989L207.312 56.2871L208.502 56.9371L207.312 57.5871L206.661 58.7741L206.011 57.5871L204.821 56.9371L206.011 56.2871L206.661 55.0989Z" fill="#F7F6FB"/>
<path fill-rule="evenodd" clip-rule="evenodd" d="M10.5886 116.022L11.2395 117.21L12.4292 117.86L11.2395 118.51L10.5886 119.697L9.93778 118.51L8.74805 117.86L9.93778 117.21L10.5886 116.022Z" fill="#F7F6FB"/>
<path fill-rule="evenodd" clip-rule="evenodd" d="M155.923 51.9537L156.573 53.1419L157.763 53.7919L156.573 54.4419L155.923 55.6289L155.272 54.4419L154.082 53.7919L155.272 53.1419L155.923 51.9537Z" fill="#F7F6FB"/>
<path fill-rule="evenodd" clip-rule="evenodd" d="M76.8403 0L77.4912 1.18818L78.6798 1.83818L77.4912 2.48819L76.8403 3.6752L76.1895 2.48819L74.9998 1.83818L76.1895 1.18818L76.8403 0Z" fill="#F7F6FB"/>
<path d="M140.544 95.5599C140.301 95.5599 140.061 95.5122 139.837 95.4195C139.613 95.3268 139.41 95.191 139.239 95.0197C139.067 94.8485 138.931 94.6452 138.839 94.4215C138.746 94.1977 138.698 93.958 138.698 93.7159V56.9615H142.39V93.7135C142.39 93.9559 142.343 94.1959 142.25 94.4199C142.158 94.6439 142.022 94.8475 141.85 95.019C141.679 95.1905 141.475 95.3265 141.251 95.4193C141.027 95.5121 140.786 95.5599 140.544 95.5599Z" fill="#514C80"/>
<path d="M150.067 32.4163C152.994 32.4163 155.801 33.5775 157.871 35.6443C159.94 37.7111 161.103 40.5143 161.103 43.4373V54.4792C161.103 54.8054 161.039 55.1285 160.914 55.4299C160.789 55.7314 160.606 56.0053 160.375 56.236C160.144 56.4668 159.87 56.6498 159.568 56.7747C159.266 56.8996 158.943 56.9639 158.616 56.9639H123.458V32.4163H150.067Z" fill="#B4ADFF"/>
<path d="M161.103 46.5638V54.485C161.103 54.8112 161.039 55.1343 160.914 55.4358C160.789 55.7372 160.606 56.0111 160.375 56.2419C160.144 56.4726 159.87 56.6556 159.568 56.7805C159.266 56.9054 158.943 56.9697 158.616 56.9697H123.458V46.5696L161.103 46.5638Z" fill="#B4ADFF"/>
<path d="M134.494 56.9639H112.423V43.4373C112.423 40.5143 113.586 37.7111 115.655 35.6443C117.725 33.5775 120.532 32.4163 123.458 32.4163C126.385 32.4163 129.192 33.5775 131.261 35.6443C133.331 37.7111 134.494 40.5143 134.494 43.4373V56.9639Z" fill="#C7F3FA"/>
<path d="M132.801 56.9615V43.4372C132.815 42.2031 132.583 40.9784 132.12 39.8342C131.657 38.69 130.971 37.649 130.102 36.7713C129.233 35.8937 128.198 35.197 127.058 34.7215C125.917 34.246 124.693 34.0011 123.458 34.0011C122.222 34.0011 120.998 34.246 119.858 34.7215C118.717 35.197 117.683 35.8937 116.814 36.7713C115.945 37.649 115.259 38.69 114.795 39.8342C114.332 40.9784 114.1 42.2031 114.114 43.4372V56.9615H132.801Z" fill="#251E6B"/>
<path d="M109.804 54.9812H161.054C161.062 55.6429 161.071 56.305 161.08 56.9674H158.616H109.804C109.671 56.972 109.537 56.9496 109.413 56.9017C109.288 56.8538 109.174 56.7813 109.078 56.6885C108.982 56.5957 108.905 56.4846 108.853 56.3617C108.801 56.2388 108.774 56.1066 108.774 55.9731C108.774 55.8396 108.801 55.7075 108.853 55.5846C108.905 55.4617 108.982 55.3505 109.078 55.2578C109.174 55.165 109.288 55.0925 109.413 55.0446C109.537 54.9967 109.671 54.9743 109.804 54.9789V54.9812Z" fill="#4135BF"/>
<path d="M141.018 46.4776H142.145V24.2051C142.145 24.0559 142.086 23.9128 141.98 23.8072C141.874 23.7017 141.731 23.6424 141.582 23.6424C141.432 23.6424 141.289 23.7017 141.183 23.8072C141.078 23.9128 141.018 24.0559 141.018 24.2051V46.4776Z" fill="#6E67AD"/>
<path d="M141.586 43.9149C142.095 43.9137 142.593 44.0634 143.017 44.3449C143.441 44.6264 143.771 45.0272 143.967 45.4965C144.162 45.9657 144.214 46.4823 144.115 46.981C144.017 47.4796 143.772 47.9378 143.413 48.2976C143.053 48.6574 142.595 48.9026 142.096 49.0022C141.597 49.1018 141.08 49.0513 140.609 48.857C140.139 48.6628 139.737 48.3336 139.454 47.911C139.171 47.4885 139.02 46.9917 139.02 46.4834C139.02 45.8032 139.29 45.1508 139.771 44.6692C140.253 44.1877 140.905 43.9164 141.586 43.9149Z" fill="#C7F3FA"/>
<path d="M141.586 44.8328C141.913 44.8328 142.232 44.9295 142.504 45.1108C142.776 45.292 142.987 45.5496 143.112 45.851C143.237 46.1524 143.27 46.4841 143.206 46.8041C143.143 47.124 142.985 47.4179 142.754 47.6486C142.523 47.8793 142.229 48.0364 141.909 48.1C141.588 48.1637 141.256 48.131 140.954 48.0062C140.653 47.8813 140.395 47.6699 140.213 47.3987C140.032 47.1274 139.935 46.8085 139.935 46.4823C139.935 46.2657 139.978 46.0511 140.061 45.851C140.144 45.6509 140.265 45.4691 140.419 45.3159C140.572 45.1627 140.754 45.0412 140.954 44.9583C141.155 44.8754 141.37 44.8328 141.586 44.8328Z" fill="#6E67AD"/>
<path d="M142.15 24.6664C144.133 23.7962 145.59 23.8509 146.524 24.0362C148.569 24.4474 149.636 25.8068 151.269 25.441C152.155 25.2418 152.768 24.6314 153.114 24.2121C153.144 26.2312 153.173 28.2503 153.203 30.2694C152.846 30.7354 152.195 31.4448 151.269 31.5857C149.296 31.8851 148.148 29.3084 145.733 29.129C144.966 29.0719 143.758 29.2338 142.177 30.5373C142.167 28.5834 142.158 26.6265 142.15 24.6664Z" fill="#ECEBFF"/>
<path d="M99.4179 50.858L115.512 45.0934L112.107 35.6098L96.0122 41.3744L99.4179 50.858Z" fill="#FDF0DC"/>
<path d="M99.3987 50.8739L105.237 41.8414L115.493 45.1089L99.3987 50.8739Z" fill="#FCE6C5"/>
<path d="M112.092 35.6256L106.815 43.7902C106.654 44.0394 106.415 44.2287 106.135 44.3287C105.856 44.4287 105.551 44.434 105.268 44.3435L95.9951 41.3906L112.092 35.6256Z" fill="#DFD6C9"/>
<path d="M112.068 35.7456L102.798 32.7926C102.515 32.7025 102.21 32.708 101.93 32.8082C101.651 32.9084 101.412 33.0978 101.251 33.3471L95.9741 41.5117L112.068 35.7456Z" fill="#FEF6EA"/>
<path d="M117.548 49.7405L129.885 51.6171L130.994 44.3482L118.656 42.4716L117.548 49.7405Z" fill="#FDF0DC"/>
<path d="M117.54 49.7416L124.427 45.9662L129.877 51.6182L117.54 49.7416Z" fill="#FCE6C5"/>
<path d="M130.987 44.3494L124.762 47.7625C124.572 47.8666 124.353 47.9053 124.138 47.8727C123.924 47.84 123.726 47.7379 123.576 47.5819L118.65 42.4728L130.987 44.3494Z" fill="#FDF3E3"/>
<path d="M104.958 25.2662L93.8547 28.7679C93.3015 28.9423 92.9947 29.5317 93.1694 30.0842L96.2802 39.9222C96.4549 40.4747 97.045 40.7811 97.5982 40.6067L108.701 37.105C109.254 36.9305 109.561 36.3412 109.387 35.7887L106.276 25.9507C106.101 25.3982 105.511 25.0917 104.958 25.2662Z" fill="#F6F6F6"/>
<path d="M106.026 195C137.591 195 163.18 169.445 163.18 137.921C163.18 106.397 137.591 80.8416 106.026 80.8416C74.461 80.8416 48.8723 106.397 48.8723 137.921C48.8723 169.445 74.461 195 106.026 195Z" fill="#DDE4E2"/>
<path d="M88.3552 85.168C88.2778 85.1679 88.202 85.1468 88.1358 85.1069C88.0696 85.067 88.0156 85.0098 87.9796 84.9414C87.9436 84.8731 87.9269 84.7962 87.9314 84.7192C87.936 84.6421 87.9615 84.5676 88.0052 84.504C88.291 84.0881 89.1903 82.5796 88.7576 80.6424C88.291 78.5666 86.623 77.566 86.2918 77.3866C86.1968 77.3308 86.1272 77.2403 86.0977 77.1343C86.0683 77.0282 86.0813 76.9149 86.134 76.8182C86.1867 76.7215 86.275 76.6491 86.3802 76.6163C86.4854 76.5834 86.5992 76.5927 86.6977 76.6422C87.2412 76.9381 89.0562 78.0855 89.5857 80.4584C90.0931 82.7287 89.0399 84.4958 88.7051 84.9839C88.6663 85.0409 88.6141 85.0874 88.5531 85.1195C88.4921 85.1516 88.4241 85.1682 88.3552 85.168Z" fill="#1D1D1B"/>
<path d="M69.5761 94.3705H69.561C69.4486 94.366 69.3425 94.3173 69.2658 94.2351C69.1892 94.1528 69.1481 94.0437 69.1516 93.9314C69.1586 93.7485 69.2682 90.7862 69.3849 87.641C69.4793 85.1261 69.7569 77.6895 69.8514 75.1768C69.8536 75.1211 69.8667 75.0664 69.89 75.0158C69.9133 74.9652 69.9464 74.9196 69.9873 74.8817C70.0283 74.8439 70.0763 74.8144 70.1286 74.7951C70.1809 74.7758 70.2366 74.767 70.2923 74.7691C70.3481 74.7712 70.4029 74.7843 70.4536 74.8076C70.5042 74.8309 70.5498 74.8639 70.5877 74.9048C70.6257 74.9457 70.6551 74.9936 70.6745 75.0459C70.6938 75.0982 70.7027 75.1537 70.7006 75.2094C70.6049 77.7232 70.3273 85.1587 70.234 87.6736C70.1174 90.8188 70.0065 93.7823 70.0007 93.964C69.9959 94.0733 69.9491 94.1766 69.87 94.2523C69.791 94.328 69.6857 94.3703 69.5761 94.3705Z" fill="#1D1D1B"/>
<path d="M99.7335 63.6258C99.6387 63.6256 99.5467 63.5936 99.4722 63.535C95.639 60.526 92.9631 56.2879 91.8964 51.5367C91.8827 51.4818 91.8801 51.4248 91.8888 51.369C91.8975 51.3131 91.9172 51.2596 91.9469 51.2115C91.9766 51.1634 92.0156 51.1217 92.0616 51.0888C92.1077 51.056 92.1598 51.0327 92.215 51.0203C92.2702 51.0078 92.3273 51.0066 92.383 51.0165C92.4387 51.0264 92.4919 51.0474 92.5394 51.0782C92.5868 51.1089 92.6277 51.1488 92.6595 51.1955C92.6913 51.2423 92.7134 51.2949 92.7246 51.3503C93.7497 55.9097 96.3184 59.9763 99.9971 62.864C100.067 62.9186 100.117 62.9934 100.142 63.0781C100.167 63.1628 100.165 63.2531 100.136 63.3364C100.106 63.4197 100.052 63.492 99.9801 63.543C99.9081 63.594 99.8219 63.6214 99.7335 63.6212V63.6258Z" fill="#1D1D1B"/>
<path d="M79.3294 23.9954H78.0814C70.4214 23.9954 64.2117 30.197 64.2117 37.847V65.7494C64.2117 73.3994 70.4214 79.601 78.0814 79.601H79.3294C86.9895 79.601 93.1992 73.3994 93.1992 65.7494V37.847C93.1992 30.197 86.9895 23.9954 79.3294 23.9954Z" fill="#ADFFE2"/>
<path d="M81.989 49.4993C81.3412 49.4896 80.7094 49.2972 80.1665 48.9444C79.6235 48.5915 79.1914 48.0926 78.9202 47.5051C78.8752 47.4041 78.8715 47.2895 78.9099 47.1858C78.9482 47.0822 79.0256 46.9975 79.1255 46.95C79.2254 46.9025 79.34 46.8958 79.4448 46.9313C79.5495 46.9669 79.6363 47.0419 79.6865 47.1404C80.1647 48.1446 81.1865 48.7468 82.2304 48.6385C83.5566 48.501 84.1806 47.2721 84.2133 47.2197C84.2369 47.1679 84.2707 47.1215 84.3126 47.0831C84.3546 47.0446 84.4038 47.0151 84.4574 46.996C84.511 46.977 84.5679 46.9689 84.6248 46.9722C84.6816 46.9756 84.7371 46.9904 84.7881 47.0156C84.8391 47.0408 84.8845 47.076 84.9216 47.1191C84.9587 47.1622 84.9867 47.2123 85.0041 47.2664C85.0214 47.3206 85.0276 47.3776 85.0224 47.4342C85.0172 47.4908 85.0007 47.5458 84.9738 47.5959C84.9388 47.6646 84.1107 49.2966 82.3237 49.4819C82.2125 49.4937 82.1008 49.4995 81.989 49.4993Z" fill="#1D1D1B"/>
<path d="M66.2704 65.4139H66.2412C66.129 65.4065 66.0242 65.3548 65.9501 65.2702C65.876 65.1857 65.8385 65.0752 65.8458 64.9631C66.1337 60.6804 65.7918 56.3786 64.831 52.1949C64.8104 52.0871 64.8324 51.9755 64.8925 51.8836C64.9525 51.7917 65.0459 51.7266 65.1529 51.7021C65.26 51.6775 65.3725 51.6953 65.4667 51.7518C65.5608 51.8083 65.6294 51.899 65.658 52.005C66.6381 56.2691 66.9867 60.6538 66.6926 65.019C66.6855 65.1261 66.638 65.2264 66.5596 65.2997C66.4812 65.373 66.3778 65.4139 66.2704 65.4139Z" fill="#1D1D1B"/>
<path d="M87.2845 45.3442C89.4966 45.3442 91.2899 43.5532 91.2899 41.344C91.2899 39.1347 89.4966 37.3438 87.2845 37.3438C85.0724 37.3438 83.2791 39.1347 83.2791 41.344C83.2791 43.5532 85.0724 45.3442 87.2845 45.3442Z" fill="#F7F6FB"/>
<path d="M87.8909 45.3768C89.8112 45.3768 91.3679 43.8221 91.3679 41.9043C91.3679 39.9865 89.8112 38.4318 87.8909 38.4318C85.9705 38.4318 84.4138 39.9865 84.4138 41.9043C84.4138 43.8221 85.9705 45.3768 87.8909 45.3768Z" fill="#1C1836"/>
<g opacity="0.45">
<path opacity="0.45" d="M88.9512 44.8258C90.0367 44.8258 90.9166 43.947 90.9166 42.863C90.9166 41.7789 90.0367 40.9002 88.9512 40.9002C87.8658 40.9002 86.9858 41.7789 86.9858 42.863C86.9858 43.947 87.8658 44.8258 88.9512 44.8258Z" fill="white"/>
</g>
<path d="M76.8277 45.3442C79.0398 45.3442 80.8331 43.5532 80.8331 41.344C80.8331 39.1347 79.0398 37.3438 76.8277 37.3438C74.6156 37.3438 72.8223 39.1347 72.8223 41.344C72.8223 43.5532 74.6156 45.3442 76.8277 45.3442Z" fill="#F7F6FB"/>
<path d="M77.3467 45.3768C79.267 45.3768 80.8237 43.8221 80.8237 41.9043C80.8237 39.9865 79.267 38.4318 77.3467 38.4318C75.4264 38.4318 73.8696 39.9865 73.8696 41.9043C73.8696 43.8221 75.4264 45.3768 77.3467 45.3768Z" fill="#1C1836"/>
<g opacity="0.45">
<path opacity="0.45" d="M78.6695 44.6499C79.755 44.6499 80.6349 43.7711 80.6349 42.6871C80.6349 41.603 79.755 40.7243 78.6695 40.7243C77.584 40.7243 76.7041 41.603 76.7041 42.6871C76.7041 43.7711 77.584 44.6499 78.6695 44.6499Z" fill="white"/>
</g>
<g opacity="0.15">
<path opacity="0.15" d="M78.0326 54.9813C88.6617 54.9813 97.2783 46.3759 97.2783 35.7607C97.2783 25.1455 88.6617 16.5402 78.0326 16.5402C67.4035 16.5402 58.7869 25.1455 58.7869 35.7607C58.7869 46.3759 67.4035 54.9813 78.0326 54.9813Z" fill="#F6F6F6"/>
</g>
<path d="M55.4766 145.988C57.721 145.988 59.5404 144.171 59.5404 141.929C59.5404 139.688 57.721 137.871 55.4766 137.871C53.2322 137.871 51.4128 139.688 51.4128 141.929C51.4128 144.171 53.2322 145.988 55.4766 145.988Z" fill="#A6ABAA"/>
<path d="M86.8738 118.895C91.3631 118.895 95.0025 115.26 95.0025 110.777C95.0025 106.293 91.3631 102.659 86.8738 102.659C82.3845 102.659 78.7451 106.293 78.7451 110.777C78.7451 115.26 82.3845 118.895 86.8738 118.895Z" fill="#A6ABAA"/>
<path d="M136.661 110.777C141.15 110.777 144.789 107.142 144.789 102.659C144.789 98.1752 141.15 94.5406 136.661 94.5406C132.171 94.5406 128.532 98.1752 128.532 102.659C128.532 107.142 132.171 110.777 136.661 110.777Z" fill="#A6ABAA"/>
<path d="M149.565 153.396C154.054 153.396 157.693 149.762 157.693 145.278C157.693 140.795 154.054 137.16 149.565 137.16C145.075 137.16 141.436 140.795 141.436 145.278C141.436 149.762 145.075 153.396 149.565 153.396Z" fill="#A6ABAA"/>
<path d="M101.505 180.286C105.995 180.286 109.634 176.652 109.634 172.168C109.634 167.685 105.995 164.05 101.505 164.05C97.0158 164.05 93.3765 167.685 93.3765 172.168C93.3765 176.652 97.0158 180.286 101.505 180.286Z" fill="#A6ABAA"/>
<g opacity="0.18">
<path opacity="0.18" d="M15.8631 53.2339C24.6241 53.2339 31.7262 46.1411 31.7262 37.3915C31.7262 28.642 24.6241 21.5491 15.8631 21.5491C7.10216 21.5491 0 28.642 0 37.3915C0 46.1411 7.10216 53.2339 15.8631 53.2339Z" fill="#DDE4E2"/>
</g>
<g opacity="0.18">
<path opacity="0.18" d="M1.83348 39.6316C2.45641 39.6316 2.96139 39.1273 2.96139 38.5052C2.96139 37.883 2.45641 37.3787 1.83348 37.3787C1.21055 37.3787 0.705566 37.883 0.705566 38.5052C0.705566 39.1273 1.21055 39.6316 1.83348 39.6316Z" fill="#A6ABAA"/>
</g>
<g opacity="0.18">
<path opacity="0.18" d="M10.5466 32.1111C11.7925 32.1111 12.8024 31.1025 12.8024 29.8582C12.8024 28.614 11.7925 27.6054 10.5466 27.6054C9.30074 27.6054 8.29077 28.614 8.29077 29.8582C8.29077 31.1025 9.30074 32.1111 10.5466 32.1111Z" fill="#A6ABAA"/>
</g>
<g opacity="0.18">
<path opacity="0.18" d="M24.3662 29.8582C25.612 29.8582 26.622 28.8496 26.622 27.6054C26.622 26.3611 25.612 25.3525 24.3662 25.3525C23.1203 25.3525 22.1104 26.3611 22.1104 27.6054C22.1104 28.8496 23.1203 29.8582 24.3662 29.8582Z" fill="#A6ABAA"/>
</g>
<g opacity="0.18">
<path opacity="0.18" d="M27.947 41.6864C29.1929 41.6864 30.2028 40.6778 30.2028 39.4336C30.2028 38.1893 29.1929 37.1807 27.947 37.1807C26.7011 37.1807 25.6912 38.1893 25.6912 39.4336C25.6912 40.6778 26.7011 41.6864 27.947 41.6864Z" fill="#A6ABAA"/>
</g>
<g opacity="0.18">
<path opacity="0.18" d="M14.6081 49.1498C15.854 49.1498 16.864 48.1412 16.864 46.897C16.864 45.6527 15.854 44.6441 14.6081 44.6441C13.3623 44.6441 12.3523 45.6527 12.3523 46.897C12.3523 48.1412 13.3623 49.1498 14.6081 49.1498Z" fill="#A6ABAA"/>
</g>
</g>
<defs>
<clipPath id="clip0_2283_24316">
<rect width="212" height="195" fill="white"/>
</clipPath>
</defs>
</svg>