<svg xmlns="http://www.w3.org/2000/svg" width="285" height="275" viewBox="0 0 285 275" fill="none">
	<g clip-path="url(#clip0_1975_17451)">
		<path fill-rule="evenodd" clip-rule="evenodd" d="M60.3438 210.489C60.3438 210.489 65.0198 213.749 65.2606 217.958C65.5015 222.167 67.3735 232.445 67.3735 232.445C67.3735 232.445 61.0507 236.878 56.126 235.715L52.6013 213.759C52.6013 213.759 60.5768 210.725 60.3438 210.489Z" fill="#F7BC91"></path>
		<path fill-rule="evenodd" clip-rule="evenodd" d="M54.2401 233.376C54.2401 233.376 54.4732 233.39 57.99 234.316C61.0858 235.134 64.5379 233.821 65.6502 230.65C66.1182 229.017 67.2167 228.18 68.0939 230.065C69.6761 233.44 68.556 242.437 64.9922 244.724C62.055 246.613 55.932 246.285 54.0052 244.585C51.908 242.724 51.6671 236.18 54.2401 233.376Z" fill="#906368"></path>
		<path fill-rule="evenodd" clip-rule="evenodd" d="M42.5266 233.376C42.5266 233.376 39.0176 242.954 37.3728 245.522C37.3728 245.522 45.5793 254.167 53.077 245.058L54.949 234.783L42.5266 233.376Z" fill="#F7BC91"></path>
		<path fill-rule="evenodd" clip-rule="evenodd" d="M40.88 42.5469C40.88 42.5469 37.5962 39.5031 37.5962 34.5998C37.5962 29.6965 39.4799 24.7991 43.9249 22.4616C49.1824 19.7027 54.6104 19.2735 58.6324 21.7319C61.5265 23.4997 62.6974 26.1591 63.6491 28.2468C65.8422 33.0642 66.9505 40.7089 63.2438 44.2912C61.7438 45.7409 60.7256 45.298 59.3275 46.8277C56.921 49.4618 57.2636 53.7094 57.994 57.0245L40.88 42.5469Z" fill="#8E644B"></path>
		<path fill-rule="evenodd" clip-rule="evenodd" d="M46.0316 51.655C46.0316 51.655 37.5921 50.0258 33.8442 53.9964C30.0964 57.967 24.6998 67.7754 20.482 77.582C16.2641 87.3885 8.05958 109.581 5.01273 117.058C1.96588 124.535 -2.49278 132.009 1.7309 139.014C5.95459 146.019 12.0503 153.492 12.0503 159.333C12.0503 165.175 14.3824 166.104 17.9031 165.87C21.4238 165.636 19.5479 177.087 29.8594 178.486L46.0316 51.655Z" fill="#5747FF"></path>
		<path fill-rule="evenodd" clip-rule="evenodd" d="M27.0535 125.003C25.0268 145.014 26.2585 161.685 28.8824 182.683C29.6206 188.566 30.6897 191.011 32.4481 193.206C35.26 196.704 43.9424 207.917 46.5153 211.187C49.0883 214.458 53.077 221.456 53.077 221.456L61.0447 214.218C62.4819 213.145 63.5472 211.498 62.5485 209.761C60.8038 206.674 50.0302 188.058 50.0302 188.058L46.7503 130.142C46.7503 130.142 27.0535 124.07 27.0535 125.003Z" fill="#1C1836"></path>
		<path fill-rule="evenodd" clip-rule="evenodd" d="M36.9833 243.362C38.2737 241.901 39.2293 242.125 39.805 243.729C41.7631 249.192 49.0082 245.485 51.8749 243.087C53.8506 241.44 54.7572 241.916 54.7572 244.406C54.7572 247.479 53.7782 254.515 50.2653 255.332C47.287 256.031 38.4206 256.257 35.1603 255.689C29.4425 254.647 34.6453 246.004 36.9833 243.362Z" fill="#906368"></path>
		<path fill-rule="evenodd" clip-rule="evenodd" d="M42.0567 236.414C44.148 237.161 52.6032 238.283 52.6032 238.283C52.6032 238.283 55.7714 239.132 56.5997 235.942C60.5414 220.787 59.1727 203.847 57.0893 189.969C55.3269 178.191 60.6981 170.705 62.6876 164.001C64.7847 156.976 68.5424 144.85 68.3093 135.274C68.0763 125.697 63.3886 116.121 63.3886 116.121L38.3088 125.935C38.3088 125.935 40.1867 132.946 41.3557 139.486C42.5247 146.026 41.8296 150.7 40.8877 161.907C39.9458 173.114 39.2448 183.399 41.3557 190.17C43.447 196.88 43.4528 224.428 40.9523 233.353C40.5979 234.652 40.7173 235.932 42.0567 236.414Z" fill="#1C1836"></path>
		<path fill-rule="evenodd" clip-rule="evenodd" d="M99.4731 137.141C99.4731 137.141 103.977 138.702 106.787 138.993C109.622 138.993 110.386 141.603 111.427 143.675C112.602 146.017 112.951 149.139 112.951 151.48C112.951 153.821 112.252 154.992 110.137 154.992C107.36 154.992 104.596 154.046 103.158 151.601C101.903 149.603 97.0137 146.587 97.0137 146.587C97.0137 146.587 99.3576 137.008 99.4731 137.141Z" fill="#F7BC91"></path>
		<path fill-rule="evenodd" clip-rule="evenodd" d="M39.9458 57.7289C39.9458 57.7289 43.4704 57.5045 44.1695 50.7242L59.5271 43.8328C59.2921 49.4306 57.2929 57.6021 65.7344 58.0762C65.7344 58.0762 60.1145 74.544 53.312 75.0103C46.5095 75.4766 40.6468 67.3149 39.9458 57.7289Z" fill="#EDB180"></path>
		<path fill-rule="evenodd" clip-rule="evenodd" d="M40.3766 35.6125C40.3551 36.3774 40.2219 38.0281 40.2141 38.2134C40.1064 40.787 40.0535 42.0748 40.3374 43.5108C40.6527 45.1049 41.2362 46.182 41.904 47.4131C43.6173 50.574 44.8411 52.8413 47.1909 53.4617C49.6875 54.1232 52.1137 52.5681 53.4569 51.7057C55.3172 50.5116 56.5292 48.9389 57.4437 47.7507C57.9646 47.0736 58.6597 46.2249 59.1864 45.0991C60.003 43.343 60.3613 41.2202 60.3613 37.913C60.3501 35.9763 59.9233 34.0644 59.1093 32.3056C58.2954 30.5469 57.1132 28.9821 55.6422 27.7162C53.6645 26.0226 51.4949 25.3007 49.433 25.3436C44.7276 25.447 40.5489 29.6303 40.3766 35.6125Z" fill="#F7BC91"></path>
		<path fill-rule="evenodd" clip-rule="evenodd" d="M24.4767 128.033C27.2905 128.971 38.5517 131.075 46.9952 127.1C55.4386 123.126 62.2177 124.3 69.9582 129.67L64.5714 63.0965C56.7623 69.0982 43.1964 70.0114 41.8571 57.243C41.5026 53.926 38.1366 56.285 37.2437 59.0732C34.6981 66.991 34.3065 71.4903 29.0861 78.495C26.7187 81.6656 25.1875 85.0255 26.5699 90.0556C29.8713 102.088 26.3859 114.962 22.9415 122.117C21.7451 124.548 21.6531 127.094 24.4767 128.033Z" fill="#A198FF"></path>
		<path fill-rule="evenodd" clip-rule="evenodd" d="M69.9739 157.558C68.5562 152.797 68.7638 142.034 68.0686 133.637C67.1327 122.431 60.0403 97.468 59.635 83.6519C59.2786 71.584 60.4339 62.2984 61.0507 59.2819C61.3718 57.721 61.9573 56.2381 64.3795 56.441C70.8414 56.9874 77.922 60.4409 80.1836 66.8739C83.4067 76.0209 92.8331 89.679 93.9689 102.693C95.0028 114.607 97.1136 122.817 100.382 132.776C101.678 136.71 101.672 137.051 100.928 140.581C100.254 143.769 100.65 146.67 100.439 149.976C99.8785 158.627 92.9976 157.244 89.6512 151.46C88.5683 149.593 88.1708 147.363 87.3837 145.338C85.4412 140.341 80.9218 142.259 79.0498 146.079C77.7027 148.84 77.219 152.59 76.5904 155.175C75.7073 158.793 71.5482 162.861 69.9739 157.558Z" fill="#5747FF"></path>
		<path fill-rule="evenodd" clip-rule="evenodd" d="M126.84 238.463C126.84 238.463 127.216 236.053 126.615 231.548C126.014 227.043 125.863 220.508 125.863 220.508L135.653 219.08C135.653 219.08 134.829 228.014 133.772 231.548C132.714 235.081 132.264 241.914 132.264 241.914L126.84 238.463Z" fill="#F7BC91"></path>
		<path fill-rule="evenodd" clip-rule="evenodd" d="M149.764 221.095C149.764 221.095 152.625 225.452 154.134 227.405C155.644 229.359 156.245 234.318 156.245 234.318L162.425 232.367C162.425 232.367 161.373 223.655 159.864 219.599L149.764 221.095Z" fill="#F7BC91"></path>
		<path fill-rule="evenodd" clip-rule="evenodd" d="M125.894 222.504C128.109 221.878 131.534 221.095 134.839 223.199C138.602 225.603 150.138 225.376 151.875 223.349C153.612 221.322 161.665 223.499 162.578 221.095C163.439 218.817 164.021 218.169 165.623 218.612C168.401 219.38 167.728 214.852 167.101 213.433C166.046 211.031 162.276 205.326 160.015 201.568C156.378 195.52 158.573 192.38 151.571 190.447L132.272 190.146C132.272 190.146 126.84 191.953 123.979 201.416C121.281 210.333 122.201 215.252 122.44 219.058C122.579 221.402 123.016 223.318 125.894 222.504Z" fill="#DAD6FF"></path>
		<path fill-rule="evenodd" clip-rule="evenodd" d="M135.095 158.596C129.434 151.976 116.589 147.474 112.9 144.079C111.459 142.749 109.103 143.806 107.59 142.795C106.076 141.785 105.579 142.302 105.218 143.457C104.858 144.612 105.894 146.161 107.441 147.554C108.988 148.947 109.497 149.086 111.539 149.246C113.581 149.406 118.953 153.447 122.597 156.028C126.047 158.467 128.804 161.55 132.131 162.699C134.257 163.46 137.216 161.074 135.095 158.596Z" fill="#F7BC91"></path>
		<path fill-rule="evenodd" clip-rule="evenodd" d="M136.341 160.102C136.341 160.102 138.156 158.754 138.61 156.951C139.064 155.148 145.426 152.516 145.426 152.516C145.426 152.516 143.809 159.121 149.648 159.427C149.648 159.427 147.345 165.962 142.223 166.256C137.1 166.551 135.289 164.161 136.341 160.102Z" fill="#E6A87C"></path>
		<path fill-rule="evenodd" clip-rule="evenodd" d="M132.162 192.579C134.381 193.313 140.778 196.893 144.639 195.262C148.556 193.613 150.864 193.613 152.315 193.032C153.21 192.671 153.723 192.222 153.944 191.682C154.336 190.733 153.79 189.697 153.643 189.393C152.296 186.585 152.762 179.301 153.322 170.533C153.322 170.533 153.478 168.09 152.464 162.375C152.312 161.839 152.116 161.317 151.877 160.814C151.176 159.277 149.21 157.858 148.156 160.139C146.55 163.581 145.415 164.237 141.332 164.237C138.003 164.237 137.416 163.261 137.711 160.557C137.999 157.991 135.166 157.46 133.327 159.078C130.733 161.294 128.606 165.126 130.173 168.519C132.327 173.177 131.49 184.236 130.609 189.379C130.361 190.8 130.421 192.041 132.162 192.579Z" fill="#A198FF"></path>
		<path fill-rule="evenodd" clip-rule="evenodd" d="M151.559 158.434C152.948 157.296 153.768 157.702 156.455 156.483C157.688 155.923 158.648 155.263 160.567 153.946C164.499 151.246 164.301 150.774 166.637 149.458C168.44 148.427 170.377 147.649 172.394 147.146C175.211 146.458 176.191 146.869 177.704 145.862C179.218 144.856 179.715 145.369 180.075 146.524C180.436 147.679 179.4 149.228 177.853 150.621C177.103 151.293 176.596 151.673 176.04 151.905C175.061 152.317 174.342 152.251 173.755 152.313C171.27 152.58 171.094 155.267 167.616 157.273C165.977 158.217 165.854 157.718 163.895 158.834C162.133 159.843 161.79 160.506 159.783 162.151C156.87 164.541 155.25 165.87 153.163 165.764C151.816 165.698 150.071 165.023 149.478 163.634C148.71 161.823 150.189 159.558 151.559 158.434Z" fill="#F7BC91"></path>
		<path fill-rule="evenodd" clip-rule="evenodd" d="M132.877 147.783C132.035 150.337 132.105 151.068 132.37 151.215C132.54 151.308 132.726 151.121 132.957 151.215C133.503 151.435 133.31 152.823 133.349 153.946C133.372 154.606 133.545 157.263 135.111 158.629C136.384 159.741 138.138 159.632 138.753 159.581C140.907 159.4 143.56 158.215 144.334 155.823C145.013 153.72 145.244 150.869 143.96 148.614C142.675 146.358 133.178 146.142 132.877 147.783Z" fill="#F7BC91"></path>
		<path fill-rule="evenodd" clip-rule="evenodd" d="M132.272 144.109C132.422 145.084 131.067 145.385 130.691 147.488C130.646 147.732 129.763 151.509 131.22 152.325C131.692 152.59 132.422 152.551 132.761 152.19C133.374 151.539 132.411 150.149 132.957 149.654C133.239 149.398 133.664 149.615 134.719 149.849C136.007 150.116 137.32 150.246 138.636 150.239C140.643 150.286 140.709 149.954 141.181 150.239C142.777 151.201 141.87 154.922 142.748 155.117C143.096 155.193 143.593 154.678 143.922 154.337C144.457 153.782 144.549 153.345 144.706 153.361C144.862 153.377 145.074 153.993 145.097 156.678C146.627 156.625 147.31 156.161 147.643 155.702C148.048 155.144 148.017 154.483 148.622 154.141C149.145 153.847 149.454 154.179 149.797 153.946C150.547 153.439 149.967 151.244 149.311 148.766C149.059 147.814 148.873 147.4 148.753 146.495C148.401 143.802 149.583 143.714 144.032 139.112C142.673 137.988 137.852 137.418 135.221 139.748C132.589 142.077 132.348 142.754 132.272 144.109Z" fill="#D1A55E"></path>
		<path fill-rule="evenodd" clip-rule="evenodd" d="M132.636 239.934C132.984 241.495 133.247 244.617 133.247 245.898C133.247 247.459 133.237 248.854 131.383 248.718C129.368 248.573 125.009 248.636 123.897 247.465C123.008 246.529 121.377 245.276 120.834 244.343C120.292 243.411 119.945 241.932 121.263 241.155C122.679 240.324 124.49 238.385 125.164 237.748C126.008 236.968 126.534 237.054 127.504 237.259C128.935 237.553 132.317 238.258 132.636 239.934Z" fill="#1C1836"></path>
		<path fill-rule="evenodd" clip-rule="evenodd" d="M154.659 234.312C154.959 233.243 155.534 232.537 156.695 232.49C158.364 232.367 160.138 232.535 161.324 231.185C162.163 230.236 163.398 230.82 163.465 232.08C163.594 234.406 165.546 236.841 164.687 238.976C163.786 241.229 160.77 244.685 158.507 244.685C156.353 244.685 153.958 244.271 153.069 243.854C151.577 243.114 151.581 241.551 152.174 240.18C152.905 238.488 154.203 236.004 154.659 234.312Z" fill="#1C1836"></path>
		<path fill-rule="evenodd" clip-rule="evenodd" d="M236.44 249.584C236.286 250.759 235.956 251.904 235.461 252.981C234.681 254.682 233.516 256.18 232.058 257.358L246.182 261.482C247.558 259.708 248.477 257.625 248.861 255.416C249.068 254.169 249.266 252.991 248.861 252.019C247.803 249.475 242.73 248.521 236.44 249.584Z" fill="#F7BC91"></path>
		<path fill-rule="evenodd" clip-rule="evenodd" d="M202.214 99.9363C202.214 99.9363 197.103 102.826 193.097 113.009C189.091 123.192 184.646 132.507 181.311 135.389C177.976 138.271 175.742 140.71 173.966 143.584C172.19 146.458 172.629 150.897 173.745 153.775C174.861 156.653 177.522 156.873 179.97 157.54C182.417 158.208 184.65 156.658 183.978 153.997C183.307 151.336 185.74 144.464 186.199 142.251C186.657 140.038 209.992 117.877 213.107 105.909C213.107 105.919 201.991 100.379 202.214 99.9363Z" fill="#F7BC91"></path>
		<path fill-rule="evenodd" clip-rule="evenodd" d="M278.714 101.049C279.569 102.836 280.329 104.667 280.992 106.533C284.344 115.973 283.195 120.734 284.516 138.923C284.779 142.524 285.149 146.803 284.939 152.68C284.939 152.68 284.765 157.574 281.973 165.23C281.769 165.897 281.403 166.505 280.907 166.998C280.653 167.234 280.535 167.271 280.208 167.605C279.621 168.211 279.654 168.451 279.229 168.775C279.131 168.849 278.446 169.374 277.859 169.165C277.271 168.957 277.24 168.19 276.88 168.19C276.609 168.19 276.598 168.631 276.096 168.97C275.744 169.21 275.18 169.38 274.921 169.165C274.591 168.89 274.98 168.165 274.726 167.995C274.428 167.8 273.856 168.775 273.159 168.775C271.935 168.775 270.727 165.755 270.439 162.992C270.357 162.188 270.439 162.301 270.41 160.6C270.318 156.026 269.689 155.345 270.214 153.751C270.837 151.886 271.963 152.03 272.955 150.239C274.428 147.582 273.519 144.438 272.924 142.481C268.971 129.491 264.882 116.463 265.71 110.045C265.771 109.575 266.474 104.371 266.474 104.371L278.714 101.049Z" fill="#F7BC91"></path>
		<path fill-rule="evenodd" clip-rule="evenodd" d="M218.447 143.152C218.447 144.259 217.11 171.071 219.334 188.577C221.558 206.083 222.003 212.292 225.114 215.394C236.064 226.32 230.777 233.907 233.57 236.886C240.292 244.062 249.93 245.377 254.949 245.651C257.725 243.504 261.113 240.107 262.194 235.309C264.686 224.237 252.873 214.588 246.529 205.066C239.426 194.407 234.335 176.636 242.687 145.361L218.447 143.152Z" fill="#4135BF"></path>
		<path fill-rule="evenodd" clip-rule="evenodd" d="M216.89 258.374C220.673 258.595 225.346 259.488 228.236 256.829C229.714 255.783 243.723 253.297 247.582 262.146L244.467 272.118C243.85 274.583 242.328 275.4 239.963 274.823C237.155 274.114 232.769 272.758 229.881 272.795C224.553 272.862 218.261 266.015 214.999 263.112C213.121 261.352 213.368 258.167 216.89 258.374Z" fill="#62534C"></path>
		<path fill-rule="evenodd" clip-rule="evenodd" d="M229.379 251.04C230.305 252.405 232.365 251.806 237.658 252.253C238.099 252.29 239.98 252.521 243.746 252.981C245.551 253.202 246.603 253.336 248.128 253.467C250.637 253.682 251.89 253.791 252.268 253.709C256.413 252.823 252.855 227.835 254.251 206.309C255.426 188.115 257.075 186.302 260.701 164.644C261.816 158.01 263.37 144.038 260.478 134.952L234.686 145.585C234.686 145.585 232.894 168.414 230.897 183.922C228.586 201.859 224.756 208.879 228.007 219.38C229.649 224.683 232.222 228.623 231.085 234.541C230.19 239.192 230.106 243.976 229.127 248.614C229.033 249.11 228.804 250.187 229.379 251.04Z" fill="#5747FF"></path>
		<path fill-rule="evenodd" clip-rule="evenodd" d="M245.638 47.4131C238.209 45.8776 235.134 38.8827 234.406 33.1697L222.704 58.3494C222.704 58.3494 226.898 70.6846 232.46 68.9071C238.021 67.1296 241.913 60.8273 245.638 47.4131Z" fill="#E6AB81"></path>
		<path fill-rule="evenodd" clip-rule="evenodd" d="M216.961 147.769C219.173 149.564 224.063 153.773 226.26 155.837C229.346 158.736 237.962 154.422 239.354 151.072C241.559 145.773 253.748 142.663 257.01 141.377C262.779 139.112 263.762 138.47 264.369 132.263C265.152 125.015 266.008 113.304 266.041 111.239C266.08 108.781 266.329 107.727 268.89 107.454C270.848 107.234 275.28 106.012 277.479 106.479C280.081 107.037 281.27 105.165 280.496 102.537C278.176 94.6566 278.556 86.928 275.111 79.8395C272.84 75.2152 271.268 68.394 270.453 64.4936C269.517 59.9767 267.516 57.7797 263.782 56.4139C258.994 54.6578 250.885 51.8443 247.208 46.463C245.128 43.4133 243.568 45.7313 242.916 48.0961C242.035 51.2862 239.076 57.1417 236.785 60.1621C234.848 62.7239 230.801 65.4829 228.892 60.7474C227.913 58.3436 226.458 54.2969 226.458 54.2969L217.56 51.415C217.56 51.415 214.668 51.1887 214.668 55.1788C214.668 58.804 212.653 60.2518 210.947 61.801C208.541 63.998 208.635 67.6896 208.884 70.6924C209.771 81.4043 205.786 91.1211 199.618 99.5501C198.386 101.277 198.521 103.148 200.877 103.487C204.668 104.04 207.699 107.195 210.605 109.536C211.842 110.512 213.074 110.537 214.29 109.251C217.337 106.051 218.01 109.152 218.01 112.356C218.01 117.592 214.125 121.949 214.266 127.77C214.339 130.794 214.059 135.397 213.898 138.8C213.72 142.396 213.84 145.324 216.961 147.769Z" fill="#1C1836"></path>
		<path fill-rule="evenodd" clip-rule="evenodd" d="M205.8 39.2184C206.027 39.7335 206.191 39.8915 209.839 45.7313C209.982 45.9616 210.274 46.426 210.695 47.023C211.438 48.0544 212.245 49.0378 213.113 49.9673C215.504 52.6658 214.997 52.5877 216.178 53.6569C217.719 55.052 218.026 54.6794 219.702 56.1935C221.335 57.6685 221.398 58.3397 222.42 58.73C224.038 59.3387 225.8 58.3709 226.556 57.9495C231.003 55.5066 232.626 49.9146 233.605 46.4377C234.48 43.2924 235.269 40.4632 234.954 36.7267C234.817 35.1131 233.811 23.2228 225.279 20.5536C218.261 18.3566 211.134 23.9564 208.091 28.7797C207.378 29.9114 204.037 35.2185 205.8 39.2184Z" fill="#F7BC91"></path>
		<path d="M254.928 245.641L231.673 241.9C230.354 241.688 229.113 242.581 228.9 243.895L228.079 248.961C227.866 250.275 228.763 251.512 230.081 251.724L253.337 255.464C254.655 255.677 255.896 254.783 256.109 253.47L256.93 248.404C257.143 247.09 256.247 245.853 254.928 245.641Z" fill="#A198FF"></path>
		<path fill-rule="evenodd" clip-rule="evenodd" d="M206.491 39.948C207.85 41.0836 210.015 40.5782 210.63 40.4338C216.753 39.0017 218.253 30.1337 220.617 30.483C221.376 30.5961 222.379 31.6849 223.053 36.791C224.587 37.2586 226.059 37.9106 227.435 38.7324C230.098 40.3207 231.743 42.1567 232.062 41.8855C232.542 41.4855 229.781 36.8554 230.114 34.6077C230.145 34.3989 230.223 33.9131 230.601 33.6321C231.189 33.2048 232.087 33.5502 232.305 33.6321C234.233 34.3638 234.819 36.8379 234.983 36.7871C235.34 36.6759 236.074 24.3212 227.922 19.8023C222.714 16.9146 216.174 18.4931 212.095 21.4998C205.185 26.6099 203.364 37.3374 206.491 39.948Z" fill="#1C1836"></path>
		<path d="M138.636 79.9974C160.805 79.9974 178.777 62.0894 178.777 39.9987C178.777 17.908 160.805 0 138.636 0C116.466 0 98.4939 17.908 98.4939 39.9987C98.4939 62.0894 116.466 79.9974 138.636 79.9974Z" fill="#5747FF"></path>
		<path d="M119.842 44.0103L131.152 55.05L157.391 30.522" stroke="white" stroke-width="5" stroke-linecap="round" stroke-linejoin="round"></path>
	</g>
	<defs>
		<clipPath id="clip0_1975_17451">
		<rect width="285" height="275" fill="white"></rect>
		</clipPath>
	</defs>
</svg>