<svg width="16" height="16" viewBox="0 0 16 16" fill="none" xmlns="http://www.w3.org/2000/svg">
<circle cx="8" cy="8" r="8" fill="#ADFFD6"/>
<mask id="mask0_29_16229" style="mask-type:alpha" maskUnits="userSpaceOnUse" x="0" y="0" width="16" height="16">
<circle cx="8" cy="8" r="8" fill="#ADFFD6"/>
</mask>
<g mask="url(#mask0_29_16229)">
<rect width="1" height="6" transform="matrix(-1 0 0 1 13 9)" fill="#A198FF"/>
<path d="M19.3924 11.6961C19.3924 9.65495 18.5816 7.69739 17.1383 6.25407C15.695 4.81076 13.7374 3.99991 11.6962 3.99991C9.65508 3.99991 7.69752 4.81076 6.25421 6.25407C4.81089 7.69739 4.00004 9.65495 4.00004 11.6961C4.00004 11.6961 6.33011 11.1464 7.84814 11.1464C9.36617 11.1464 11.6962 11.6961 11.6962 11.6961C11.6962 11.6961 14.0416 10.9317 15.5443 11.1464C17.0471 11.3611 17.8897 11.4814 19.3924 11.6961Z" fill="#5427E2"/>
<rect x="12" y="3" width="1" height="2" fill="#5427E2"/>
</g>
</svg>