<svg width="20" height="20" viewBox="0 0 20 20" fill="none" xmlns="http://www.w3.org/2000/svg">
<circle cx="10" cy="10" r="10" fill="#ADFFD6"/>
<mask id="mask0_2798_32709" style="mask-type:alpha" maskUnits="userSpaceOnUse" x="0" y="0" width="20" height="20">
<circle cx="10" cy="10" r="10" fill="#ADFFD6"/>
</mask>
<g mask="url(#mask0_2798_32709)">
<rect width="1.25" height="7.5" transform="matrix(-1 0 0 1 16.25 11.25)" fill="#A198FF"/>
<path d="M24.2405 14.6201C24.2405 12.0687 23.227 9.62174 21.4228 7.81759C19.6187 6.01345 17.1717 4.99989 14.6203 4.99989C12.0689 4.99989 9.6219 6.01345 7.81776 7.81759C6.01361 9.62174 5.00006 12.0687 5.00005 14.6201C5.00005 14.6201 7.91264 13.933 9.81018 13.933C11.7077 13.933 14.6203 14.6201 14.6203 14.6201C14.6203 14.6201 17.5519 13.6646 19.4304 13.933C21.3089 14.2013 22.3621 14.3518 24.2405 14.6201Z" fill="#5427E2"/>
<rect x="15" y="3.75" width="1.25" height="2.5" fill="#5427E2"/>
</g>
</svg>
