<svg width="20" height="20" viewBox="0 0 20 20" fill="none" xmlns="http://www.w3.org/2000/svg">
<circle cx="10" cy="10" r="10" fill="#ADFFD6"/>
<mask id="mask0_2798_32681" style="mask-type:alpha" maskUnits="userSpaceOnUse" x="0" y="0" width="20" height="20">
<circle cx="10" cy="10" r="10" fill="#ECEBFF"/>
</mask>
<g mask="url(#mask0_2798_32681)">
<rect x="8.75" y="4.84375" width="12.5" height="12.5" rx="1" fill="#A198FF"/>
<rect x="8.75" y="6.40625" width="12.5" height="12.5" fill="#5427E2"/>
<path d="M12.8606 11.755C12.8606 11.83 12.8656 11.905 12.8706 11.975H12.5006V12.365H12.9606C13.2006 13.075 13.8556 13.53 14.6356 13.53C15.3556 13.53 15.9806 13.17 16.2456 12.49H15.5606C15.3756 12.84 15.0506 13.015 14.6356 13.015C14.1506 13.015 13.7656 12.775 13.5706 12.365H14.6356V11.975H13.4606C13.4506 11.905 13.4456 11.83 13.4456 11.755C13.4456 11.68 13.4506 11.605 13.4606 11.535H14.6356V11.145H13.5706C13.7606 10.74 14.1506 10.5 14.6356 10.5C15.0506 10.5 15.3756 10.675 15.5606 11.025H16.2456C15.9806 10.345 15.3556 9.98 14.6356 9.98C13.8556 9.98 13.2006 10.44 12.9606 11.145H12.5006V11.535H12.8706C12.8656 11.605 12.8606 11.68 12.8606 11.755Z" fill="white"/>
</g>
</svg>
