<svg width="16" height="16" viewBox="0 0 16 16" fill="none" xmlns="http://www.w3.org/2000/svg">
<circle cx="8" cy="8" r="8" fill="#ADFFD6"/>
<mask id="mask0_29_16229" style="mask-type:alpha" maskUnits="userSpaceOnUse" x="0" y="0" width="16" height="16">
<circle cx="8" cy="8" r="8" fill="#ECEBFF"/>
</mask>
<g mask="url(#mask0_29_16229)">
<rect x="7" y="3.875" width="10" height="10" rx="1" fill="#A198FF"/>
<rect x="7" y="5.125" width="10" height="10" fill="#5427E2"/>
<path d="M11.7606 11.515C11.9706 11.515 12.1539 11.4717 12.3106 11.385C12.4706 11.295 12.5956 11.1633 12.6856 10.99H13.3706C13.2406 11.3233 13.0323 11.58 12.7456 11.76C12.4589 11.94 12.1306 12.03 11.7606 12.03C11.3706 12.03 11.0239 11.925 10.7206 11.715C10.4173 11.5017 10.2056 11.2183 10.0856 10.865H9.62561V10.475H9.99561C9.98894 10.3817 9.98561 10.3083 9.98561 10.255C9.98561 10.2017 9.98894 10.1283 9.99561 10.035H9.62561V9.645H10.0856C10.2056 9.29167 10.4173 9.01 10.7206 8.8C11.0239 8.58667 11.3706 8.48 11.7606 8.48C12.1273 8.48 12.4539 8.57167 12.7406 8.755C13.0306 8.935 13.2406 9.19167 13.3706 9.525H12.6856C12.5956 9.35167 12.4706 9.22167 12.3106 9.135C12.1539 9.045 11.9706 9 11.7606 9C11.5173 9 11.3023 9.05667 11.1156 9.17C10.9323 9.28333 10.7923 9.44167 10.6956 9.645H11.7606V10.035H10.5856C10.5756 10.105 10.5706 10.1783 10.5706 10.255C10.5706 10.3317 10.5756 10.405 10.5856 10.475H11.7606V10.865H10.6956C10.7923 11.0717 10.9323 11.2317 11.1156 11.345C11.3023 11.4583 11.5173 11.515 11.7606 11.515Z" fill="white"/>
</g>
</svg>