<svg width="16" height="16" viewBox="0 0 16 16" fill="none" xmlns="http://www.w3.org/2000/svg">
<circle cx="8" cy="8" r="8" fill="#ADFFD6"/>
<mask id="mask0_29_16229" style="mask-type:alpha" maskUnits="userSpaceOnUse" x="0" y="0" width="16" height="16">
<circle cx="8" cy="8" r="8" fill="#ECEBFF"/>
</mask>
<g mask="url(#mask0_29_16229)">
<path d="M10.55 10.3375C10.1015 10.3375 9.7375 10.7015 9.7375 11.15C9.7375 11.5985 10.1015 11.9625 10.55 11.9625C10.9985 11.9625 11.3625 11.5985 11.3625 11.15C11.3625 10.7015 10.9985 10.3375 10.55 10.3375ZM14.45 10.3375C14.0015 10.3375 13.6375 10.7015 13.6375 11.15C13.6375 11.5985 14.0015 11.9625 14.45 11.9625C14.8985 11.9625 15.2625 11.5985 15.2625 11.15C15.2625 10.7015 14.8985 10.3375 14.45 10.3375ZM12.5 4C8.912 4 6 6.912 6 10.5C6 14.088 8.912 17 12.5 17C16.088 17 19 14.088 19 10.5C19 6.912 16.088 4 12.5 4ZM12.5 15.7C9.6335 15.7 7.3 13.3665 7.3 10.5C7.3 10.3115 7.313 10.123 7.3325 9.941C8.8665 9.2585 10.082 8.004 10.719 6.4505C11.8955 8.1145 13.8325 9.2 16.023 9.2C16.53 9.2 17.0175 9.1415 17.4855 9.031C17.622 9.4925 17.7 9.9865 17.7 10.5C17.7 13.3665 15.3665 15.7 12.5 15.7Z" fill="#5427E2"/>
</g>
</svg>