<svg width="20" height="20" viewBox="0 0 20 20" fill="none" xmlns="http://www.w3.org/2000/svg">
<circle cx="10" cy="10" r="10" fill="#ADFFD6"/>
<mask id="mask0_2798_32674" style="mask-type:alpha" maskUnits="userSpaceOnUse" x="0" y="0" width="20" height="20">
<circle cx="10" cy="10" r="10" fill="#ECEBFF"/>
</mask>
<g mask="url(#mask0_2798_32674)">
<path d="M13.1875 12.9219C12.6269 12.9219 12.1719 13.3769 12.1719 13.9375C12.1719 14.4981 12.6269 14.9531 13.1875 14.9531C13.7481 14.9531 14.2031 14.4981 14.2031 13.9375C14.2031 13.3769 13.7481 12.9219 13.1875 12.9219ZM18.0625 12.9219C17.5019 12.9219 17.0469 13.3769 17.0469 13.9375C17.0469 14.4981 17.5019 14.9531 18.0625 14.9531C18.6231 14.9531 19.0781 14.4981 19.0781 13.9375C19.0781 13.3769 18.6231 12.9219 18.0625 12.9219ZM15.625 5C11.14 5 7.5 8.64 7.5 13.125C7.5 17.61 11.14 21.25 15.625 21.25C20.11 21.25 23.75 17.61 23.75 13.125C23.75 8.64 20.11 5 15.625 5ZM15.625 19.625C12.0419 19.625 9.125 16.7081 9.125 13.125C9.125 12.8894 9.14125 12.6538 9.16563 12.4263C11.0831 11.5731 12.6025 10.005 13.3988 8.06312C14.8694 10.1431 17.2906 11.5 20.0288 11.5C20.6625 11.5 21.2719 11.4269 21.8569 11.2887C22.0275 11.8656 22.125 12.4831 22.125 13.125C22.125 16.7081 19.2081 19.625 15.625 19.625Z" fill="#5427E2"/>
</g>
</svg>
