<svg width="20" height="20" viewBox="0 0 20 20" fill="none" xmlns="http://www.w3.org/2000/svg">
<circle cx="8" cy="8" r="8" fill="#EFEEFF"/>
<path d="M7.99992 3.83331C5.69992 3.83331 3.83325 5.69998 3.83325 7.99998C3.83325 10.3 5.69992 12.1666 7.99992 12.1666C10.2999 12.1666 12.1666 10.3 12.1666 7.99998C12.1666 5.69998 10.2999 3.83331 7.99992 3.83331ZM9.66659 8.41665H6.33325C6.10409 8.41665 5.91659 8.22915 5.91659 7.99998C5.91659 7.77081 6.10409 7.58331 6.33325 7.58331H9.66659C9.89575 7.58331 10.0833 7.77081 10.0833 7.99998C10.0833 8.22915 9.89575 8.41665 9.66659 8.41665Z" fill="#5427E2"/>
<circle cx="8.42105" cy="8.42105" r="8.42105" fill="#EFEEFF"/>
<mask id="mask0_2798_32736" style="mask-type:alpha" maskUnits="userSpaceOnUse" x="0" y="0" width="17" height="17">
<circle cx="8.42105" cy="8.42105" r="8.42105" fill="#EFEEFF"/>
</mask>
<g mask="url(#mask0_2798_32736)">
<path d="M11.6422 5.19999C10.2317 3.78946 8.11939 3.50174 6.42114 4.32981L8.96851 6.87718C9.2422 7.15086 9.2422 7.59297 8.96851 7.86665L7.85272 8.98244C7.57904 9.26315 7.13693 9.26315 6.86325 8.98244L4.31588 6.43507C3.49483 8.14034 3.78255 10.2386 5.19307 11.6491C6.49834 12.9544 8.40711 13.2982 10.0282 12.6877L15.6141 18.2737C16.3369 18.9965 17.5018 18.9965 18.2176 18.2737C18.9404 17.5509 18.9404 16.386 18.2176 15.6702L12.6597 10.1053C13.3054 8.46314 12.9685 6.5263 11.6422 5.19999Z" fill="#5427E2"/>
</g>
</svg>
