<svg width="366" height="247" viewBox="0 0 366 247" fill="none" xmlns="http://www.w3.org/2000/svg">
<mask id="mask0_3013_35119" style="mask-type:alpha" maskUnits="userSpaceOnUse" x="0" y="0" width="366" height="247">
<rect width="366" height="247" rx="10" fill="#ADFFD6"/>
</mask>
<g mask="url(#mask0_3013_35119)">
<rect x="-10" y="-14.8717" width="384" height="268.338" fill="#EFEEFF"/>
</g>
<g clip-path="url(#clip0_3013_35119)">
<path d="M211.706 200.676L98.869 176.895C90.7874 175.191 85.618 167.275 87.3252 159.212L105.951 71.2212L248.055 101.167L229.429 189.157C227.721 197.221 219.788 202.379 211.706 200.676Z" fill="white"/>
<path d="M216.063 188.465L195.4 184.109L195.5 183.641L212.534 103.161L233.197 107.518L233.097 107.985L216.063 188.465ZM196.533 183.374L215.326 187.335L232.064 108.257L213.27 104.297L196.533 183.374Z" fill="#1D1D1B"/>
<path d="M216.063 188.465L215.594 188.365L99.0651 163.807L99.1655 163.339L116.204 82.8635L116.673 82.9637L233.197 107.522L233.097 107.99L216.063 188.47V188.465ZM100.203 163.072L215.326 187.335L232.064 108.257L116.94 83.9944L100.203 163.072Z" fill="#1D1D1B"/>
<path d="M220.343 168.225L219.874 168.125L103.35 143.571L107.716 122.953L108.185 123.054L224.709 147.612L220.343 168.23V168.225ZM104.483 142.836L219.606 167.099L223.575 148.347L108.452 124.084L104.483 142.836Z" fill="#1D1D1B"/>
<path d="M177.73 180.387L157.067 176.031L157.167 175.563L174.201 95.0832L194.864 99.4396L194.764 99.9072L177.73 180.387ZM158.2 175.296L176.993 179.256L193.731 100.179L174.937 96.2188L158.2 175.296Z" fill="#1D1D1B"/>
<path d="M139.306 172.285L118.643 167.929L118.743 167.461L135.777 86.9861L156.44 91.3424L156.34 91.81L139.306 172.29V172.285ZM119.776 167.194L138.565 171.155L155.302 92.0772L136.513 88.1169L119.776 167.194Z" fill="#1D1D1B"/>
<path d="M232.62 107.897L116.563 83.4311L112.395 103.113L228.452 127.579L232.62 107.897Z" fill="#B4ADFF"/>
<path d="M228.831 128.135L228.362 128.035L111.838 103.481L116.204 82.8635L116.673 82.9637L233.197 107.522L228.831 128.14V128.135ZM112.971 102.741L228.095 127.004L232.064 108.252L116.94 83.9944L112.971 102.746V102.741Z" fill="#1D1D1B"/>
<path d="M248.055 101.167L105.951 71.2212L109.724 53.4093C110.638 49.0912 114.889 46.3285 119.217 47.2398L245.645 73.8836C249.972 74.795 252.741 79.0368 251.828 83.355L248.055 101.167Z" fill="#5427E2"/>
<g opacity="0.35">
<path d="M231.906 86.3037C234.703 86.3037 236.97 84.0414 236.97 81.2508C236.97 78.4601 234.703 76.1978 231.906 76.1978C229.109 76.1978 226.842 78.4601 226.842 81.2508C226.842 84.0414 229.109 86.3037 231.906 86.3037Z" fill="black"/>
</g>
<path d="M231.734 82.0667C230.414 81.7899 229.567 80.4969 229.85 79.1752L232.26 67.7905C232.537 66.4736 233.833 65.629 235.158 65.9105C236.477 66.1873 237.324 67.4803 237.042 68.802L234.632 80.1867C234.354 81.5036 233.058 82.3482 231.734 82.0667Z" fill="#B4ADFF"/>
<g opacity="0.35">
<path d="M128.466 64.4379C131.258 64.2782 133.392 61.8902 133.232 59.104C133.072 56.3179 130.678 54.1888 127.886 54.3485C125.094 54.5081 122.96 56.8962 123.12 59.6823C123.28 62.4684 125.673 64.5975 128.466 64.4379Z" fill="black"/>
</g>
<path d="M127.997 60.2086C126.677 59.9319 125.83 58.6388 126.112 57.3171L128.523 45.9324C128.8 44.6155 130.096 43.771 131.421 44.0525C132.74 44.3292 133.587 45.6223 133.305 46.944L130.895 58.3287C130.617 59.6456 129.321 60.4902 127.997 60.2086Z" fill="#B4ADFF"/>
<g opacity="0.35">
<path d="M159.448 65.9821C158.869 68.7114 156.187 70.4577 153.447 69.8804C150.711 69.303 148.961 66.6215 149.54 63.8922C150.118 61.1629 152.801 59.4166 155.541 59.9939C158.277 60.5713 160.027 63.248 159.448 65.9821Z" fill="black"/>
</g>
<path d="M154.322 65.7531C153.002 65.4763 152.155 64.1833 152.438 62.8616L154.848 51.4769C155.125 50.16 156.421 49.3154 157.746 49.5969C159.066 49.8737 159.912 51.1667 159.63 52.4884L157.22 63.8731C156.942 65.19 155.646 66.0346 154.322 65.7531Z" fill="#B4ADFF"/>
<g opacity="0.35">
<path d="M207.477 80.8054C210.207 80.1971 211.926 77.4961 211.316 74.7725C210.706 72.0489 207.999 70.3341 205.27 70.9424C202.54 71.5507 200.821 74.2518 201.431 76.9753C202.041 79.6989 204.748 81.4137 207.477 80.8054Z" fill="black"/>
</g>
<path d="M206.197 76.6893C204.878 76.4125 204.031 75.1195 204.313 73.7978L206.724 62.4131C207.001 61.0961 208.297 60.2516 209.621 60.5331C210.941 60.8099 211.788 62.1029 211.506 63.4246L209.095 74.8093C208.818 76.1262 207.522 76.9708 206.197 76.6893Z" fill="#B4ADFF"/>
<path d="M199.354 153.371C198.69 156.506 195.605 158.51 192.463 157.847C189.322 157.184 187.313 154.106 187.978 150.971C188.643 147.836 191.727 145.832 194.869 146.496C198.011 147.159 200.019 150.236 199.354 153.371Z" fill="#A198FF"/>
<path d="M182.789 128.922C182.125 132.057 179.04 134.061 175.898 133.398C172.757 132.735 170.748 129.657 171.413 126.522C172.078 123.387 175.162 121.383 178.304 122.047C181.446 122.71 183.454 125.788 182.789 128.922Z" fill="#A198FF"/>
<path d="M136.963 160.428C136.298 163.563 133.214 165.567 130.072 164.904C126.93 164.241 124.922 161.163 125.586 158.028C126.251 154.893 129.336 152.889 132.477 153.553C135.619 154.216 137.628 157.293 136.963 160.428Z" fill="#A198FF"/>
<path d="M144.858 121.579C144.193 124.714 141.109 126.718 137.967 126.055C134.825 125.392 132.817 122.314 133.482 119.179C134.146 116.044 137.231 114.04 140.372 114.703C143.514 115.367 145.523 118.444 144.858 121.579Z" fill="#DAD6FF"/>
<path d="M144.456 121.579C143.792 124.714 140.707 126.718 137.565 126.055C134.424 125.392 132.415 122.314 133.08 119.179C133.745 116.044 136.829 114.04 139.971 114.703C143.113 115.367 145.121 118.444 144.456 121.579Z" fill="#A198FF"/>
<path d="M140.167 116.106L140.836 119.103L143.691 120.257L141.037 121.818L140.817 124.881L138.512 122.848L135.523 123.588L136.752 120.768L135.122 118.163L138.187 118.459L140.167 116.106Z" fill="#DAD6FF"/>
<path d="M183.191 128.922C182.526 132.057 179.442 134.061 176.3 133.398C173.158 132.735 171.15 129.657 171.814 126.522C172.479 123.387 175.564 121.383 178.705 122.047C181.847 122.71 183.856 125.788 183.191 128.922Z" fill="#DAD6FF"/>
<path d="M182.789 128.922C182.125 132.057 179.04 134.061 175.898 133.398C172.757 132.735 170.748 129.657 171.413 126.522C172.078 123.387 175.162 121.383 178.304 122.047C181.446 122.71 183.454 125.788 182.789 128.922Z" fill="#A198FF"/>
<path d="M178.5 123.445L179.165 126.446L182.019 127.601L179.365 129.161L179.15 132.224L176.84 130.187L173.852 130.931L175.081 128.111L173.45 125.506L176.515 125.797L178.5 123.445Z" fill="#DAD6FF"/>
<path d="M199.756 153.371C199.091 156.506 196.007 158.51 192.865 157.847C189.723 157.184 187.715 154.106 188.38 150.971C189.044 147.836 192.129 145.832 195.271 146.496C198.412 147.159 200.421 150.236 199.756 153.371Z" fill="#DAD6FF"/>
<path d="M199.354 153.371C198.69 156.506 195.605 158.51 192.463 157.847C189.322 157.184 187.313 154.106 187.978 150.971C188.643 147.836 191.727 145.832 194.869 146.496C198.011 147.159 200.019 150.236 199.354 153.371Z" fill="#A198FF"/>
<path d="M195.065 147.898L195.73 150.895L198.584 152.05L195.93 153.61L195.715 156.673L193.405 154.641L190.417 155.38L191.646 152.56L190.015 149.955L193.08 150.251L195.065 147.898Z" fill="#DAD6FF"/>
<path d="M137.164 160.428C136.499 163.563 133.415 165.567 130.273 164.904C127.131 164.241 125.122 161.163 125.787 158.028C126.452 154.893 129.536 152.889 132.678 153.553C135.82 154.216 137.828 157.293 137.164 160.428Z" fill="#DAD6FF"/>
<path d="M136.762 160.428C136.097 163.563 133.013 165.567 129.871 164.904C126.729 164.241 124.721 161.163 125.386 158.028C126.05 154.893 129.135 152.889 132.276 153.553C135.418 154.216 137.427 157.293 136.762 160.428Z" fill="#A198FF"/>
<path d="M132.472 154.951L133.142 157.952L135.997 159.107L133.343 160.662L133.123 163.73L130.818 161.693L127.829 162.437L129.058 159.617L127.427 157.007L130.493 157.303L132.472 154.951Z" fill="#DAD6FF"/>
</g>
<defs>
<clipPath id="clip0_3013_35119">
<rect width="165" height="157" fill="white" transform="translate(87 44)"/>
</clipPath>
</defs>
</svg>
