<svg width="366" height="247" viewBox="0 0 366 247" fill="none" xmlns="http://www.w3.org/2000/svg">
<mask id="mask0_3013_35080" style="mask-type:alpha" maskUnits="userSpaceOnUse" x="0" y="0" width="366" height="247">
<rect width="366" height="247" rx="10" fill="#ADFFD6"/>
</mask>
<g mask="url(#mask0_3013_35080)">
<rect x="-10" y="-14" width="384" height="268.338" fill="#EFEEFF"/>
</g>
<g clip-path="url(#clip0_3013_35080)">
<path d="M222.6 52.182L195.83 39.1446L188.253 54.5462L215.024 67.5836L222.6 52.182Z" fill="#5427E2"/>
<path opacity="0.35" d="M222.602 52.1774L195.832 39.14L192.043 46.8409L218.814 59.8783L222.602 52.1774Z" fill="black"/>
<path d="M227.785 47.546L196.33 32.2273C195.248 31.7002 193.941 32.1459 193.411 33.2228L190.121 39.9117C189.591 40.9886 190.039 42.2889 191.121 42.816L222.576 58.1346C223.658 58.6617 224.965 58.216 225.495 57.1391L228.785 50.4503C229.315 49.3734 228.867 48.0731 227.785 47.546Z" fill="#5427E2"/>
<path d="M204.546 102.285L204.131 101.676C202.755 99.6424 203.298 96.8806 205.342 95.5158L233.693 76.5453C235.736 75.1759 238.512 75.7163 239.884 77.7499L240.298 78.359C241.674 80.3925 241.131 83.1543 239.087 84.5191L210.737 103.494C208.693 104.864 205.917 104.323 204.546 102.29V102.285Z" fill="#5427E2"/>
<path d="M167.257 84.1311L167.996 84.0805C170.454 83.9126 172.309 81.7941 172.14 79.3488L169.798 45.4312C169.629 42.9859 167.5 41.1398 165.043 41.3078L164.303 41.3583C161.846 41.5263 159.99 43.6448 160.159 46.0901L162.501 80.0076C162.67 82.4529 164.799 84.2991 167.257 84.1311Z" fill="#5427E2"/>
<path d="M235.56 153.55C253.081 117.933 238.604 75.0923 203.226 57.8626C167.847 40.6329 124.963 55.5388 107.442 91.1558C89.9213 126.773 104.398 169.614 139.776 186.843C175.155 204.073 218.039 189.167 235.56 153.55Z" fill="#A198FF"/>
<path d="M197.802 68.8873C227.108 83.1598 239.105 118.654 224.585 148.17C210.065 177.686 174.534 190.033 145.228 175.76C115.921 161.488 103.924 125.994 118.444 96.4781C132.964 66.9622 168.495 54.6149 197.802 68.8873Z" fill="white" stroke="black"/>
<path d="M189.623 85.0352L189.991 85.2145C191.206 85.8066 191.71 87.2711 191.115 88.4804L176.712 117.747C176.117 118.956 174.645 119.458 173.429 118.866L173.065 118.688C171.85 118.096 171.346 116.632 171.941 115.422L186.344 86.156C186.94 84.9467 188.411 84.445 189.627 85.0372L189.623 85.0352Z" fill="#A198FF"/>
<path d="M169.086 122.563L169.268 122.196C169.869 120.985 171.062 120.353 171.93 120.788L192.933 131.302C193.801 131.737 194.019 133.075 193.418 134.286L193.239 134.649C192.638 135.86 191.445 136.492 190.577 136.057L169.573 125.542C168.706 125.108 168.488 123.77 169.089 122.559L169.086 122.563Z" fill="#A198FF"/>
<path d="M178.662 125.831C176.702 129.816 171.905 131.483 167.951 129.554C163.992 127.626 162.377 122.836 164.333 118.856C166.294 114.871 171.09 113.204 175.044 115.132C179.003 117.06 180.619 121.851 178.662 125.831Z" fill="#DAD6FF"/>
<path d="M196.212 71.3991L196.592 71.5843C197.274 71.9164 197.557 72.7374 197.224 73.4162L193.718 80.5458C193.384 81.2246 192.559 81.5062 191.877 81.1741L191.496 80.9889C190.814 80.6568 190.531 79.8358 190.865 79.157L194.371 72.0274C194.704 71.3486 195.529 71.067 196.212 71.3991Z" fill="#1D1D1B"/>
<path d="M151.562 162.614L151.943 162.799C152.625 163.132 152.907 163.953 152.573 164.631L149.065 171.76C148.731 172.439 147.906 172.72 147.224 172.388L146.843 172.202C146.161 171.87 145.879 171.049 146.213 170.37L149.721 163.242C150.055 162.563 150.88 162.282 151.562 162.614Z" fill="#1D1D1B"/>
<path d="M222.465 146.26L222.279 146.639C221.945 147.317 221.12 147.599 220.438 147.267L213.272 143.779C212.59 143.447 212.307 142.626 212.641 141.947L212.827 141.568C213.16 140.889 213.986 140.608 214.668 140.94L221.833 144.428C222.516 144.76 222.799 145.581 222.465 146.26Z" fill="#1D1D1B"/>
<path d="M130.61 102.229L130.798 101.846C131.133 101.167 130.85 100.347 130.167 100.014L122.998 96.5228C122.315 96.1903 121.491 96.4715 121.157 97.1508L120.969 97.5333C120.635 98.2126 120.917 99.0329 121.6 99.3654L128.769 102.857C129.452 103.189 130.276 102.908 130.61 102.229Z" fill="#1D1D1B"/>
<path d="M223.33 103.966L223.467 104.364C223.714 105.079 223.33 105.859 222.612 106.104L218.571 107.482C217.852 107.727 217.069 107.345 216.823 106.631L216.685 106.232C216.439 105.517 216.823 104.738 217.541 104.493L221.582 103.114C222.3 102.869 223.084 103.251 223.33 103.966Z" fill="#1D1D1B"/>
<path d="M127.405 136.894L127.542 137.293C127.788 138.007 127.405 138.787 126.686 139.032L121.783 140.704C121.065 140.949 120.281 140.568 120.035 139.853L119.898 139.454C119.651 138.739 120.035 137.96 120.753 137.715L125.656 136.043C126.375 135.798 127.158 136.179 127.405 136.894Z" fill="#1D1D1B"/>
<path d="M189.324 173.432L189.729 173.294C190.448 173.049 190.831 172.27 190.584 171.554L189.198 167.529C188.951 166.814 188.169 166.433 187.45 166.678L187.045 166.816C186.326 167.061 185.943 167.84 186.189 168.556L187.576 172.581C187.822 173.296 188.605 173.677 189.324 173.432Z" fill="#1D1D1B"/>
<path d="M156.225 77.9933L156.63 77.8552C157.349 77.61 157.732 76.8312 157.485 76.1157L155.805 71.2372C155.558 70.5218 154.776 70.1406 154.057 70.3858L153.652 70.5239C152.933 70.7692 152.549 71.548 152.796 72.2634L154.476 77.1419C154.723 77.8573 155.506 78.2385 156.225 77.9933Z" fill="#1D1D1B"/>
</g>
<defs>
<clipPath id="clip0_3013_35080">
<rect width="143" height="162" fill="white" transform="translate(100 32)"/>
</clipPath>
</defs>
</svg>
