<svg width="366" height="247" viewBox="0 0 366 247" fill="none" xmlns="http://www.w3.org/2000/svg">
<mask id="mask0_3068_37989" style="mask-type:alpha" maskUnits="userSpaceOnUse" x="0" y="0" width="366" height="247">
<rect width="366" height="247" rx="10" fill="#ADFFD6"/>
</mask>
<g mask="url(#mask0_3068_37989)">
<rect x="-10" y="-14.8717" width="384" height="268.338" fill="#EFEEFF"/>
</g>
<g clip-path="url(#clip0_3068_37989)">
<path d="M199.27 125.139L195.139 127.284L169.69 119.786L167.414 115.796C157.982 99.2484 155.682 79.5632 161.049 61.282L234.11 82.8023C228.744 101.083 216.16 116.376 199.27 125.139Z" fill="white"/>
<path d="M165.643 121.955L169.774 119.809L195.222 127.307L197.498 131.297C206.931 147.845 209.23 167.53 203.864 185.812L130.803 164.291C136.169 146.01 148.752 130.718 165.643 121.955Z" fill="white"/>
<path d="M234.11 82.7977L161.049 61.2774C155.682 79.5585 157.982 99.2438 167.414 115.792L169.69 119.782L169.778 119.809L165.647 121.955C148.757 130.723 136.174 146.015 130.807 164.291L203.869 185.812C209.235 167.53 206.936 147.845 197.503 131.297L195.227 127.307L195.139 127.28L199.27 125.134C216.16 116.366 228.744 101.074 234.11 82.7977Z" fill="white"/>
<path d="M229.78 81.5233L165.791 62.6768C160.424 80.958 161.798 100.374 169.598 116.441L171.481 120.315L171.555 120.338L167.822 122.599C152.569 131.849 140.911 147.414 135.545 165.691L199.534 184.542C204.9 166.261 203.526 146.844 195.727 130.778L193.844 126.904L193.77 126.881L197.503 124.62C212.756 115.37 224.414 99.8045 229.78 81.528V81.5233Z" fill="white"/>
<path d="M186.137 124.629L178.776 122.46C176.755 119.782 175.071 116.867 173.803 113.757C168.455 100.625 164.722 84.7208 168.881 70.5547L222.508 86.352C218.344 100.537 205.992 111.723 194.237 119.805C191.642 121.589 188.931 123.188 186.132 124.624L186.137 124.629Z" fill="#B4ADFF"/>
<path opacity="0.5" d="M174.863 72.3202L222.508 86.3566C221.448 89.4336 219.681 93.7062 216.711 98.3402C212.08 105.569 206.936 109.897 202.064 113.929C198.322 117.029 193.03 120.926 186.132 124.629C189.949 116.431 193.067 107.066 189.245 103.076C185.901 99.5867 179.785 102.868 175.515 99.5589C172.059 96.8851 169.973 90.0268 174.863 72.3156V72.3202Z" fill="#A198FF"/>
<path d="M195.93 78.5251L222.508 86.3566C221.716 88.5995 220.472 91.7182 218.557 95.24C213.089 105.3 205.895 111.779 205.233 111.264C204.498 110.694 212.677 102.219 210.151 97.8814C207.963 94.1186 199.992 97.3855 196.115 93.1454C192.979 89.7163 194.32 83.3491 195.93 78.5298V78.5251Z" fill="#DAD6FF"/>
<path d="M194.149 182.952L181.557 179.245C181.307 178.249 181.2 177.021 181.825 176.048C183.25 173.851 187.057 175.107 188.417 173.309C189.19 172.29 189.213 170.237 186.673 165.871C183.671 163.091 180.673 160.306 177.671 157.526C181.677 163.587 181.557 165.816 180.807 166.761C179.299 168.661 174.71 166.043 168.215 166.377C162.339 166.678 157.723 169.254 154.845 171.27C160.036 172.832 165.231 174.398 170.421 175.964L140.518 167.155C141.896 162.47 145.695 158.902 150.45 157.831L171.698 154.106C172.892 154.458 174.09 154.81 175.284 155.158C180.405 159.921 185.526 164.685 190.647 169.444C194.214 172.957 195.56 178.147 194.149 182.952Z" fill="#A198FF"/>
<path d="M188.417 173.309C187.057 175.107 183.25 173.851 181.825 176.048C181.2 177.021 181.307 178.249 181.557 179.245L170.421 175.964C165.231 174.398 160.036 172.832 154.845 171.27C157.723 169.254 162.339 166.678 168.215 166.377C174.71 166.043 179.299 168.661 180.807 166.761C181.557 165.816 181.677 163.587 177.671 157.526C180.673 160.306 183.671 163.091 186.673 165.871C189.213 170.237 189.19 172.29 188.417 173.309Z" fill="#B4ADFF"/>
<path d="M239.907 84.5077L155.248 59.5674C154.197 59.257 153.596 58.1541 153.901 57.0975L156.446 48.4273C156.756 47.3754 157.857 46.7729 158.912 47.0788L243.575 72.019C244.625 72.3295 245.227 73.4324 244.921 74.4889L242.377 83.1592C242.067 84.2111 240.966 84.8135 239.911 84.5077H239.907Z" fill="#5427E2"/>
<path d="M125.668 176.344L201.677 198.737C205.118 199.751 208.728 197.779 209.741 194.332L209.742 194.327C210.754 190.88 208.785 187.263 205.344 186.249L129.335 163.856C125.894 162.842 122.283 164.814 121.271 168.261L121.27 168.266C120.258 171.713 122.227 175.33 125.668 176.344Z" fill="#5427E2"/>
<path d="M161.03 61.9771L233.337 83.2796" stroke="#1D1D1B" stroke-width="2" stroke-miterlimit="10" stroke-linecap="round"/>
<path opacity="0.5" d="M188.417 173.309C187.057 175.107 183.25 173.851 181.825 176.048C181.2 177.021 181.307 178.249 181.557 179.245C181.561 179.273 181.571 179.296 181.575 179.324C177.856 178.203 174.141 177.081 170.421 175.964C165.231 174.398 160.036 172.832 154.845 171.27C157.723 169.254 162.339 166.678 168.215 166.377C174.71 166.043 179.299 168.661 180.807 166.761C181.557 165.816 181.677 163.587 177.671 157.526C180.673 160.306 183.671 163.091 186.673 165.871C189.213 170.237 189.19 172.29 188.417 173.309Z" fill="#A198FF"/>
<path d="M177.671 157.526C176.126 156.761 174.784 156.265 173.794 155.945C171.694 155.264 170.135 154.755 168.104 154.866C167.609 154.894 167.206 154.949 166.882 155.014C165.865 155.213 165.425 155.232 165.421 155.209C165.407 155.148 168.543 154.833 170.63 153.837C173.757 152.345 174.923 149.143 176.954 143.271C176.954 143.271 180.298 133.6 179.114 125.013C178.975 124.017 178.684 123.127 178.684 123.127C178.457 122.446 178.212 121.936 178.022 121.557C177.014 119.578 175.034 116.376 174.835 116.056C173.609 110.968 173.539 109.638 173.789 109.559C174.455 109.341 176.44 118.452 184.143 123.489C184.938 124.013 185.642 124.388 186.137 124.633C184.018 128.035 181.487 132.896 179.729 139.105C177.606 146.594 177.435 153.109 177.671 157.53V157.526Z" fill="#B4ADFF"/>
</g>
<defs>
<clipPath id="clip0_3068_37989">
<rect width="124" height="152" fill="white" transform="translate(121 47)"/>
</clipPath>
</defs>
</svg>
