<svg width="366" height="247" viewBox="0 0 366 247" fill="none" xmlns="http://www.w3.org/2000/svg">
<mask id="mask0_3013_35423" style="mask-type:alpha" maskUnits="userSpaceOnUse" x="0" y="0" width="366" height="247">
<rect width="366" height="247" rx="10" fill="#ADFFD6"/>
</mask>
<g mask="url(#mask0_3013_35423)">
<rect x="-10" y="-14.8717" width="384" height="268.338" fill="#EFEEFF"/>
</g>
<g clip-path="url(#clip0_3013_35423)">
<path d="M244.133 126.61L234.022 155.735C230.534 151.677 225.038 146.428 217.126 142.94C203.301 136.843 190.699 139.916 182.159 140.661C168.703 141.836 149.253 138.637 123.369 118.956L133.75 89.0558L244.133 126.61Z" fill="#B4ADFF"/>
<path d="M234.022 155.735L225.123 181.362C221.672 177.292 216.187 171.973 208.235 168.459C194.505 162.396 181.981 165.494 173.492 166.258C160.022 167.473 140.532 164.264 114.581 144.278L123.369 118.956C149.253 138.637 168.703 141.836 182.159 140.661C190.699 139.916 203.301 136.843 217.126 142.94C225.038 146.428 230.534 151.677 234.022 155.735Z" fill="#DAD6FF"/>
<path d="M225.123 181.362L218.841 199.464L108.458 161.91L114.581 144.278C140.531 164.264 160.022 167.473 173.492 166.258C181.981 165.494 194.505 162.396 208.235 168.459C216.187 171.973 221.672 177.292 225.123 181.362Z" fill="#A198FF"/>
<path d="M108.458 161.91L218.841 199.464L216.686 205.672C214.709 211.365 208.508 214.371 202.835 212.392L113.306 181.128C107.63 179.145 104.633 172.926 106.61 167.236L108.458 161.91Z" fill="white"/>
<path d="M260.394 79.7674L244.133 126.61L133.75 89.0558L150.317 41.3277C152.291 35.6346 158.496 32.6286 164.168 34.6116L253.698 65.8719C259.37 67.8549 262.371 74.0743 260.394 79.7674Z" fill="white"/>
<path d="M216.727 95.0788L177.417 81.8282C173.969 81.4316 171.84 79.0706 172.022 77.1136C172.158 75.6384 173.577 74.6562 173.999 74.3857L180.362 54.7303C180.281 54.456 179.62 52.1024 180.98 50.3826C182.41 48.5701 185.547 48.1439 188.119 49.8896L227.429 63.1402C230.796 63.3923 232.973 65.7792 232.825 67.8549C232.699 69.6228 230.918 70.757 230.626 70.9349C228.464 77.5287 226.298 84.1225 224.137 90.7163C224.247 91.0388 224.913 93.0662 223.867 94.5822C222.651 96.3465 219.488 96.8839 216.727 95.0751V95.0788Z" fill="#5427E2"/>
<path d="M244.022 126.519L133.564 89.2793L129.944 100.079L240.403 137.319L244.022 126.519Z" fill="#A198FF"/>
<path d="M244.03 126.884C243.989 126.884 243.952 126.877 243.912 126.865L133.451 89.634C133.259 89.5673 133.151 89.3597 133.218 89.1633C133.284 88.9706 133.491 88.8668 133.687 88.9298L244.148 126.161C244.34 126.228 244.447 126.436 244.381 126.632C244.329 126.788 244.185 126.884 244.03 126.884Z" fill="#1D1D1B"/>
</g>
<defs>
<clipPath id="clip0_3013_35423">
<rect width="155" height="179" fill="white" transform="translate(106 34)"/>
</clipPath>
</defs>
</svg>
