<svg width="260" height="149" viewBox="0 0 260 149" fill="none" xmlns="http://www.w3.org/2000/svg">
<g clip-path="url(#clip0_1535_18220)">
<path d="M196.888 116.278C196.813 116.278 196.739 116.257 196.675 116.218C196.611 116.178 196.559 116.122 196.525 116.055C196.5 116.008 196.485 115.956 196.481 115.902C196.476 115.849 196.482 115.795 196.499 115.744C196.515 115.693 196.541 115.646 196.576 115.605C196.61 115.565 196.653 115.531 196.7 115.506C198.361 114.657 199.914 113.613 201.328 112.398C203.475 110.548 205.271 108.328 206.63 105.843C206.682 105.749 206.769 105.678 206.873 105.648C206.978 105.617 207.089 105.629 207.184 105.681C207.279 105.733 207.35 105.821 207.38 105.925C207.41 106.029 207.398 106.14 207.346 106.235C205.94 108.806 204.083 111.102 201.862 113.016C200.399 114.274 198.791 115.353 197.073 116.232C197.016 116.262 196.952 116.277 196.888 116.278Z" fill="#1D1D1B"/>
<path d="M208.445 138.417C208.381 138.417 208.318 138.402 208.261 138.373C208.204 138.345 208.155 138.303 208.117 138.252C206.448 136.006 205.338 133.396 204.876 130.638C204.354 127.451 204.718 124.182 205.929 121.188C205.949 121.138 205.979 121.093 206.016 121.054C206.054 121.016 206.099 120.986 206.148 120.965C206.198 120.944 206.251 120.932 206.304 120.932C206.358 120.931 206.411 120.942 206.461 120.962C206.511 120.982 206.556 121.011 206.595 121.049C206.633 121.086 206.663 121.131 206.684 121.18C206.705 121.229 206.717 121.282 206.717 121.336C206.718 121.389 206.708 121.442 206.688 121.492C205.532 124.348 205.184 127.466 205.681 130.506C206.122 133.137 207.182 135.625 208.773 137.766C208.805 137.809 208.828 137.858 208.841 137.911C208.854 137.963 208.856 138.017 208.848 138.07C208.84 138.123 208.821 138.174 208.793 138.219C208.765 138.265 208.729 138.305 208.685 138.337C208.616 138.388 208.532 138.416 208.445 138.417Z" fill="#1D1D1B"/>
<path d="M227.536 138.417C227.472 138.417 227.409 138.402 227.351 138.373C227.294 138.345 227.245 138.303 227.206 138.252C225.538 136.006 224.426 133.396 223.964 130.638C223.443 127.451 223.807 124.182 225.017 121.188C225.037 121.138 225.067 121.093 225.105 121.054C225.142 121.016 225.187 120.986 225.236 120.965C225.286 120.944 225.339 120.932 225.392 120.932C225.446 120.931 225.499 120.942 225.549 120.962C225.599 120.982 225.644 121.011 225.683 121.049C225.721 121.086 225.751 121.131 225.772 121.18C225.794 121.229 225.805 121.282 225.805 121.336C225.806 121.389 225.796 121.442 225.776 121.492C224.621 124.348 224.274 127.466 224.771 130.506C225.212 133.137 226.271 135.625 227.863 137.766C227.927 137.854 227.954 137.963 227.937 138.07C227.921 138.177 227.863 138.273 227.775 138.337C227.706 138.388 227.622 138.416 227.536 138.417Z" fill="#1D1D1B"/>
<path d="M217.646 79.4749H216.575C209.991 79.4749 204.653 84.8046 204.653 91.3791V115.357C204.653 121.931 209.991 127.261 216.575 127.261H217.646C224.23 127.261 229.568 121.931 229.568 115.357V91.3791C229.568 84.8046 224.23 79.4749 217.646 79.4749Z" fill="#ADFFE2"/>
<path d="M211.04 100.857C212.902 100.857 214.411 99.35 214.411 97.4907C214.411 95.6314 212.902 94.1242 211.04 94.1242C209.178 94.1242 207.668 95.6314 207.668 97.4907C207.668 99.35 209.178 100.857 211.04 100.857Z" fill="#1C1836"/>
<g opacity="0.24">
<path opacity="0.24" d="M208.98 97.7107C209.714 97.7107 210.309 97.117 210.309 96.3846C210.309 95.6522 209.714 95.0585 208.98 95.0585C208.247 95.0585 207.652 95.6522 207.652 96.3846C207.652 97.117 208.247 97.7107 208.98 97.7107Z" fill="white"/>
</g>
<path d="M219.942 100.857C221.804 100.857 223.314 99.35 223.314 97.4907C223.314 95.6314 221.804 94.1242 219.942 94.1242C218.08 94.1242 216.571 95.6314 216.571 97.4907C216.571 99.35 218.08 100.857 219.942 100.857Z" fill="#1C1836"/>
<g opacity="0.24">
<path opacity="0.24" d="M217.892 97.7107C218.625 97.7107 219.22 97.117 219.22 96.3846C219.22 95.6522 218.625 95.0585 217.892 95.0585C217.158 95.0585 216.563 95.6522 216.563 96.3846C216.563 97.117 217.158 97.7107 217.892 97.7107Z" fill="white"/>
</g>
<path d="M235.752 117.987C235.664 117.987 235.577 117.958 235.506 117.904C235.436 117.85 235.384 117.775 235.36 117.69C234.726 115.442 233.79 113.289 232.578 111.292C230.776 108.326 228.397 105.75 225.583 103.717C225.539 103.685 225.503 103.646 225.475 103.6C225.447 103.554 225.429 103.503 225.421 103.45C225.412 103.398 225.415 103.344 225.427 103.292C225.44 103.24 225.463 103.191 225.495 103.147C225.559 103.06 225.655 103.002 225.762 102.986C225.87 102.969 225.979 102.996 226.066 103.06C228.969 105.157 231.421 107.813 233.28 110.871C234.529 112.931 235.494 115.15 236.149 117.468C236.164 117.52 236.168 117.574 236.161 117.628C236.155 117.682 236.138 117.734 236.111 117.781C236.084 117.827 236.048 117.869 236.005 117.902C235.963 117.935 235.914 117.959 235.861 117.973C235.826 117.982 235.789 117.987 235.752 117.987Z" fill="#1D1D1B"/>
<path d="M215.051 105.458C213.818 105.458 212.657 104.716 212.097 103.538C212.051 103.441 212.045 103.328 212.081 103.226C212.117 103.124 212.193 103.041 212.29 102.994C212.389 102.948 212.501 102.942 212.603 102.978C212.705 103.015 212.789 103.09 212.836 103.188C213.296 104.152 214.28 104.734 215.285 104.63C216.563 104.497 217.162 103.316 217.188 103.264C217.211 103.216 217.244 103.173 217.285 103.138C217.325 103.102 217.372 103.075 217.423 103.058C217.473 103.041 217.527 103.034 217.581 103.037C217.634 103.041 217.686 103.055 217.734 103.079C217.783 103.103 217.826 103.136 217.861 103.176C217.896 103.216 217.923 103.263 217.941 103.314C217.958 103.364 217.965 103.418 217.961 103.471C217.958 103.525 217.944 103.577 217.92 103.625C217.887 103.693 217.09 105.263 215.369 105.442C215.263 105.453 215.156 105.458 215.051 105.458Z" fill="#1D1D1B"/>
<path fill-rule="evenodd" clip-rule="evenodd" d="M92.1302 56.0073C91.7483 54.6442 92.2243 53.2051 93.3246 52.3732C94.6036 51.4059 96.4987 51.4327 97.8407 52.4884C97.8571 52.349 98.1376 50.2899 100.087 49.3833C100.186 49.3393 102.343 48.3759 104.076 49.6822C105.46 50.7248 105.466 52.3754 105.462 52.5803C107.141 51.908 108.969 52.2989 109.93 53.4544C110.812 54.5141 110.634 55.82 110.59 56.0952L92.1302 56.0073Z" fill="#F7F6FB"/>
<path d="M105.322 128.022C113.501 128.022 120.131 121.401 120.131 113.234C120.131 105.067 113.501 98.4464 105.322 98.4464C97.1425 98.4464 90.512 105.067 90.512 113.234C90.512 121.401 97.1425 128.022 105.322 128.022Z" fill="#ADFFE2"/>
<path d="M133.326 125.471C139.819 125.471 145.082 120.216 145.082 113.733C145.082 107.25 139.819 101.994 133.326 101.994C126.833 101.994 121.57 107.25 121.57 113.733C121.57 120.216 126.833 125.471 133.326 125.471Z" fill="#ADFFE2"/>
<path d="M120.961 116.978C120.872 116.978 120.784 116.956 120.705 116.914C120.626 116.872 120.559 116.811 120.51 116.736C120.431 116.617 120.402 116.471 120.431 116.331C120.459 116.19 120.542 116.067 120.662 115.988L130.178 109.698C130.297 109.62 130.443 109.591 130.584 109.62C130.724 109.649 130.848 109.732 130.927 109.851C131.006 109.97 131.034 110.116 131.006 110.256C130.977 110.396 130.894 110.519 130.775 110.598L121.254 116.888C121.167 116.946 121.065 116.977 120.961 116.978Z" fill="#1D1D1B"/>
<path d="M120.334 120.243C120.254 120.243 120.175 120.225 120.103 120.19L109.718 115.294C109.588 115.232 109.488 115.122 109.44 114.988C109.391 114.853 109.398 114.704 109.46 114.575C109.49 114.511 109.533 114.453 109.585 114.406C109.638 114.358 109.699 114.321 109.766 114.297C109.833 114.274 109.904 114.263 109.975 114.267C110.046 114.27 110.115 114.288 110.179 114.318L120.565 119.215C120.695 119.276 120.795 119.386 120.843 119.521C120.891 119.656 120.884 119.804 120.823 119.934C120.779 120.026 120.71 120.104 120.624 120.159C120.537 120.214 120.437 120.243 120.334 120.243Z" fill="#1D1D1B"/>
<path d="M119.613 113.228C129.412 113.228 137.355 105.296 137.355 95.5117C137.355 85.7274 129.412 77.7956 119.613 77.7956C109.814 77.7956 101.87 85.7274 101.87 95.5117C101.87 105.296 109.814 113.228 119.613 113.228Z" fill="#ADFFE2"/>
<path d="M120.911 146.265C120.84 146.265 120.77 146.251 120.704 146.223C120.639 146.196 120.579 146.156 120.529 146.106C120.479 146.056 120.439 145.997 120.412 145.931C120.385 145.866 120.371 145.795 120.371 145.725V95.5528C120.371 95.4099 120.428 95.2728 120.529 95.1717C120.631 95.0706 120.768 95.0138 120.911 95.0138C120.982 95.0137 121.052 95.0275 121.118 95.0546C121.183 95.0816 121.243 95.1213 121.293 95.1714C121.344 95.2214 121.383 95.2809 121.411 95.3463C121.438 95.4118 121.452 95.482 121.452 95.5528V145.725C121.452 145.868 121.395 146.005 121.293 146.106C121.192 146.208 121.054 146.265 120.911 146.265Z" fill="#1D1D1B"/>
<path fill-rule="evenodd" clip-rule="evenodd" d="M161.916 120.586L161.468 120.167L191.125 86.363L191.512 86.7495L161.916 120.586Z" fill="#49465E"/>
<path d="M157.732 116.771L157.009 118.165C156.73 118.704 156.941 119.368 157.481 119.647L168.31 125.244C168.85 125.524 169.514 125.313 169.793 124.774L170.516 123.379C170.796 122.84 170.585 122.177 170.045 121.898L159.216 116.3C158.676 116.021 158.012 116.232 157.732 116.771Z" fill="#1C1836"/>
<path d="M163.094 113.509C163.046 113.509 162.999 113.5 162.955 113.481C162.911 113.463 162.871 113.435 162.838 113.401C161.925 112.464 160.86 111.687 159.687 111.106C158.28 110.406 156.744 110.001 155.174 109.916C155.079 109.91 154.991 109.867 154.928 109.796C154.864 109.726 154.832 109.633 154.837 109.539C154.842 109.444 154.885 109.356 154.956 109.292C155.027 109.229 155.12 109.197 155.214 109.202C156.881 109.294 158.511 109.724 160.005 110.466C161.25 111.084 162.381 111.908 163.35 112.903C163.383 112.937 163.409 112.977 163.426 113.02C163.444 113.064 163.452 113.11 163.452 113.157C163.451 113.204 163.441 113.251 163.423 113.294C163.404 113.337 163.377 113.376 163.343 113.408C163.277 113.473 163.187 113.509 163.094 113.509Z" fill="#1D1D1B"/>
<path d="M165.147 118.466C169.301 118.466 172.668 115.104 172.668 110.957C172.668 106.809 169.301 103.447 165.147 103.447C160.993 103.447 157.626 106.809 157.626 110.957C157.626 115.104 160.993 118.466 165.147 118.466Z" fill="#ADFFE2"/>
<path d="M171.47 116.067C170.789 116.056 170.119 115.887 169.515 115.574C169.43 115.531 169.367 115.456 169.337 115.366C169.308 115.276 169.316 115.178 169.359 115.094C169.402 115.009 169.477 114.946 169.567 114.916C169.657 114.887 169.755 114.895 169.84 114.938C171.02 115.538 172.204 115.444 172.567 114.981C172.729 114.774 172.784 114.41 172.713 114.007C172.568 113.179 171.958 112.357 171.082 111.81C171.002 111.759 170.945 111.679 170.923 111.587C170.902 111.495 170.918 111.398 170.968 111.318C170.993 111.278 171.026 111.244 171.064 111.216C171.102 111.189 171.145 111.17 171.191 111.159C171.237 111.149 171.284 111.147 171.331 111.155C171.377 111.163 171.421 111.18 171.461 111.205C172.522 111.867 173.235 112.844 173.417 113.883C173.524 114.492 173.417 115.053 173.13 115.422C172.794 115.849 172.182 116.067 171.47 116.067Z" fill="#1D1D1B"/>
<path d="M163.708 115.613C163.661 115.613 163.613 115.603 163.569 115.585C163.525 115.566 163.486 115.539 163.452 115.505C162.54 114.567 161.475 113.791 160.302 113.209C158.894 112.51 157.358 112.105 155.788 112.019C155.694 112.013 155.605 111.971 155.542 111.9C155.479 111.829 155.446 111.737 155.451 111.642C155.454 111.595 155.466 111.549 155.486 111.507C155.506 111.465 155.535 111.427 155.57 111.396C155.605 111.364 155.646 111.34 155.69 111.325C155.735 111.309 155.782 111.303 155.829 111.306C157.495 111.398 159.125 111.828 160.62 112.569C161.865 113.187 162.996 114.011 163.965 115.007C163.998 115.041 164.023 115.08 164.041 115.124C164.058 115.167 164.067 115.214 164.066 115.261C164.065 115.308 164.056 115.354 164.037 115.397C164.018 115.44 163.991 115.479 163.958 115.512C163.891 115.577 163.802 115.613 163.708 115.613Z" fill="#1D1D1B"/>
<path d="M161.553 108.77C162.544 108.77 163.347 107.983 163.347 107.012C163.347 106.041 162.544 105.254 161.553 105.254C160.562 105.254 159.759 106.041 159.759 107.012C159.759 107.983 160.562 108.77 161.553 108.77Z" fill="#1C1836"/>
<path d="M165.842 109.894C166.833 109.894 167.636 109.106 167.636 108.135C167.636 107.164 166.833 106.377 165.842 106.377C164.851 106.377 164.048 107.164 164.048 108.135C164.048 109.106 164.851 109.894 165.842 109.894Z" fill="#1C1836"/>
<g opacity="0.24">
<path opacity="0.24" d="M161.086 107.814C161.727 107.814 162.247 107.295 162.247 106.654C162.247 106.014 161.727 105.495 161.086 105.495C160.444 105.495 159.924 106.014 159.924 106.654C159.924 107.295 160.444 107.814 161.086 107.814Z" fill="white"/>
</g>
<g opacity="0.24">
<path opacity="0.24" d="M165.493 108.782C166.134 108.782 166.654 108.263 166.654 107.623C166.654 106.982 166.134 106.463 165.493 106.463C164.852 106.463 164.332 106.982 164.332 107.623C164.332 108.263 164.852 108.782 165.493 108.782Z" fill="white"/>
</g>
<path d="M162.235 110.786C161.957 110.781 161.685 110.698 161.453 110.546C161.22 110.394 161.034 110.18 160.918 109.928C160.908 109.906 160.902 109.883 160.901 109.859C160.9 109.835 160.903 109.811 160.911 109.788C160.92 109.766 160.932 109.745 160.948 109.727C160.965 109.71 160.984 109.695 161.006 109.685C161.028 109.675 161.051 109.669 161.075 109.668C161.099 109.667 161.123 109.67 161.146 109.678C161.168 109.687 161.189 109.699 161.207 109.715C161.224 109.731 161.239 109.751 161.249 109.773C161.343 109.98 161.498 110.153 161.694 110.268C161.89 110.383 162.117 110.435 162.344 110.417C162.914 110.357 163.183 109.829 163.194 109.803C163.205 109.782 163.219 109.763 163.237 109.747C163.255 109.731 163.276 109.719 163.299 109.711C163.322 109.704 163.346 109.701 163.369 109.702C163.393 109.704 163.417 109.71 163.438 109.721C163.46 109.732 163.479 109.746 163.495 109.764C163.51 109.782 163.522 109.803 163.53 109.826C163.538 109.849 163.541 109.873 163.539 109.897C163.538 109.921 163.531 109.944 163.521 109.965C163.507 109.995 163.149 110.697 162.38 110.777C162.329 110.786 162.282 110.786 162.235 110.786Z" fill="#1D1D1B"/>
<path fill-rule="evenodd" clip-rule="evenodd" d="M165.437 121.757L164.954 121.378L191.638 85.1911L192.057 85.5417L165.437 121.757Z" fill="#49465E"/>
<path fill-rule="evenodd" clip-rule="evenodd" d="M205.852 142.323L192.442 84.476C192.428 84.4161 192.402 84.3601 192.363 84.3123C192.324 84.2646 192.275 84.2264 192.219 84.2009C192.164 84.1754 192.102 84.1632 192.041 84.1653C191.98 84.1675 191.92 84.1838 191.866 84.2131L191.852 84.221C191.828 84.2333 191.806 84.2473 191.783 84.2613C191.76 84.2473 191.738 84.2333 191.715 84.221L191.701 84.2131C191.647 84.1838 191.587 84.1675 191.525 84.1653C191.464 84.1632 191.403 84.1754 191.347 84.2009C191.291 84.2264 191.242 84.2646 191.203 84.3123C191.165 84.3601 191.138 84.4161 191.125 84.476L177.714 142.323C177.703 142.374 177.701 142.426 177.71 142.478C177.718 142.529 177.737 142.578 177.764 142.622C177.792 142.666 177.828 142.704 177.871 142.735C177.913 142.765 177.961 142.786 178.012 142.798L178.863 142.993C178.914 143.004 178.967 143.006 179.018 142.997C179.069 142.989 179.119 142.97 179.163 142.943C179.207 142.915 179.245 142.879 179.275 142.837C179.306 142.794 179.327 142.746 179.339 142.696L191.783 88.5455L204.227 142.696C204.239 142.746 204.26 142.794 204.291 142.836C204.321 142.879 204.359 142.915 204.403 142.942C204.447 142.97 204.496 142.989 204.548 142.997C204.599 143.006 204.652 143.004 204.702 142.993L205.555 142.798C205.605 142.786 205.653 142.765 205.696 142.735C205.738 142.704 205.774 142.666 205.802 142.622C205.83 142.578 205.848 142.529 205.857 142.478C205.865 142.426 205.864 142.374 205.852 142.323Z" fill="#ADFFE2"/>
<path d="M191.709 86.5076C192.146 86.5076 192.499 86.1545 192.499 85.7188C192.499 85.2832 192.146 84.93 191.709 84.93C191.273 84.93 190.919 85.2832 190.919 85.7188C190.919 86.1545 191.273 86.5076 191.709 86.5076Z" fill="#8578FF"/>
<path d="M110.37 147.343L110.29 147.306C110.5 146.854 110.937 145.655 110.452 144.277C110.162 143.472 109.624 142.779 108.915 142.299L108.965 142.226C109.689 142.717 110.239 143.425 110.535 144.248C111.03 145.655 110.584 146.881 110.37 147.343Z" fill="#ADFFE2"/>
<path fill-rule="evenodd" clip-rule="evenodd" d="M163.241 141.43C163.194 141.342 162.663 140.439 161.565 140.332C160.534 140.231 159.859 140.922 159.781 141.005C160.179 141.469 160.727 141.779 161.33 141.881C162.001 141.982 162.686 141.82 163.241 141.43Z" fill="#ADFFE2"/>
<path fill-rule="evenodd" clip-rule="evenodd" d="M89.6245 149L159.727 149C151.248 145.902 142.247 142.729 133.25 141.988C114.149 140.425 98.7173 145.655 89.6245 149Z" fill="#B4ADFF"/>
<path fill-rule="evenodd" clip-rule="evenodd" d="M118.021 149L260 149C252.327 145.146 244.34 141.95 236.125 139.446C186.381 124.304 140.863 139.665 118.021 149Z" fill="#A198FF"/>
<path d="M83.8566 57.6488C91.943 57.6488 98.4982 51.097 98.4982 43.0149C98.4982 34.9328 91.943 28.381 83.8566 28.381C75.7702 28.381 69.215 34.9328 69.215 43.0149C69.215 51.097 75.7702 57.6488 83.8566 57.6488Z" fill="#F9CB85"/>
<path d="M83.8566 53.2143C89.4926 53.2143 94.0614 48.6479 94.0614 43.0149C94.0614 37.3819 89.4926 32.8155 83.8566 32.8155C78.2207 32.8155 73.6519 37.3819 73.6519 43.0149C73.6519 48.6479 78.2207 53.2143 83.8566 53.2143Z" fill="#F8BE66"/>
<path d="M84.3004 48.7798C87.7309 48.7798 90.512 46.1987 90.512 43.0149C90.512 39.831 87.7309 37.25 84.3004 37.25C80.8698 37.25 78.0887 39.831 78.0887 43.0149C78.0887 46.1987 80.8698 48.7798 84.3004 48.7798Z" fill="#F8B043"/>
</g>
<defs>
<clipPath id="clip0_1535_18220">
<rect width="260" height="149" fill="white"/>
</clipPath>
</defs>
</svg>
