<svg width="28" height="28" viewBox="0 0 28 28" fill="none" xmlns="http://www.w3.org/2000/svg">
<circle cx="14" cy="14" r="14" fill="#ADFFD6"/>
<path d="M9.66651 8.00002V9.33335C9.66651 9.70002 9.96651 10 10.3332 10C10.6998 10 10.9998 9.70002 10.9998 9.33335V8.66669H17.6665V19.3334H10.9998V18.6667C10.9998 18.3 10.6998 18 10.3332 18C9.96651 18 9.66651 18.3 9.66651 18.6667V20C9.66651 20.7334 10.2665 21.3334 10.9998 21.3334H17.6665C18.3998 21.3334 18.9998 20.7334 18.9998 20V8.00002C18.9998 7.26669 18.3998 6.66669 17.6665 6.66669H10.9998C10.2665 6.66669 9.66651 7.26669 9.66651 8.00002ZM11.3332 16.3334C11.5265 16.2534 11.6998 16.14 11.8665 16.0134L11.8532 16.0334L12.5265 16.2934C12.6798 16.3534 12.8532 16.2934 12.9332 16.1467L13.4932 15.1734C13.5732 15.0334 13.5398 14.8467 13.4132 14.7467L12.8465 14.2934L12.8332 14.3134C12.8465 14.2067 12.8665 14.1 12.8665 13.9934C12.8665 13.8867 12.8465 13.78 12.8332 13.6734L12.8465 13.6934L13.4132 13.24C13.5398 13.14 13.5732 12.9534 13.4932 12.8134L12.9332 11.84C12.8532 11.7 12.6798 11.6334 12.5265 11.6934L11.8532 11.9534L11.8665 11.9734C11.6998 11.86 11.5265 11.7467 11.3332 11.6667L11.2198 10.9467C11.1998 10.7867 11.0598 10.6667 10.8932 10.6667H9.77317C9.60651 10.6667 9.46651 10.7867 9.44651 10.9467L9.33317 11.6667C9.13984 11.7467 8.96651 11.86 8.79984 11.9867L8.81317 11.9667L8.13317 11.7067C7.97984 11.6467 7.80651 11.7067 7.72651 11.8534L7.16651 12.8267C7.08651 12.9667 7.11984 13.1534 7.24651 13.2534L7.81317 13.7067L7.82651 13.6867C7.81317 13.7867 7.79317 13.8934 7.79317 14C7.79317 14.1067 7.81317 14.2134 7.82651 14.32L7.81317 14.3L7.24651 14.7534C7.11984 14.8534 7.08651 15.04 7.16651 15.18L7.72651 16.1534C7.80651 16.2934 7.97984 16.36 8.13317 16.3L8.80651 16.04L8.79984 16.0134C8.96651 16.14 9.13984 16.2534 9.33317 16.3334L9.44651 17.0467C9.46651 17.2134 9.60651 17.3334 9.77317 17.3334H10.8932C11.0598 17.3334 11.1998 17.2134 11.2198 17.0534L11.3332 16.3334V16.3334ZM8.99984 14C8.99984 13.2667 9.59984 12.6667 10.3332 12.6667C11.0665 12.6667 11.6665 13.2667 11.6665 14C11.6665 14.7334 11.0665 15.3334 10.3332 15.3334C9.59984 15.3334 8.99984 14.7334 8.99984 14Z" fill="#5427E2"/>
</svg>