<svg width="28" height="28" viewBox="0 0 28 28" fill="none" xmlns="http://www.w3.org/2000/svg">
<circle cx="14" cy="14" r="14" fill="#ADFFD6"/>
<path d="M17 13C17.92 13 18.66 12.2533 18.66 11.3333C18.66 10.4133 17.92 9.66668 17 9.66668C16.08 9.66668 15.3333 10.4133 15.3333 11.3333C15.3333 12.2533 16.08 13 17 13ZM12 12.3333C13.1067 12.3333 13.9933 11.44 13.9933 10.3333C13.9933 9.22668 13.1067 8.33334 12 8.33334C10.8933 8.33334 9.99999 9.22668 9.99999 10.3333C9.99999 11.44 10.8933 12.3333 12 12.3333ZM17 14.3333C15.78 14.3333 13.3333 14.9467 13.3333 16.1667V17.6667H20.6667V16.1667C20.6667 14.9467 18.22 14.3333 17 14.3333ZM12 13.6667C10.4467 13.6667 7.33333 14.4467 7.33333 16V17.6667H12V16.1667C12 15.6 12.22 14.6067 13.58 13.8533C13 13.7333 12.44 13.6667 12 13.6667Z" fill="#5427E2"/>
</svg>