<svg width="28" height="28" viewBox="0 0 28 28" fill="none" xmlns="http://www.w3.org/2000/svg">
<circle cx="14" cy="14" r="14" fill="#ADFFD6"/>
<path d="M19 12C18.1266 12 17.42 12.6733 17.3466 13.5333C16.0933 13.2 15.4533 12.3333 14 12.3333C12.54 12.3333 11.9066 13.2 10.6533 13.5333C10.58 12.68 9.87331 12 8.99998 12C8.07998 12 7.33331 12.7467 7.33331 13.6667V14C7.33331 18 9.73331 19.2067 11.68 19.32C12.3533 19.7467 13.1466 20 14 20C14.8533 20 15.6466 19.7467 16.32 19.32C18.2666 19.2067 20.6666 18 20.6666 14V13.6667C20.6666 12.7467 19.92 12 19 12ZM8.33331 14V13.6667C8.33331 13.3 8.63331 13 8.99998 13C9.36665 13 9.66665 13.3 9.66665 13.6667V15.6667C9.66665 16.52 9.91998 17.3133 10.34 17.9867C9.32665 17.5133 8.33331 16.4333 8.33331 14ZM19.6666 14C19.6666 16.4333 18.6733 17.5133 17.66 17.9867C18.0866 17.3133 18.3333 16.52 18.3333 15.6667V13.6667C18.3333 13.3 18.6333 13 19 13C19.3666 13 19.6666 13.3 19.6666 13.6667V14ZM13.1266 14.9867C12.8333 15.16 12.4866 15.36 12 15.4933V14.8C12.32 14.6867 12.56 14.5467 12.7866 14.4133C13.1466 14.2 13.4866 14 14 14C14.5133 14 14.8466 14.2 15.2 14.4133C15.4266 14.5467 15.6733 14.6933 16 14.8067V15.5C15.5 15.36 15.16 15.16 14.86 14.98C14.5533 14.8 14.3266 14.6667 14 14.6667C13.6733 14.6667 13.44 14.8 13.1266 14.9867Z" fill="#5427E2"/>
</svg>