<svg width="26" height="25" viewBox="0 0 26 25" fill="none" xmlns="http://www.w3.org/2000/svg">
<path d="M12.9999 10.7128C12.2536 10.7128 11.6541 11.3123 11.6541 12.0587C11.6541 12.805 12.2536 13.4045 12.9999 13.4045C13.7463 13.4045 14.3458 12.805 14.3458 12.0587C14.3458 11.3123 13.7463 10.7128 12.9999 10.7128ZM12.9999 -0.176636C6.24606 -0.176636 0.764648 5.30478 0.764648 12.0587C0.764648 18.8125 6.24606 24.294 12.9999 24.294C19.7538 24.294 25.2352 18.8125 25.2352 12.0587C25.2352 5.30478 19.7538 -0.176636 12.9999 -0.176636ZM15.6795 14.7382L5.65877 19.3998L10.3204 9.37913L20.3411 4.71748L15.6795 14.7382Z" fill="#8F90A6"/>
</svg>
